<?xml version="1.0" encoding="UTF-8"?>
<svg width="700pt" height="700pt" version="1.1" viewBox="0 0 700 700" xmlns="http://www.w3.org/2000/svg" xmlns:xlink="http://www.w3.org/1999/xlink">
 <defs>
  <symbol id="x" overflow="visible">
   <path d="m19.547-1.1719c-1.0117 0.52344-2.0625 0.91406-3.1562 1.1719-1.0938 0.26953-2.2344 0.40625-3.4219 0.40625-3.543 0-6.3516-0.98828-8.4219-2.9688-2.0625-1.9766-3.0938-4.6602-3.0938-8.0469 0-3.4062 1.0312-6.0977 3.0938-8.0781 2.0703-1.9766 4.8789-2.9688 8.4219-2.9688 1.1875 0 2.3281 0.13672 3.4219 0.40625 1.0938 0.26172 2.1445 0.65625 3.1562 1.1875v4.3906c-1.0234-0.6875-2.0273-1.1914-3.0156-1.5156-0.98047-0.32031-2.0156-0.48438-3.1094-0.48438-1.9609 0-3.5 0.625-4.625 1.875-1.1172 1.25-1.6719 2.9805-1.6719 5.1875 0 2.1875 0.55469 3.9141 1.6719 5.1719 1.125 1.25 2.6641 1.875 4.625 1.875 1.0938 0 2.1289-0.16016 3.1094-0.48438 0.98828-0.32031 1.9922-0.82812 3.0156-1.5156z"/>
  </symbol>
  <symbol id="b" overflow="visible">
   <path d="m14.297-11.609c-0.44922-0.20703-0.89062-0.35938-1.3281-0.45312-0.4375-0.10156-0.88281-0.15625-1.3281-0.15625-1.3125 0-2.3242 0.42188-3.0312 1.2656-0.71094 0.83594-1.0625 2.0391-1.0625 3.6094v7.3438h-5.0938v-15.953h5.0938v2.625c0.65625-1.0508 1.4062-1.8164 2.25-2.2969 0.85156-0.47656 1.875-0.71875 3.0625-0.71875 0.17578 0 0.36328 0.011719 0.5625 0.03125 0.19531 0.011719 0.48438 0.042969 0.85938 0.09375z"/>
  </symbol>
  <symbol id="a" overflow="visible">
   <path d="m18.375-8.0156v1.4531h-11.922c0.125 1.1992 0.55469 2.0938 1.2969 2.6875 0.73828 0.59375 1.7734 0.89062 3.1094 0.89062 1.0703 0 2.1719-0.15625 3.2969-0.46875 1.125-0.32031 2.2812-0.80469 3.4688-1.4531v3.9375c-1.2109 0.46094-2.418 0.80469-3.625 1.0312-1.2109 0.22656-2.4141 0.34375-3.6094 0.34375-2.8984 0-5.1484-0.72656-6.75-2.1875-1.5938-1.4688-2.3906-3.5312-2.3906-6.1875 0-2.5938 0.78516-4.6328 2.3594-6.125 1.5703-1.5 3.7344-2.25 6.4844-2.25 2.5078 0 4.5156 0.75781 6.0156 2.2656 1.5078 1.5117 2.2656 3.5312 2.2656 6.0625zm-5.2344-1.7031c0-0.96875-0.28906-1.75-0.85938-2.3438-0.5625-0.59375-1.2969-0.89062-2.2031-0.89062-0.99219 0-1.7969 0.28125-2.4219 0.84375-0.61719 0.55469-0.99609 1.3516-1.1406 2.3906z"/>
  </symbol>
  <symbol id="l" overflow="visible">
   <path d="m9.5938-7.1719c-1.0625 0-1.8672 0.18359-2.4062 0.54688-0.53125 0.35547-0.79688 0.88281-0.79688 1.5781 0 0.64844 0.21094 1.1523 0.64062 1.5156 0.4375 0.36719 1.0391 0.54688 1.8125 0.54688 0.95703 0 1.7656-0.34375 2.4219-1.0312s0.98438-1.5469 0.98438-2.5781v-0.57812zm7.7969-1.9375v9.1094h-5.1406v-2.3594c-0.6875 0.96875-1.4609 1.6719-2.3125 2.1094-0.85547 0.4375-1.8906 0.65625-3.1094 0.65625-1.6562 0-3-0.47656-4.0312-1.4375-1.0312-0.96875-1.5469-2.2188-1.5469-3.75 0-1.875 0.64062-3.25 1.9219-4.125 1.2891-0.875 3.3164-1.3125 6.0781-1.3125h3v-0.39062c0-0.8125-0.32031-1.4062-0.95312-1.7812-0.63672-0.375-1.6328-0.5625-2.9844-0.5625-1.0859 0-2.1016 0.10938-3.0469 0.32812-0.9375 0.21875-1.8086 0.54688-2.6094 0.98438v-3.8906c1.082-0.25781 2.1758-0.45703 3.2812-0.59375 1.1016-0.14453 2.207-0.21875 3.3125-0.21875 2.875 0 4.9453 0.57031 6.2188 1.7031 1.2812 1.1367 1.9219 2.9805 1.9219 5.5312z"/>
  </symbol>
  <symbol id="d" overflow="visible">
   <path d="m8.0156-20.484v4.5312h5.2656v3.6406h-5.2656v6.7656c0 0.74219 0.14453 1.2461 0.4375 1.5156 0.30078 0.26172 0.89062 0.39062 1.7656 0.39062h2.6094v3.6406h-4.3594c-2.0234 0-3.4531-0.41406-4.2969-1.25-0.83594-0.84375-1.25-2.2734-1.25-4.2969v-6.7656h-2.5312v-3.6406h2.5312v-4.5312z"/>
  </symbol>
  <symbol id="k" overflow="visible">
   <path d="m13.297-13.625v-8.5312h5.1406v22.156h-5.1406v-2.3125c-0.69922 0.94922-1.4688 1.6406-2.3125 2.0781-0.84375 0.42578-1.8242 0.64062-2.9375 0.64062-1.9688 0-3.5859-0.77344-4.8438-2.3281-1.2617-1.5625-1.8906-3.5781-1.8906-6.0469 0-2.457 0.62891-4.4688 1.8906-6.0312 1.2578-1.5625 2.875-2.3438 4.8438-2.3438 1.1016 0 2.0781 0.22656 2.9219 0.67188 0.85156 0.4375 1.6289 1.1211 2.3281 2.0469zm-3.3594 10.328c1.0938 0 1.9258-0.39453 2.5-1.1875 0.57031-0.80078 0.85938-1.9609 0.85938-3.4844 0-1.5078-0.28906-2.6641-0.85938-3.4688-0.57422-0.80078-1.4062-1.2031-2.5-1.2031-1.0859 0-1.9141 0.40234-2.4844 1.2031-0.57422 0.80469-0.85938 1.9609-0.85938 3.4688 0 1.5234 0.28516 2.6836 0.85938 3.4844 0.57031 0.79297 1.3984 1.1875 2.4844 1.1875z"/>
  </symbol>
  <symbol id="c" overflow="visible">
   <path d="m10.938-3.2969c1.0938 0 1.9258-0.39453 2.5-1.1875 0.57031-0.80078 0.85938-1.9609 0.85938-3.4844 0-1.5078-0.28906-2.6641-0.85938-3.4688-0.57422-0.80078-1.4062-1.2031-2.5-1.2031s-1.9336 0.40234-2.5156 1.2031c-0.58594 0.80469-0.875 1.9609-0.875 3.4688 0 1.5117 0.28906 2.668 0.875 3.4688 0.58203 0.80469 1.4219 1.2031 2.5156 1.2031zm-3.3906-10.328c0.70703-0.92578 1.4883-1.6094 2.3438-2.0469 0.85156-0.44531 1.832-0.67188 2.9375-0.67188 1.9688 0 3.582 0.78125 4.8438 2.3438 1.2695 1.5625 1.9062 3.5742 1.9062 6.0312 0 2.4688-0.63672 4.4844-1.9062 6.0469-1.2617 1.5547-2.875 2.3281-4.8438 2.3281-1.1055 0-2.0859-0.21875-2.9375-0.65625-0.85547-0.4375-1.6367-1.125-2.3438-2.0625v2.3125h-5.0938v-22.156h5.0938z"/>
  </symbol>
  <symbol id="f" overflow="visible">
   <path d="m0.35938-15.953h5.0938l4.2969 10.828 3.6406-10.828h5.0938l-6.7031 17.469c-0.67969 1.7695-1.4648 3.0078-2.3594 3.7188-0.89844 0.70703-2.0781 1.0625-3.5469 1.0625h-2.9531v-3.3438h1.5938c0.86328 0 1.4922-0.14062 1.8906-0.42188 0.39453-0.27344 0.70312-0.76562 0.92188-1.4844l0.14062-0.4375z"/>
  </symbol>
  <symbol id="j" overflow="visible">
   <path d="m14.906-15.453v3.875c-1.0859-0.45703-2.1367-0.80078-3.1562-1.0312-1.0117-0.22656-1.9688-0.34375-2.875-0.34375-0.96875 0-1.6875 0.125-2.1562 0.375-0.46875 0.24219-0.70312 0.60938-0.70312 1.1094 0 0.40625 0.17578 0.71875 0.53125 0.9375 0.35156 0.21875 0.99219 0.38281 1.9219 0.48438l0.89062 0.14062c2.6133 0.32422 4.3672 0.86719 5.2656 1.625 0.90625 0.76172 1.3594 1.9531 1.3594 3.5781 0 1.6992-0.63281 2.9766-1.8906 3.8281-1.25 0.85547-3.1211 1.2812-5.6094 1.2812-1.0547 0-2.1406-0.085938-3.2656-0.25-1.125-0.15625-2.2812-0.39844-3.4688-0.73438v-3.875c1.0195 0.49219 2.0625 0.85938 3.125 1.1094 1.0703 0.24219 2.1602 0.35938 3.2656 0.35938 0.98828 0 1.7344-0.13281 2.2344-0.40625 0.50781-0.26953 0.76562-0.67578 0.76562-1.2188 0-0.45703-0.17969-0.79688-0.53125-1.0156-0.34375-0.22656-1.0312-0.40625-2.0625-0.53125l-0.89062-0.10938c-2.2734-0.28125-3.8672-0.80469-4.7812-1.5781-0.90625-0.76953-1.3594-1.9414-1.3594-3.5156 0-1.6875 0.57812-2.9375 1.7344-3.75 1.1562-0.82031 2.9297-1.2344 5.3281-1.2344 0.9375 0 1.9219 0.074219 2.9531 0.21875 1.0391 0.14844 2.1641 0.37109 3.375 0.67188z"/>
  </symbol>
  <symbol id="i" overflow="visible">
   <path d="m15.344-15.453v4.1562c-0.69922-0.46875-1.3984-0.81641-2.0938-1.0469-0.69922-0.22656-1.4219-0.34375-2.1719-0.34375-1.4297 0-2.5391 0.41797-3.3281 1.25-0.79297 0.82422-1.1875 1.9805-1.1875 3.4688 0 1.5 0.39453 2.668 1.1875 3.5 0.78906 0.82422 1.8984 1.2344 3.3281 1.2344 0.80078 0 1.5547-0.11719 2.2656-0.35938 0.71875-0.23828 1.3828-0.58594 2-1.0469v4.1719c-0.80469 0.29297-1.6172 0.50781-2.4375 0.65625-0.8125 0.14453-1.6367 0.21875-2.4688 0.21875-2.875 0-5.125-0.73438-6.75-2.2031-1.625-1.4766-2.4375-3.5352-2.4375-6.1719 0-2.625 0.8125-4.6758 2.4375-6.1562 1.625-1.4766 3.875-2.2188 6.75-2.2188 0.83203 0 1.6562 0.078125 2.4688 0.23438 0.8125 0.14844 1.625 0.36719 2.4375 0.65625z"/>
  </symbol>
  <symbol id="w" overflow="visible">
   <path d="m2.4531-15.953h5.0938v15.953h-5.0938zm0-6.2031h5.0938v4.1562h-5.0938z"/>
  </symbol>
  <symbol id="h" overflow="visible">
   <path d="m2.4531-22.156h5.0938v22.156h-5.0938z"/>
  </symbol>
  <symbol id="v" overflow="visible">
   <path d="m2.9844-5.5156h5.125v5.5156h-5.125z"/>
  </symbol>
  <symbol id="u" overflow="visible">
   <path d="m13.297-2.7031c-0.69922 0.92969-1.4688 1.6094-2.3125 2.0469s-1.8242 0.65625-2.9375 0.65625c-1.9492 0-3.5586-0.76562-4.8281-2.2969-1.2734-1.5312-1.9062-3.4844-1.9062-5.8594 0-2.3828 0.63281-4.3359 1.9062-5.8594 1.2695-1.5312 2.8789-2.2969 4.8281-2.2969 1.1133 0 2.0938 0.21875 2.9375 0.65625s1.6133 1.125 2.3125 2.0625v-2.3594h5.1406v14.344c0 2.5625-0.8125 4.5195-2.4375 5.875-1.6172 1.3516-3.9648 2.0312-7.0469 2.0312-0.99219 0-1.9531-0.078125-2.8906-0.23438-0.92969-0.14844-1.8594-0.375-2.7969-0.6875v-3.9844c0.88281 0.51953 1.7539 0.90625 2.6094 1.1562 0.86328 0.25 1.7266 0.375 2.5938 0.375 1.6641 0 2.8828-0.37109 3.6562-1.1094 0.78125-0.73047 1.1719-1.8672 1.1719-3.4219zm-3.3594-9.9375c-1.0547 0-1.875 0.39062-2.4688 1.1719-0.58594 0.78125-0.875 1.8867-0.875 3.3125 0 1.4609 0.28125 2.5703 0.84375 3.3281 0.57031 0.75 1.4062 1.125 2.5 1.125 1.0625 0 1.8828-0.39062 2.4688-1.1719 0.59375-0.78125 0.89062-1.875 0.89062-3.2812 0-1.4258-0.29688-2.5312-0.89062-3.3125-0.58594-0.78125-1.4062-1.1719-2.4688-1.1719z"/>
  </symbol>
  <symbol id="t" overflow="visible">
   <path d="m7.5469-2.3125v8.375h-5.0938v-22.016h5.0938v2.3281c0.70703-0.92578 1.4883-1.6094 2.3438-2.0469 0.85156-0.44531 1.832-0.67188 2.9375-0.67188 1.9688 0 3.582 0.78125 4.8438 2.3438 1.2695 1.5625 1.9062 3.5742 1.9062 6.0312 0 2.4688-0.63672 4.4844-1.9062 6.0469-1.2617 1.5547-2.875 2.3281-4.8438 2.3281-1.1055 0-2.0859-0.21875-2.9375-0.65625-0.85547-0.4375-1.6367-1.125-2.3438-2.0625zm3.3906-10.328c-1.0938 0-1.9336 0.40234-2.5156 1.2031-0.58594 0.80469-0.875 1.9609-0.875 3.4688 0 1.5117 0.28906 2.668 0.875 3.4688 0.58203 0.80469 1.4219 1.2031 2.5156 1.2031s1.9258-0.39453 2.5-1.1875c0.57031-0.80078 0.85938-1.9609 0.85938-3.4844 0-1.5078-0.28906-2.6641-0.85938-3.4688-0.57422-0.80078-1.4062-1.2031-2.5-1.2031z"/>
  </symbol>
  <symbol id="g" overflow="visible">
   <path d="m18.484-9.7188v9.7188h-5.125v-7.4062c0-1.3945-0.03125-2.3516-0.09375-2.875-0.0625-0.51953-0.16797-0.90625-0.3125-1.1562-0.19922-0.33203-0.46875-0.58594-0.8125-0.76562-0.34375-0.1875-0.73438-0.28125-1.1719-0.28125-1.0625 0-1.9023 0.41406-2.5156 1.2344-0.60547 0.8125-0.90625 1.9492-0.90625 3.4062v7.8438h-5.0938v-22.156h5.0938v8.5312c0.76953-0.92578 1.5859-1.6094 2.4531-2.0469 0.86328-0.44531 1.8164-0.67188 2.8594-0.67188 1.8438 0 3.2383 0.57031 4.1875 1.7031 0.95703 1.125 1.4375 2.7656 1.4375 4.9219z"/>
  </symbol>
  <symbol id="s" overflow="visible">
   <path d="m12.953-22.156v3.3438h-2.8281c-0.71875 0-1.2266 0.13281-1.5156 0.39062-0.28125 0.26172-0.42188 0.71484-0.42188 1.3594v1.1094h4.3594v3.6406h-4.3594v12.312h-5.0938v-12.312h-2.5312v-3.6406h2.5312v-1.1094c0-1.7383 0.48438-3.0195 1.4531-3.8438 0.96875-0.83203 2.4688-1.25 4.5-1.25z"/>
  </symbol>
  <symbol id="e" overflow="visible">
   <path d="m10.047-12.688c-1.1367 0-2 0.40625-2.5938 1.2188s-0.89062 1.9805-0.89062 3.5c0 1.5312 0.29688 2.7031 0.89062 3.5156s1.457 1.2188 2.5938 1.2188c1.1016 0 1.9453-0.40625 2.5312-1.2188 0.59375-0.8125 0.89062-1.9844 0.89062-3.5156 0-1.5195-0.29688-2.6875-0.89062-3.5-0.58594-0.8125-1.4297-1.2188-2.5312-1.2188zm0-3.6562c2.7383 0 4.8789 0.74609 6.4219 2.2344 1.5391 1.4805 2.3125 3.5273 2.3125 6.1406 0 2.625-0.77344 4.6797-2.3125 6.1562-1.543 1.4805-3.6836 2.2188-6.4219 2.2188-2.7617 0-4.918-0.73828-6.4688-2.2188-1.5547-1.4766-2.3281-3.5312-2.3281-6.1562 0-2.6133 0.77344-4.6602 2.3281-6.1406 1.5508-1.4883 3.707-2.2344 6.4688-2.2344z"/>
  </symbol>
  <symbol id="r" overflow="visible">
   <path d="m17.234-13.297c0.64453-0.98828 1.4102-1.7422 2.2969-2.2656 0.89453-0.51953 1.875-0.78125 2.9375-0.78125 1.832 0 3.2266 0.57031 4.1875 1.7031 0.95703 1.125 1.4375 2.7656 1.4375 4.9219v9.7188h-5.125v-8.3125-0.39062c0.007812-0.13281 0.015625-0.32031 0.015625-0.5625 0-1.1328-0.16797-1.9531-0.5-2.4531-0.32422-0.50781-0.85938-0.76562-1.6094-0.76562-0.96875 0-1.7188 0.40234-2.25 1.2031-0.52344 0.79297-0.79297 1.9453-0.8125 3.4531v7.8281h-5.125v-8.3125c0-1.7695-0.15234-2.9062-0.45312-3.4062-0.30469-0.50781-0.84375-0.76562-1.625-0.76562-0.98047 0-1.7344 0.40234-2.2656 1.2031-0.53125 0.80469-0.79688 1.9492-0.79688 3.4375v7.8438h-5.125v-15.953h5.125v2.3281c0.625-0.89453 1.3438-1.5703 2.1562-2.0312 0.8125-0.45703 1.707-0.6875 2.6875-0.6875 1.1016 0 2.0781 0.26562 2.9219 0.79688s1.4844 1.2812 1.9219 2.25z"/>
  </symbol>
  <symbol id="q" overflow="visible">
   <path d="m2.6719-21.266h6.125l7.7344 14.578v-14.578h5.2031v21.266h-6.125l-7.7344-14.594v14.594h-5.2031z"/>
  </symbol>
  <symbol id="p" overflow="visible">
   <path d="m2.2812-6.2031v-9.75h5.125v1.5938c0 0.86719-0.007812 1.9531-0.015625 3.2656-0.011719 1.3047-0.015625 2.1719-0.015625 2.6094 0 1.2812 0.03125 2.2031 0.09375 2.7656 0.070312 0.5625 0.1875 0.97656 0.34375 1.2344 0.21875 0.33594 0.49219 0.58984 0.82812 0.76562 0.33203 0.17969 0.71875 0.26562 1.1562 0.26562 1.0625 0 1.8945-0.40625 2.5-1.2188 0.61328-0.8125 0.92188-1.9453 0.92188-3.4062v-7.875h5.0938v15.953h-5.0938v-2.3125c-0.77344 0.9375-1.5898 1.625-2.4531 2.0625-0.85547 0.4375-1.7969 0.65625-2.8281 0.65625-1.8438 0-3.25-0.5625-4.2188-1.6875-0.96094-1.1328-1.4375-2.7734-1.4375-4.9219z"/>
  </symbol>
  <symbol id="o" overflow="visible">
   <path d="m18.484-9.7188v9.7188h-5.125v-7.4375c0-1.375-0.03125-2.3203-0.09375-2.8438-0.0625-0.51953-0.16797-0.90625-0.3125-1.1562-0.19922-0.33203-0.46875-0.58594-0.8125-0.76562-0.34375-0.1875-0.73438-0.28125-1.1719-0.28125-1.0625 0-1.9023 0.41406-2.5156 1.2344-0.60547 0.8125-0.90625 1.9492-0.90625 3.4062v7.8438h-5.0938v-15.953h5.0938v2.3281c0.76953-0.92578 1.5859-1.6094 2.4531-2.0469 0.86328-0.44531 1.8164-0.67188 2.8594-0.67188 1.8438 0 3.2383 0.57031 4.1875 1.7031 0.95703 1.125 1.4375 2.7656 1.4375 4.9219z"/>
  </symbol>
  <symbol id="n" overflow="visible">
   <path d="m2.6719-21.266h9.1094c2.707 0 4.7852 0.60547 6.2344 1.8125 1.4453 1.1992 2.1719 2.9062 2.1719 5.125 0 2.2305-0.72656 3.9492-2.1719 5.1562-1.4492 1.1992-3.5273 1.7969-6.2344 1.7969h-3.625v7.375h-5.4844zm5.4844 3.9688v5.9375h3.0469c1.0625 0 1.8789-0.25391 2.4531-0.76562 0.58203-0.51953 0.875-1.2539 0.875-2.2031 0-0.94531-0.29297-1.6758-0.875-2.1875-0.57422-0.51953-1.3906-0.78125-2.4531-0.78125z"/>
  </symbol>
  <symbol id="m" overflow="visible">
   <path d="m2.4531-15.953h5.0938v15.672c0 2.1328-0.51562 3.7656-1.5469 4.8906-1.0234 1.125-2.5078 1.6875-4.4531 1.6875h-2.5156v-3.3438h0.89062c0.96875 0 1.6289-0.21875 1.9844-0.65625 0.36328-0.4375 0.54688-1.2969 0.54688-2.5781zm0-6.2031h5.0938v4.1562h-5.0938z"/>
  </symbol>
 </defs>
 <g>
  <path d="m485.34 255.05c2.7344 5.1211 4.4102 10.691 4.1523 16.684-1.1445 26.863-2.2969 47.793-2.3086 48.004l-6.8242-0.37891c0.011719-0.20312 1.168-21.094 2.3047-47.91 0.60547-14.164-12.496-26.324-23.758-34.129 2.6523 6.1875 3.3477 13.176 3.3477 22.145 0 18.09-2.9766 45.074-3.1016 46.211l-6.7969-0.75391c0.027343-0.27344 3.0625-27.75 3.0625-45.461 0-17.051-1.8086-25.152-19.996-36.785-13.949-8.9297-37.824-42.164-51.125-61.648 4.4922 21.523 10.254 45.191 16.801 60.082 12.496 28.398 9.8828 40.699 5.5547 61.082l-0.71094 3.3438-6.6836-1.4062 0.71094-3.3594c4.1836-19.688 6.4883-30.527-5.1211-56.902-10.641-24.195-19.117-69.977-23.664-94.57-0.96094-5.2031-1.7539-9.4805-2.3555-12.426-0.87891-4.3242-3.2852-7.7188-7.1328-10.086-7.1055-4.375-19.273-5.1328-30.988-1.9414-12.344 3.3789-39.473-0.65234-59.277-3.5938-7.5078-1.1133-14.605-2.1523-16.543-2.0664-0.64062 0.027343-1.3828 0.22656-1.9727 1.3828-1.3828 2.7305-1.4766 10.809 6.9727 23.758 0.66016 1.0078 1.418 1.9766 2.2617 2.9062l6.418 5.3594c14.711 9.8125 38.332 13.281 38.621 13.328l4.0117 0.57031-1.2305 3.8555c-1.043 3.2773 2.1055 16.895 4.8945 28.922 4.4688 19.301 9.5391 41.184 6.7305 52.875-1.7617 7.332-2.7812 19.227-3.7734 30.73-2.0898 24.262-3.1445 32.258-7.6406 34.062-1.6562 0.67187-3.4648 0.30469-4.9453-1.0039-4.543-4.0117-8.6758-19.641-14.711-47.074-1.2891-5.8633-2.625-11.922-3.0898-13.02-0.30469-0.67578-0.61328-1.6641-0.91406-2.8711h-0.011719c-0.12109-0.43359-0.23828-1.0156-0.35547-1.5938-2.0117-9.2734-3.7734-27.316-4.0078-29.738-0.56641-5.9609-5.7461-18.762-7.9727-23.852-2.6602-2.875-18.457-19.891-26.75-27.492-1.6328-1.5-3.1094-3-4.5195-4.4375-6.5273-6.6445-10.852-11.031-25.113-9.3203-2.9688 0.36328-3.5273 1.4648-3.7148 1.8242-2.3633 4.6836 5.4141 18.379 10.059 26.566 2.8633 5.0469 5.3359 9.4023 6.4102 12.578 3.5977 10.668 1.8672 30.141 0.24609 43.859-0.80078 6.7734 4.7188 26.773 9.1484 42.848 3.7852 13.73 7.0508 25.586 7.0508 30.707 0 4.8633 3.125 20.125 6.1484 34.883 3.5703 17.43 6.9414 33.898 6.9414 40.605 0 8.1914 29.906 64.973 49.438 100.1h191.37c-0.69531-16.602-3.6523-86.125-5.1562-99.137-1.3242-11.438 0.90234-36.848 3.0625-61.418 0.76563-8.6992 1.5234-17.359 2.125-25.359 1.2031-16.496-7.8867-25.172-15.574-29.539z"/>
  <path d="m308.18 180.8c-0.62891-2.7344-1.207-5.25-1.7461-7.6367l-42.332-35.391c-2.3086-1.5859-4.4141-3.3438-6.2773-5.25l-49.297-41.211-7.7422 9.2734 110.43 93.609c-0.99219-4.5625-2.043-9.1055-3.0352-13.395z"/>
  <path d="m291.63 149.57-0.32031 2.0469 12.855 10.75c-0.78125-4.2188-1.2305-7.6172-1.2266-10.227-2.6367-0.48828-6.6602-1.3242-11.309-2.5703z"/>
  <path d="m293.62 233c0.69922 1.5469 1.6445 5.7578 3.5391 14.375 1.1836 5.3789 3.0781 13.984 5.1523 22.145 0.14062 0 0.32031 0.046875 0.42188-0.011719 4.2812-2.4844 7.2148-28.984 9.4219-52.594-9.6367-1.582-17.113-9.0898-22.145-16.07 0.82422 12.934 1.9062 26.188 3.0391 30.281h-0.003907c0.19531 0.83594 0.39453 1.4844 0.57422 1.875z"/>
  <path d="m313.13 206.28 0.48438 0.039062c-0.074219-0.4375-0.14453-0.875-0.23438-1.3164l-24.297-20.59c0.023437 0.47656 0.046874 0.92578 0.070312 1.4219 1.4531 3.1953 10.359 21.652 23.625 24.242 0.12891-1.2773 0.24219-2.5547 0.35156-3.7969z"/>
  <path d="m247.12 516.2c0 7.2227-5.8555 13.078-13.078 13.078-7.2266 0-13.082-5.8555-13.082-13.078s5.8555-13.078 13.082-13.078c7.2227 0 13.078 5.8555 13.078 13.078"/>
  <path d="m119.04 162.24-5.7812 11.711-12.926 1.8789 9.3516 9.1172-2.207 12.875 11.562-6.0781 11.562 6.0781-2.2109-12.875 9.3555-9.1172-12.926-1.8789z"/>
  <path d="m226.43 64.34 7.9805-4.1914 7.9766 4.1914-1.5195-8.8867 6.457-6.2969-8.9258-1.293-3.9883-8.0859-3.9922 8.0859-8.9258 1.293 6.457 6.2969z"/>
  <path d="m577.38 408.04 7.9883 4.1914-1.5312-8.8828 6.457-6.293-8.918-1.3008-3.9961-8.0859-3.9883 8.0859-8.9219 1.3008 6.4609 6.293-1.5312 8.8828z"/>
  <path d="m577.38 82.453-5.2617 16.199h-17.027l13.773 10.016-5.2617 16.195 13.777-10.012 13.777 10.012-5.2617-16.195 13.781-10.016h-17.035z"/>
  <path d="m544.05 43.801c0 7.2266-5.8555 13.078-13.078 13.078s-13.078-5.8516-13.078-13.078c0-7.2227 5.8555-13.078 13.078-13.078s13.078 5.8555 13.078 13.078"/>
  <path d="m596.77 285.75c0 5.7539-4.6641 10.422-10.418 10.422s-10.418-4.668-10.418-10.422 4.6641-10.418 10.418-10.418 10.418 4.6641 10.418 10.418"/>
  <path d="m170.41 100.07c0 7.6055-6.168 13.773-13.773 13.773s-13.773-6.168-13.773-13.773c0-7.6055 6.168-13.773 13.773-13.773s13.773 6.168 13.773 13.773"/>
  <path d="m197.62 516.33c1.9023 0.48438 3.8203 0.91016 5.7617 1.3008l0.57812-2.8594c-1.8945-0.37891-3.7695-0.80469-5.625-1.2656z"/>
  <path d="m109.42 418.89c0.56641 3.8086 1.3281 7.6367 2.2617 11.375l2.8281-0.71094c-0.91406-3.6445-1.6641-7.3789-2.2109-11.09z"/>
  <path d="m175.78 508.5c3.4844 1.6523 7.0938 3.1484 10.723 4.4492l0.98438-2.7461c-3.5391-1.2656-7.0586-2.7305-10.461-4.3398z"/>
  <path d="m111.07 401.64c0-1.9062 0.046875-3.8203 0.14062-5.7461l-2.9102-0.14062c-0.10156 1.9648-0.14844 3.9336-0.14844 5.8867 0 1.9141 0.046874 3.8203 0.14062 5.7148l2.9102-0.14062c-0.089844-1.8516-0.13281-3.7148-0.13281-5.5742z"/>
  <path d="m138.76 480.95c2.5742 2.8594 5.332 5.625 8.1914 8.2266l1.9648-2.1602c-2.7891-2.5391-5.4766-5.2344-7.9922-8.0195z"/>
  <path d="m115.06 441.37c1.293 3.6094 2.7852 7.2148 4.4414 10.715l2.6367-1.25c-1.6172-3.4141-3.0742-6.9297-4.3359-10.453z"/>
  <path d="m124.97 462.31c1.9766 3.3086 4.1484 6.5586 6.4414 9.6523l2.3438-1.7344c-2.2344-3.0273-4.3516-6.1953-6.2812-9.4219z"/>
  <path d="m155.9 496.56c3.1016 2.3086 6.3477 4.4844 9.6406 6.4648l1.5039-2.5039c-3.2148-1.9297-6.375-4.0547-9.4023-6.3047z"/>
  <path d="m113.32 378.87-2.8594-0.57031c-0.38672 1.9414-0.73047 3.8789-1.0156 5.8203l2.8828 0.42578c0.28516-1.8906 0.61719-3.7891 0.99219-5.6758z"/>
  <path d="m589.61 449.06 2.9062 0.26953c0.17969-1.9609 0.29297-3.9375 0.33203-5.9336l-2.918-0.058594c-0.039063 1.9258-0.15234 3.832-0.32031 5.7227z"/>
  <path d="m569.98 494.27 2.1836 1.9375c2.875-3.2383 5.5078-6.7188 7.8281-10.344l-2.457-1.5742c-2.2344 3.5-4.7773 6.8516-7.5547 9.9805z"/>
  <path d="m550.69 510.07 1.4688 2.5195c3.7266-2.1758 7.3086-4.668 10.652-7.4102l-1.8477-2.2578c-3.2266 2.6445-6.6797 5.0508-10.273 7.1484z"/>
  <path d="m583.42 473.25 2.6758 1.1602c1.7227-3.9609 3.1367-8.0898 4.207-12.273l-2.8242-0.72266c-1.0391 4.0391-2.4023 8.0156-4.0586 11.836z"/>
  <path d="m527.43 519.08 0.60547 2.8516c4.2188-0.89844 8.3945-2.1484 12.43-3.7109l-1.0547-2.7188c-3.8789 1.5156-7.9141 2.7148-11.98 3.5781z"/>
  <path d="m509.26 520.8-0.058594 2.918c0.55859 0.011719 1.1211 0.015625 1.6797 0.015625 1.4297 0 2.8477-0.035156 4.2578-0.10938l-0.14453-2.9102c-1.9023 0.097656-3.8047 0.13672-5.7344 0.085937z"/>
  <path d="m584.89 212.2h2.918v11.668h-2.918z"/>
  <path d="m584.89 165.53h2.918v11.668h-2.918z"/>
  <path d="m584.89 235.53h2.918v11.668h-2.918z"/>
  <path d="m584.89 188.87h2.918v11.668h-2.918z"/>
  <use x="70" y="647.5" xlink:href="#x"/>
  <use x="91.40625" y="647.5" xlink:href="#b"/>
  <use x="105.789062" y="647.5" xlink:href="#a"/>
  <use x="125.570312" y="647.5" xlink:href="#l"/>
  <use x="145.253906" y="647.5" xlink:href="#d"/>
  <use x="159.195312" y="647.5" xlink:href="#a"/>
  <use x="178.976562" y="647.5" xlink:href="#k"/>
  <use x="210.007812" y="647.5" xlink:href="#c"/>
  <use x="230.886719" y="647.5" xlink:href="#f"/>
  <use x="260.054688" y="647.5" xlink:href="#j"/>
  <use x="277.414062" y="647.5" xlink:href="#i"/>
  <use x="294.703125" y="647.5" xlink:href="#b"/>
  <use x="309.085938" y="647.5" xlink:href="#w"/>
  <use x="319.085938" y="647.5" xlink:href="#c"/>
  <use x="339.960938" y="647.5" xlink:href="#c"/>
  <use x="360.839844" y="647.5" xlink:href="#h"/>
  <use x="370.839844" y="647.5" xlink:href="#a"/>
  <use x="390.621094" y="647.5" xlink:href="#v"/>
  <use x="401.699219" y="647.5" xlink:href="#u"/>
  <use x="422.578125" y="647.5" xlink:href="#h"/>
  <use x="432.574219" y="647.5" xlink:href="#f"/>
  <use x="451.585938" y="647.5" xlink:href="#t"/>
  <use x="472.464844" y="647.5" xlink:href="#g"/>
  <use x="70" y="676.667969" xlink:href="#s"/>
  <use x="82.6875" y="676.667969" xlink:href="#b"/>
  <use x="97.074219" y="676.667969" xlink:href="#e"/>
  <use x="117.109375" y="676.667969" xlink:href="#r"/>
  <use x="157.65625" y="676.667969" xlink:href="#d"/>
  <use x="171.597656" y="676.667969" xlink:href="#g"/>
  <use x="192.363281" y="676.667969" xlink:href="#a"/>
  <use x="222.300781" y="676.667969" xlink:href="#q"/>
  <use x="246.710938" y="676.667969" xlink:href="#e"/>
  <use x="266.746094" y="676.667969" xlink:href="#p"/>
  <use x="287.511719" y="676.667969" xlink:href="#o"/>
  <use x="318.429688" y="676.667969" xlink:href="#n"/>
  <use x="339.804688" y="676.667969" xlink:href="#b"/>
  <use x="354.191406" y="676.667969" xlink:href="#e"/>
  <use x="374.226562" y="676.667969" xlink:href="#m"/>
  <use x="384.226562" y="676.667969" xlink:href="#a"/>
  <use x="404.007812" y="676.667969" xlink:href="#i"/>
  <use x="421.296875" y="676.667969" xlink:href="#d"/>
 </g>
</svg>
