<?xml version="1.0" encoding="UTF-8"?>
<svg width="700pt" height="700pt" version="1.1" viewBox="0 0 700 700" xmlns="http://www.w3.org/2000/svg" xmlns:xlink="http://www.w3.org/1999/xlink">
 <defs>
  <symbol id="w" overflow="visible">
   <path d="m7.125-0.42188c-0.36719 0.1875-0.75 0.32812-1.1562 0.42188-0.39844 0.10156-0.80859 0.15625-1.2344 0.15625-1.293 0-2.3203-0.35938-3.0781-1.0781-0.75-0.72656-1.125-1.7109-1.125-2.9531 0-1.2383 0.375-2.2188 1.125-2.9375 0.75781-0.71875 1.7852-1.0781 3.0781-1.0781 0.42578 0 0.83594 0.046875 1.2344 0.14062 0.40625 0.09375 0.78906 0.23438 1.1562 0.42188v1.6094c-0.36719-0.25-0.73047-0.42969-1.0938-0.54688-0.36719-0.125-0.74609-0.1875-1.1406-0.1875-0.71094 0-1.2734 0.23047-1.6875 0.6875-0.40625 0.46094-0.60938 1.0898-0.60938 1.8906 0 0.80469 0.20312 1.4336 0.60938 1.8906 0.41406 0.46094 0.97656 0.6875 1.6875 0.6875 0.39453 0 0.77344-0.054687 1.1406-0.17188 0.36328-0.125 0.72656-0.3125 1.0938-0.5625z"/>
  </symbol>
  <symbol id="b" overflow="visible">
   <path d="m5.2188-4.2344c-0.16797-0.070313-0.33594-0.125-0.5-0.15625-0.15625-0.039063-0.3125-0.0625-0.46875-0.0625-0.48047 0-0.85156 0.15625-1.1094 0.46875-0.26172 0.30469-0.39062 0.73438-0.39062 1.2969v2.6875h-1.8594v-5.8125h1.8594v0.95312c0.23828-0.38281 0.51562-0.66016 0.82812-0.82812 0.3125-0.17578 0.67969-0.26562 1.1094-0.26562 0.0625 0 0.12891 0.007813 0.20312 0.015625 0.070313 0 0.17969 0.007812 0.32812 0.015625z"/>
  </symbol>
  <symbol id="a" overflow="visible">
   <path d="m6.7031-2.9219v0.53125h-4.3438c0.039063 0.4375 0.19531 0.76562 0.46875 0.98438 0.26953 0.21875 0.64453 0.32812 1.125 0.32812 0.39453 0 0.79688-0.054687 1.2031-0.17188 0.41406-0.125 0.83594-0.30078 1.2656-0.53125v1.4219c-0.4375 0.16797-0.875 0.29297-1.3125 0.375-0.4375 0.09375-0.88281 0.14062-1.3281 0.14062-1.0547 0-1.8711-0.26562-2.4531-0.79688-0.58594-0.53906-0.875-1.2969-0.875-2.2656 0-0.94531 0.28516-1.6914 0.85938-2.2344 0.57031-0.53906 1.3633-0.8125 2.375-0.8125 0.91406 0 1.6445 0.27734 2.1875 0.82812 0.55078 0.54297 0.82812 1.2773 0.82812 2.2031zm-1.9062-0.625c0-0.35156-0.10547-0.63281-0.3125-0.84375-0.21094-0.21875-0.48047-0.32812-0.8125-0.32812-0.35547 0-0.64844 0.10547-0.875 0.3125-0.23047 0.19922-0.37109 0.48438-0.42188 0.85938z"/>
  </symbol>
  <symbol id="g" overflow="visible">
   <path d="m3.5-2.625c-0.38672 0-0.67969 0.070312-0.875 0.20312-0.19922 0.13672-0.29688 0.32812-0.29688 0.57812 0 0.24219 0.078125 0.42969 0.23438 0.5625 0.16406 0.13672 0.38281 0.20312 0.65625 0.20312 0.35156 0 0.64844-0.125 0.89062-0.375 0.23828-0.25781 0.35938-0.57812 0.35938-0.95312v-0.21875zm2.8438-0.6875v3.3125h-1.875v-0.85938c-0.25 0.35547-0.53125 0.61719-0.84375 0.78125-0.3125 0.15625-0.69531 0.23438-1.1406 0.23438-0.60547 0-1.0938-0.17578-1.4688-0.53125-0.375-0.35156-0.5625-0.8125-0.5625-1.375 0-0.67578 0.23438-1.1719 0.70312-1.4844 0.46875-0.32031 1.207-0.48438 2.2188-0.48438h1.0938v-0.15625c0-0.28906-0.12109-0.50391-0.35938-0.64062-0.23047-0.13281-0.58984-0.20312-1.0781-0.20312-0.39844 0-0.76562 0.042969-1.1094 0.125-0.34375 0.074219-0.66406 0.1875-0.95312 0.34375v-1.4062c0.39453-0.10156 0.78906-0.17578 1.1875-0.21875 0.40625-0.050781 0.8125-0.078125 1.2188-0.078125 1.0508 0 1.8047 0.21094 2.2656 0.625 0.46875 0.40625 0.70312 1.0781 0.70312 2.0156z"/>
  </symbol>
  <symbol id="c" overflow="visible">
   <path d="m2.9219-7.4688v1.6562h1.9219v1.3281h-1.9219v2.4688c0 0.27344 0.050781 0.45312 0.15625 0.54688 0.11328 0.09375 0.32812 0.14062 0.64062 0.14062h0.96875v1.3281h-1.5938c-0.74219 0-1.2656-0.14844-1.5781-0.45312-0.30469-0.3125-0.45312-0.83203-0.45312-1.5625v-2.4688h-0.92188v-1.3281h0.92188v-1.6562z"/>
  </symbol>
  <symbol id="j" overflow="visible">
   <path d="m4.8594-4.9688v-3.1094h1.8594v8.0781h-1.8594v-0.84375c-0.26172 0.34375-0.54688 0.60156-0.85938 0.76562-0.30469 0.15625-0.65625 0.23438-1.0625 0.23438-0.71875 0-1.3086-0.28516-1.7656-0.85938-0.46094-0.57031-0.6875-1.3047-0.6875-2.2031 0-0.89453 0.22656-1.625 0.6875-2.1875 0.45703-0.57031 1.0469-0.85938 1.7656-0.85938 0.39453 0 0.75 0.085937 1.0625 0.25 0.3125 0.15625 0.59766 0.40234 0.85938 0.73438zm-1.2344 3.7656c0.39453 0 0.69531-0.14453 0.90625-0.4375 0.21875-0.28906 0.32812-0.71094 0.32812-1.2656 0-0.55078-0.10938-0.97266-0.32812-1.2656-0.21094-0.28906-0.51172-0.4375-0.90625-0.4375-0.39844 0-0.69922 0.14844-0.90625 0.4375-0.21094 0.29297-0.3125 0.71484-0.3125 1.2656 0 0.55469 0.10156 0.97656 0.3125 1.2656 0.20703 0.29297 0.50781 0.4375 0.90625 0.4375z"/>
  </symbol>
  <symbol id="i" overflow="visible">
   <path d="m3.9844-1.2031c0.40625 0 0.71094-0.14453 0.92188-0.4375 0.20703-0.28906 0.3125-0.71094 0.3125-1.2656 0-0.55078-0.10547-0.97266-0.3125-1.2656-0.21094-0.28906-0.51562-0.4375-0.92188-0.4375-0.39844 0-0.70312 0.14844-0.92188 0.4375-0.21094 0.29297-0.3125 0.71484-0.3125 1.2656 0 0.55469 0.10156 0.97656 0.3125 1.2656 0.21875 0.29297 0.52344 0.4375 0.92188 0.4375zm-1.2344-3.7656c0.25781-0.33203 0.54688-0.57812 0.85938-0.73438 0.3125-0.16406 0.67188-0.25 1.0781-0.25 0.70703 0 1.2891 0.28906 1.75 0.85938 0.46875 0.5625 0.70312 1.293 0.70312 2.1875 0 0.89844-0.23438 1.6328-0.70312 2.2031-0.46094 0.57422-1.043 0.85938-1.75 0.85938-0.40625 0-0.76562-0.078125-1.0781-0.23438-0.3125-0.16406-0.60156-0.42188-0.85938-0.76562v0.84375h-1.8594v-8.0781h1.8594z"/>
  </symbol>
  <symbol id="f" overflow="visible">
   <path d="m0.125-5.8125h1.8594l1.5625 3.9375 1.3438-3.9375h1.8594l-2.4531 6.3594c-0.25 0.64453-0.53906 1.0977-0.85938 1.3594-0.32422 0.25781-0.75781 0.39062-1.2969 0.39062h-1.0781v-1.2188h0.57812c0.32031 0 0.55078-0.054687 0.6875-0.15625 0.14453-0.09375 0.25781-0.27344 0.34375-0.53125l0.046875-0.17188z"/>
  </symbol>
  <symbol id="e" overflow="visible">
   <path d="m0.98438-7.75h3.3125c0.98828 0 1.7422 0.21875 2.2656 0.65625 0.53125 0.4375 0.79688 1.0586 0.79688 1.8594 0 0.82422-0.26562 1.4531-0.79688 1.8906-0.52344 0.4375-1.2773 0.65625-2.2656 0.65625h-1.3125v2.6875h-2zm2 1.4375v2.1719h1.0938c0.39453 0 0.69531-0.09375 0.90625-0.28125 0.20703-0.1875 0.3125-0.45703 0.3125-0.8125 0-0.34375-0.10547-0.60938-0.3125-0.79688-0.21094-0.1875-0.51172-0.28125-0.90625-0.28125z"/>
  </symbol>
  <symbol id="v" overflow="visible">
   <path d="m0.60938-5.8125h5.0781v1.2969l-3.0625 3.1875h3.0625v1.3281h-5.2031v-1.2969l3.0625-3.1875h-2.9375z"/>
  </symbol>
  <symbol id="h" overflow="visible">
   <path d="m6.2812-4.8594c0.23828-0.35156 0.51953-0.625 0.84375-0.8125 0.32031-0.1875 0.67578-0.28125 1.0625-0.28125 0.67578 0 1.1875 0.21094 1.5312 0.625 0.35156 0.40625 0.53125 1 0.53125 1.7812v3.5469h-1.875v-3.0312-0.14062c0.007812-0.050781 0.015625-0.11719 0.015625-0.20312 0-0.41406-0.0625-0.71875-0.1875-0.90625s-0.32422-0.28125-0.59375-0.28125c-0.34375 0-0.61719 0.14844-0.8125 0.4375-0.1875 0.29297-0.28906 0.71484-0.29688 1.2656v2.8594h-1.875v-3.0312c0-0.64453-0.058594-1.0625-0.17188-1.25-0.10547-0.1875-0.29688-0.28125-0.57812-0.28125-0.36719 0-0.64844 0.15234-0.84375 0.45312-0.1875 0.29297-0.28125 0.71094-0.28125 1.25v2.8594h-1.8594v-5.8125h1.8594v0.84375c0.22656-0.32031 0.48828-0.56641 0.78125-0.73438 0.30078-0.16406 0.62891-0.25 0.98438-0.25 0.40625 0 0.75781 0.10156 1.0625 0.29688 0.3125 0.1875 0.54688 0.45312 0.70312 0.79688z"/>
  </symbol>
  <symbol id="u" overflow="visible">
   <path d="m5.4375-5.6406v1.4219c-0.39844-0.16406-0.78125-0.28906-1.1562-0.375-0.36719-0.082031-0.71484-0.125-1.0469-0.125-0.35547 0-0.62109 0.046875-0.79688 0.14062-0.16797 0.085937-0.25 0.21484-0.25 0.39062 0 0.15625 0.0625 0.27734 0.1875 0.35938 0.13281 0.074219 0.375 0.13281 0.71875 0.17188l0.3125 0.046875c0.95703 0.11719 1.5977 0.3125 1.9219 0.59375 0.33203 0.27344 0.5 0.70312 0.5 1.2969 0 0.625-0.23047 1.0938-0.6875 1.4062-0.46094 0.3125-1.1406 0.46875-2.0469 0.46875-0.38672 0-0.78906-0.03125-1.2031-0.09375-0.40625-0.0625-0.82422-0.15625-1.25-0.28125v-1.4062c0.36328 0.17969 0.73828 0.3125 1.125 0.40625 0.39453 0.09375 0.79688 0.14062 1.2031 0.14062 0.36328 0 0.63281-0.050781 0.8125-0.15625 0.1875-0.10156 0.28125-0.25391 0.28125-0.45312 0-0.16406-0.0625-0.28516-0.1875-0.35938-0.125-0.082031-0.375-0.14844-0.75-0.20312l-0.32812-0.03125c-0.83594-0.10156-1.418-0.29688-1.75-0.57812-0.33594-0.28125-0.5-0.70703-0.5-1.2812 0-0.61328 0.20703-1.0664 0.625-1.3594 0.42578-0.30078 1.0781-0.45312 1.9531-0.45312 0.34375 0 0.70312 0.027344 1.0781 0.078125 0.38281 0.054688 0.79688 0.13281 1.2344 0.23438z"/>
  </symbol>
  <symbol id="t" overflow="visible">
   <path d="m0.89062-8.0781h1.8594v8.0781h-1.8594z"/>
  </symbol>
  <symbol id="s" overflow="visible">
   <path d="m0.375-5.8125h1.8125l0.96875 4 0.98438-4h1.5469l0.98438 3.9688 0.98438-3.9688h1.8125l-1.5469 5.8125h-2.0312l-0.96875-4-0.98438 4h-2.0312z"/>
  </symbol>
  <symbol id="r" overflow="visible">
   <path d="m0.89062-8.0781h1.8594v4.3906l2.1406-2.125h2.1719l-2.8438 2.6562 3.0625 3.1562h-2.25l-2.2812-2.4219v2.4219h-1.8594z"/>
  </symbol>
  <symbol id="q" overflow="visible">
   <path d="m4.7188-8.0781v1.2188h-1.0312c-0.26172 0-0.44531 0.046875-0.54688 0.14062-0.10547 0.09375-0.15625 0.26172-0.15625 0.5v0.40625h1.5938v1.3281h-1.5938v4.4844h-1.8594v-4.4844h-0.92188v-1.3281h0.92188v-0.40625c0-0.63281 0.17578-1.1016 0.53125-1.4062 0.35156-0.30078 0.89844-0.45312 1.6406-0.45312z"/>
  </symbol>
  <symbol id="d" overflow="visible">
   <path d="m3.6562-4.625c-0.40625 0-0.71875 0.15234-0.9375 0.45312-0.21875 0.29297-0.32812 0.71484-0.32812 1.2656 0 0.5625 0.10938 0.99609 0.32812 1.2969 0.21875 0.29297 0.53125 0.4375 0.9375 0.4375s0.71875-0.14453 0.9375-0.4375c0.21875-0.30078 0.32812-0.73438 0.32812-1.2969 0-0.55078-0.10938-0.97266-0.32812-1.2656-0.21875-0.30078-0.53125-0.45312-0.9375-0.45312zm0-1.3281c1.0078 0 1.7969 0.27344 2.3594 0.8125 0.5625 0.53125 0.84375 1.2773 0.84375 2.2344 0 0.96094-0.28125 1.7109-0.84375 2.25-0.5625 0.54297-1.3516 0.8125-2.3594 0.8125-1 0-1.7891-0.26953-2.3594-0.8125-0.5625-0.53906-0.84375-1.2891-0.84375-2.25 0-0.95703 0.28125-1.7031 0.84375-2.2344 0.57031-0.53906 1.3594-0.8125 2.3594-0.8125z"/>
  </symbol>
  <symbol id="p" overflow="visible">
   <path d="m6.75-3.5469v3.5469h-1.875v-2.7031c0-0.50781-0.011719-0.85938-0.03125-1.0469-0.023438-0.1875-0.0625-0.32812-0.125-0.42188-0.074219-0.125-0.17188-0.21875-0.29688-0.28125-0.125-0.070313-0.26562-0.10938-0.42188-0.10938-0.38672 0-0.69531 0.15234-0.92188 0.45312-0.21875 0.30469-0.32812 0.71875-0.32812 1.25v2.8594h-1.8594v-8.0781h1.8594v3.1094c0.28125-0.33203 0.57812-0.57812 0.89062-0.73438 0.32031-0.16406 0.67188-0.25 1.0469-0.25 0.67578 0 1.1875 0.21094 1.5312 0.625 0.35156 0.40625 0.53125 1 0.53125 1.7812z"/>
  </symbol>
  <symbol id="o" overflow="visible">
   <path d="m0.98438-7.75h2.2188l2.8281 5.3125v-5.3125h1.8906v7.75h-2.2344l-2.8125-5.3281v5.3281h-1.8906z"/>
  </symbol>
  <symbol id="n" overflow="visible">
   <path d="m0.82812-2.2656v-3.5469h1.875v0.57812c0 0.3125-0.007813 0.71094-0.015625 1.1875v0.95312c0 0.46875 0.007812 0.80859 0.03125 1.0156 0.03125 0.19922 0.078125 0.34375 0.14062 0.4375 0.070313 0.125 0.16406 0.22656 0.28125 0.29688 0.125 0.0625 0.26953 0.09375 0.4375 0.09375 0.38281 0 0.6875-0.14844 0.90625-0.45312 0.22656-0.30078 0.34375-0.71875 0.34375-1.25v-2.8594h1.8594v5.8125h-1.8594v-0.84375c-0.28125 0.34375-0.58594 0.60156-0.90625 0.76562-0.3125 0.15625-0.65625 0.23438-1.0312 0.23438-0.66797 0-1.1797-0.20312-1.5312-0.60938-0.35547-0.41406-0.53125-1.0195-0.53125-1.8125z"/>
  </symbol>
  <symbol id="m" overflow="visible">
   <path d="m6.75-3.5469v3.5469h-1.875v-2.7188c0-0.5-0.011719-0.84375-0.03125-1.0312-0.023438-0.1875-0.0625-0.32812-0.125-0.42188-0.074219-0.125-0.17188-0.21875-0.29688-0.28125-0.125-0.070313-0.26562-0.10938-0.42188-0.10938-0.38672 0-0.69531 0.15234-0.92188 0.45312-0.21875 0.30469-0.32812 0.71875-0.32812 1.25v2.8594h-1.8594v-5.8125h1.8594v0.84375c0.28125-0.33203 0.57812-0.57812 0.89062-0.73438 0.32031-0.16406 0.67188-0.25 1.0469-0.25 0.67578 0 1.1875 0.21094 1.5312 0.625 0.35156 0.40625 0.53125 1 0.53125 1.7812z"/>
  </symbol>
  <symbol id="l" overflow="visible">
   <path d="m0.89062-5.8125h1.8594v5.7031c0 0.78125-0.1875 1.375-0.5625 1.7812-0.375 0.41406-0.91797 0.625-1.625 0.625h-0.92188v-1.2188h0.32812c0.35156 0 0.59375-0.085937 0.71875-0.25 0.13281-0.15625 0.20312-0.46875 0.20312-0.9375zm0-2.2656h1.8594v1.5156h-1.8594z"/>
  </symbol>
  <symbol id="k" overflow="visible">
   <path d="m5.5938-5.6406v1.5156c-0.25-0.16406-0.50781-0.28906-0.76562-0.375-0.25-0.082031-0.51172-0.125-0.78125-0.125-0.52344 0-0.92969 0.15234-1.2188 0.45312-0.29297 0.30469-0.4375 0.72656-0.4375 1.2656 0 0.54297 0.14453 0.96875 0.4375 1.2812 0.28906 0.30469 0.69531 0.45312 1.2188 0.45312 0.28906 0 0.56641-0.039063 0.82812-0.125 0.25781-0.09375 0.5-0.22266 0.71875-0.39062v1.5156c-0.29297 0.10547-0.58984 0.17969-0.89062 0.23438-0.29297 0.0625-0.58984 0.09375-0.89062 0.09375-1.0547 0-1.875-0.26953-2.4688-0.8125-0.59375-0.53906-0.89062-1.2891-0.89062-2.25 0-0.95703 0.29688-1.7031 0.89062-2.2344 0.59375-0.53906 1.4141-0.8125 2.4688-0.8125 0.30078 0 0.59766 0.027344 0.89062 0.078125 0.30078 0.054688 0.59766 0.13281 0.89062 0.23438z"/>
  </symbol>
 </defs>
 <g>
  <path d="m458.83 12.23c-25.629 2.0195-51.66 7.082-72.719 14.293-8.8281 3.0625-14.293 5.3828-25.82 11.102-11.039 5.4023-17.566 9.2109-24.523 14.188l-4.9766 3.5508-3.5508-2.043c-6.6367-3.7227-17.059-8.8281-23.418-11.398-49.258-19.949-114.91-27.031-173.23-18.609-32.859 4.7227-61.637 15.059-79.504 28.438-6.5078 4.9336-13.93 12.355-15.336 15.398-1.3594 2.8711-1.5508 5.6367-0.44531 7.082 0.38281 0.48828 0.74609 1.6602 0.74609 2.5078 0 1.5508-0.042969 1.5938-4.3594 2.6602-9.0391 2.2539-15.953 6.2734-20.27 11.676-2.5508 3.2109-5.8047 9.9336-6.4219 13.293-0.25391 1.2969-0.48828 8.168-0.48828 15.207-0.0625 13.633-2.8711 251.87-3.2773 278.34-0.70312 42.43-1.4453 130.29-1.1484 131.44 0.36328 1.2969 2.4688 4.3594 4.3594 6.3164 0.66016 0.66016 2.0195 1.2109 3.2109 1.3594 1.1055 0.14844 12.805 0.51172 25.883 0.80859 13.082 0.29688 33.199 0.74609 44.645 1 11.422 0.29688 35.711 0.85156 53.918 1.2539 18.207 0.40234 42.582 1 54.152 1.2539 11.59 0.29688 60.234 1.4023 108.09 2.5078 47.832 1.1055 96.496 2.1914 108.07 2.5078 11.59 0.29687 45.707 1.0859 75.738 1.8516 30.094 0.74609 55.574 1.3398 56.68 1.3398 2.8086 0 29.777 0.61719 94.773 2.1055 30.902 0.72266 58.828 1.2109 62.105 1.1055 5.8711-0.14844 5.957-0.14844 7.2109-1.5938 1.0625-1.2539 1.2109-1.8086 1-3.7656-0.14844-1.2539-0.40234-9.168-0.59375-17.609-1.1484-60.723-1.8086-97.285-2.2539-120.85-1.0625-57.234-2-106.58-2.2539-119.87-0.14844-7.5703-0.85156-43.836-1.5117-80.504-0.70313-36.711-1.4453-78.078-1.7422-92.031-0.36328-17.844-0.36328-26.184 0-28.223 1-5.4219-0.87109-11.25-4.7656-14.805-3.8711-3.6172-9.293-5.6133-15.164-5.6133-3.8516 0-12.633 1.2539-17.652 2.5508-2.043 0.51172-3.9141 0.95703-4.1484 0.95703-0.21094 0-0.40234-1.9141-0.40234-4.2109v-4.2109l1.7422-0.29688c3.4688-0.66016 4.8711-4.7656 2.6602-7.5703-1.6602-2.125-19.949-10.785-34.5-16.418-20.82-8.0195-43.324-14.336-69.973-19.695-27.332-5.4648-39.859-6.8281-65.699-7.0195-10.465-0.10547-21.652 0.042968-24.82 0.23437zm41.133 10.039c21.355 1.4453 46.492 5.7227 72.465 12.23 22.863 5.7852 47.09 14.293 63.656 22.418l3.4453 1.7227-0.085938 7.2539c-0.0625 4.0195 0.14844 17.418 0.44531 29.863 0.59375 26.566 2.1484 97.539 5.5078 255.01 1.9141 88.734 2.0625 96.199 2.7656 125.64 0.74609 32.008 0.80859 30.797-1.8086 31.605-0.85156 0.29688-5.4648-2.3594-5.8711-3.3594-0.10547-0.21094-0.40234-0.40234-0.59375-0.40234-0.25391 0-3.5742-1.9141-7.3789-4.2109-9.8672-5.9766-15.547-9.0391-22.863-12.398-14.398-6.6133-30.605-12.379-44.344-15.844-3.957-0.95703-7.0625-1.957-6.9141-2.1484 0.10547-0.21094-0.29688-0.25391-0.89453-0.14844-0.66016 0.14844-4.0625-0.36328-7.6367-1.0625-8.6133-1.6602-20.82-3.2969-32.84-4.5508-18.676-1.8711-47.559-1.7656-65.465 0.23438-2.4453 0.32031-5.4023 0.61719-6.5078 0.70312-3.7227 0.36328-19.824 3.2773-25.48 4.6172-22.227 5.2305-47.898 15.504-66.062 26.48l-6.2539 3.7656-0.36328-1.3398c-0.14844-0.76562-0.59375-10.699-0.89453-22.078l-0.61719-20.715 1.168-1.1055c0.63672-0.63672 3.8086-4.0625 7.0625-7.6133 5.7227-6.3789 12.188-12.891 18.207-18.312 3.4688-3.0625 1.8516-2.2109-4.0195 2.168-4.5078 3.3594-17.652 16.398-20.312 20.098l-1.7422 2.4023-0.29688-1.4023c-0.21094-0.78516-0.36328-2.8516-0.40234-4.5508-0.0625-2.4023 0.14844-3.3164 0.95703-4.2734 0.55469-0.59375 3.2969-4.1055 6.2109-7.6797 6.7227-8.4219 15.398-17.887 18.758-20.652 3.2109-2.6172 2.957-2.7656-0.55469-0.44531-6.6797 4.4648-14.293 12.082-21.82 21.973-1.8086 2.4023-3.4023 4.2969-3.4453 4.2109-0.10547-0.0625-0.36328-6.125-0.61719-13.398l-0.44531-13.23 1.8086-1.5117c1-0.85156 2.2109-1.5117 2.6602-1.5117 0.44531 0 2.4453-2.1055 4.4023-4.7656 5.125-6.7617 13.504-16.504 19.121-22.164 2.5938-2.6602 4.5508-4.7227 4.2539-4.5078-4.957 2.8516-12.781 9.9766-18.992 17.145-2.2109 2.5508-2.168 2.3594 0.9375-2.2539 10.633-15.762 22.672-30.137 31.094-37.305 2.9141-2.5078 2.168-2.2109-1.6367 0.59375-5.125 3.6992-14.613 13.188-20.973 20.906-6.6797 8.082-14.844 19.207-18.164 24.734-4.3164 7.2734-4.6172 7.4219-4.6172 2.6992 0-2.0625-0.14844-4.4648-0.29687-5.3164-0.25391-1.2109-0.14844-1.5508 0.51172-1.5508 0.40234 0 1.1055-0.74609 1.4453-1.6602 0.91406-2.1055 9.5938-11.484 20.055-21.82 8.4844-8.3164 8.7422-9.0586 0.95703-2.8906-5.2109 4.1055-17.547 16.398-20.652 20.547l-2.2539 3.0195-0.36328-8.0195c-0.66016-15.547-0.70312-21.777-0.10547-21.777 0.29687 0 3.3594-3.1055 6.8281-6.9141 6.168-6.6797 12.039-12.59 19.164-19.121 4.4648-4.0625 2.7422-3.1484-3.8086 2.0625-6.3398 5.0195-16.312 14.738-19.715 19.164-1.3594 1.8086-2.6602 3.2539-2.8711 3.2539-0.23438 0.042968-0.38281-2.0625-0.44531-4.6172 0-2.5078-2-69.398-4.4023-148.54-2.4023-79.207-4.2734-144.29-4.168-144.8 0.29688-1.2109 8.082-7.3789 14.188-11.188 6.8281-4.2539 25.438-13.484 34.305-16.953 20.93-8.2305 51.512-14.633 77.992-16.355 9.168-0.59375 31.242-0.59375 39.625-0.042969zm-303.42 8.0195c43.73 1.9141 84.691 11.336 115.79 26.586 12.039 5.9141 10.891 4.5742 11.293 13.633 0.33984 7.5273 12.699 419.51 12.781 427.59 0.10547 3.2539-0.042969 4.1484-0.59375 4.1484-0.40234 0-2.8086-1-5.4219-2.1914-13.039-6.082-38.559-15.207-56.363-20.121-4.6562-1.2969-8.7188-2.5508-9.0391-2.7656-0.23438-0.19141-1.5938-0.55469-3-0.74609-1.3594-0.19141-5.3164-1-8.8281-1.7422-16.355-3.7227-33.859-6.8281-47.855-8.4844-67.293-8.0195-123.61-1.1055-154.16 19.016-2.5742 1.6602-4.8281 2.8906-4.9766 2.7422-0.40234-0.38281-0.19141-326.69 0.25391-379.41l0.29688-38.879 1.2969-1.7031c3.7656-4.957 14.461-12.527 24.883-17.609 30.945-15.035 74.887-22.164 123.64-20.055zm480.97 49.047c0.95703 0.46875 1.7656 1.1055 1.7656 1.4688 0 0.29687-2.168 1.957-4.7656 3.6602-2.6172 1.7422-8.9336 6.168-14.102 9.8281-5.1055 3.7227-9.5703 6.7227-9.9336 6.7227-0.40234 0-0.55469-1-0.44531-3.3594l0.14844-3.3594 7.7852-5.9141c15.188-11.633 13.527-10.594 15.781-10.188 1.1055 0.14844 2.8086 0.70313 3.7656 1.1484zm-14.781 0.0625c-0.61719 0.48828-11.293 8.2305-12.145 8.7617-0.51172 0.25391-0.66016-0.44531-0.66016-3.043v-3.4258l2.9141-0.63672c1.5508-0.32031 4.2109-0.91406 5.8711-1.3203 3.6172-0.85156 4.6172-0.95703 4.0195-0.33984zm18.293 8.0195v4.5078l-4.957 3.2109c-2.6992 1.8086-9.4844 6.5703-14.996 10.594-5.5312 4-10.188 7.3164-10.336 7.3164-0.14844 0-0.29688-1.4023-0.29688-3.168v-3.1484l11.676-8.9766c6.3789-4.9141 13.207-10.293 15.059-11.891 1.8945-1.5938 3.5078-2.9141 3.6602-2.9141 0.10547 0 0.19141 2.0195 0.19141 4.4648zm-644.98 5.7656v4.2109l-6.125 4.5312c-3.4023 2.4883-8.0625 6.1055-10.379 8.0625-2.3594 1.9141-4.4023 3.4258-4.6172 3.2539-0.55469-0.33984 0.10547-6.8047 0.76562-7.6562 1.1484-1.5117 19.098-16.609 19.695-16.609 0.51172 0 0.66016 1.1484 0.66016 4.2109zm-7.0195-2.043c-1.0625 0.9375-9.6367 7.5703-10.441 8.0625-0.55469 0.36328-0.59375 0.21094-0.19141-0.55469 1-1.8086 5.6133-5.7227 8.2734-6.9141 3-1.4023 3.3594-1.5117 2.3594-0.59375zm652 9.2109v4.9336l-3.4023 1.957c-1.8516 1.0859-8.4648 5.2969-14.695 9.4219-6.2109 4.0625-11.59 7.4219-11.891 7.4219-0.85156 0-0.74609-4.7656 0.10547-5.6133 0.33984-0.36328 5.3594-4.2734 11.082-8.6758 5.7656-4.4258 12.145-9.4453 14.25-11.145 2.1055-1.7031 3.957-3.1055 4.2109-3.1055 0.19141-0.042969 0.33984 2.1484 0.33984 4.8086zm-644.98 1.8711v2.6992l-4.3594 3.2539c-2.4688 1.8086-7.125 5.5742-10.441 8.3359-3.2969 2.7422-6.168 5.0625-6.3594 5.0625-0.25391 0-0.40234-0.74609-0.40234-1.6602 0-1.2969 0.51172-2.1055 2.4023-3.957 2.0625-2.0625 18.715-16.398 19.059-16.461 0.0625 0 0.10547 1.2109 0.10547 2.7227zm0 9.8281v4.4648l-3.8711 2.957c-2.1484 1.6602-6.9531 5.5078-10.676 8.5703l-6.7617 5.5742-0.14844-3.5742c-0.14844-3.1484 0-3.7422 1-4.8477 1.1484-1.2539 20.016-17.652 20.312-17.652 0.10547 0 0.14844 2 0.14844 4.5078zm645.38 0.10547c-0.14844 3.4453-0.25391 3.6992-1.6602 4.5508-12.57 7.8711-28.18 17.398-28.48 17.398-0.19141 0-0.33984-1.043-0.25391-2.3398l0.14844-2.3594 11.848-8.2734c6.5078-4.5742 13.039-9.293 14.547-10.441 3.8086-2.957 4-2.8516 3.8516 1.4688zm0.10547 9.5703v3.6602l-1.957 1.1055c-1.0625 0.59375-7.6797 4.8711-14.652 9.4219-7.0195 4.6172-13.039 8.4844-13.336 8.5938-1.1055 0.38281-0.85156-5.0195 0.25391-5.9766 0.44531-0.40234 5.8281-4.1055 11.891-8.168 6.0625-4.125 12.484-8.5273 14.25-9.8906 1.7422-1.2969 3.2969-2.4023 3.3594-2.4023 0.085938 0 0.19141 1.6602 0.19141 3.6602zm-645.49 1.5508v3.7656l-7.125 5.7227c-3.957 3.1484-8.7188 7.125-10.676 8.8281l-3.5078 3.0625-0.14844-3.6172c-0.14844-3.3594-0.0625-3.6602 1.2539-4.9766 2.1914-2.1914 19.398-16.484 19.844-16.484 0.21094 0 0.36328 1.6367 0.36328 3.6992zm645.93 10.082c0.0625 2.4023-0.14844 2.6992-2.6992 4.2539-1.1055 0.66016-7.5273 5.0195-14.293 9.6992-6.7852 4.6562-12.547 8.5703-12.891 8.7188-0.66016 0.25391-1.1484-5.168-0.55469-6.4219 0.19141-0.44531 1.4453-1.4453 2.7656-2.2109 2.7422-1.5938 19.504-13.145 23.969-16.504l3-2.2539 0.29688 1.3594c0.21094 0.74609 0.36328 2.2539 0.40234 3.3594zm-645.93 0.66016v3.9141l-4.1055 3.043c-2.3164 1.7227-6.9766 5.3828-10.441 8.125-3.4688 2.8281-6.4219 5.082-6.6133 5.082-0.25391 0-0.40234-1.3203-0.40234-2.9141v-2.9141l3.1055-2.6992c6.4219-5.6797 18.016-15.547 18.207-15.547 0.14844 0 0.25391 1.7422 0.25391 3.9141zm645.89 12.23-0.14844 7.168-14.293 8.6367c-7.8906 4.6992-14.695 8.6133-15.145 8.6133-0.80859 0.0625-0.91406-0.48828-0.91406-4.9141v-4.9141l5.6133-3.6992c5.3164-3.5078 17.867-12.738 22.227-16.312 1.1055-0.9375 2.1484-1.7031 2.4023-1.7031 0.19141 0 0.29688 3.2109 0.25391 7.125zm-645.89-1.9141v4.2734l-4.6562 3.7656c-2.5742 2.043-7.3359 6.0195-10.551 8.7617-3.1914 2.8086-6.0625 5.082-6.3594 5.082s-0.51172-1.4023-0.51172-3.5078c0-3.125 0.14844-3.6797 1.4023-5.0195 1.1055-1.2539 20.121-17.461 20.566-17.566 0.0625 0 0.10547 1.9141 0.10547 4.2109zm0 9.5273v2.7227l-4.1055 3.1484c-5.8711 4.4258-15.91 12.508-16.25 13.039-0.61719 1.0195-1.7227 0.40234-1.7227-0.9375 0-1 0.76562-2.1055 2.9141-4.2109 3.957-3.8711 18.312-16.461 18.801-16.461 0.21094 0 0.36328 1.2109 0.36328 2.6992zm0 8.5273v3.7227l-4.7227 3.5078c-2.5938 1.957-7.4648 5.8047-10.785 8.6133-3.2969 2.7656-6.168 5.0195-6.3164 5.0195-0.14844 0-0.25391-1.2969-0.25391-2.957v-2.9141l10.934-9.3789c5.9766-5.1055 10.934-9.3164 11.039-9.3164 0.0625 0 0.10547 1.6602 0.10547 3.6992zm646.34 2.6172 0.10547 5.9766-2.6172 1.2969c-1.4453 0.70312-8.0195 4.4648-14.633 8.3789-6.6367 3.9141-12.293 7.125-12.656 7.125-0.48828 0-0.63672-1.4258-0.63672-5.5312v-5.5742l2.4023-1.4453c13.484-8.3789 27.031-16.441 27.438-16.355 0.29688 0.10547 0.55469 2.6602 0.59375 6.125zm-646.34 7.4219v4.2109l-3.3594 2.4023c-4.6172 3.2539-9.4219 7.125-13.293 10.594-1.7422 1.5508-3.6602 3.2969-4.2539 3.8516l-1.168 0.95703v-7.4648l10.699-9.3789c5.8047-5.168 10.785-9.3789 11.016-9.3789 0.21094 0 0.36328 1.8945 0.36328 4.2109zm646.59 9.6758c0.14844 3.957 0.042969 5.0625-0.55469 5.7656-0.44531 0.44531-3.4688 2.3164-6.7227 4.168-3.2539 1.8086-9.6758 5.5742-14.293 8.3164l-8.3789 5.0195-0.29687-4.6562c-0.14844-2.8711-0.042969-5.0195 0.25391-5.5742 0.55469-0.89453 28.141-17.801 29.223-17.844 0.36328-0.0625 0.61719 1.5508 0.76562 4.8086zm-646.59 0.29688v3.6602l-4.6172 3.2773c-2.5078 1.7422-7.4219 5.4023-10.824 8.0625-3.4688 2.7227-6.4883 4.9141-6.7852 4.9141s-0.33984-0.78516-0.19141-1.8945c0.25391-1.5117 1.043-2.6172 4.4648-5.8281 7.8281-7.4648 17.035-15.844 17.504-15.844 0.23438 0 0.44531 1.6602 0.44531 3.6602zm-0.10547 10.996-0.14844 5.0625-6.0625 4.3594c-3.3164 2.4023-8.2305 6.0625-10.891 8.168s-4.957 3.8711-5.1055 3.8711c-0.36328 0-0.32031-7.2734 0.042969-8.2305 0.14844-0.44531 3.6992-3.6172 7.9336-7.0195 4.1484-3.4688 8.9102-7.3789 10.57-8.7852 1.6602-1.4023 3.2109-2.5508 3.4023-2.5508 0.21094 0 0.32031 2.3164 0.25391 5.125zm647.11 7.5703v6.168l-1.8711 0.89453c-1.043 0.51172-7.7188 4.4258-14.844 8.6758-7.1055 4.3164-13.039 7.7188-13.121 7.5703-0.46875-0.40234-0.80859-11.188-0.40234-11.742 0.19141-0.33984 5.168-3.3594 10.934-6.7227 5.8047-3.4023 12.23-7.2109 14.293-8.5703 2.0625-1.3398 4.0625-2.4453 4.4023-2.4453 0.46875 0 0.61719 1.5508 0.61719 6.168zm-647 2.8086v3.5078l-5.8711 4.3594c-3.2539 2.4023-8.2305 6.2734-11.039 8.5703-2.8516 2.2539-5.2539 4.168-5.4023 4.168-0.14844 0-0.25391-1.2539-0.25391-2.7656v-2.7422l8.6758-7.1875c4.6992-3.957 9.6133-8.168 10.867-9.2734 1.2539-1.1484 2.4258-2.0625 2.6602-2.1055 0.21094 0 0.36328 1.5508 0.36328 3.4688zm0 10.719v4.6797l-4.7656 3.3594c-2.6602 1.8945-7.6367 5.6562-11.039 8.4219-3.4688 2.6992-6.3594 4.957-6.5078 4.957-0.14844 0-0.25391-1.6602-0.25391-3.6992v-3.7656l3.1484-2.6992c7.1875-6.2734 18.715-15.91 19.059-15.91 0.21094 0 0.36328 2.1055 0.36328 4.6562zm647.49 0.25391c0 1.7031-0.85156 2.5508-4.5078 4.3594-4.1055 2.0625-13.59 7.5273-19.715 11.398-2.957 1.8516-5.6133 3.4023-5.8711 3.4023-0.29687 0-0.48828-0.80859-0.48828-1.7656 0-1.2539 0.29688-1.957 1.1914-2.5078 3.2109-2.1055 28.246-16.25 28.797-16.293 0.33984 0 0.59375 0.59375 0.59375 1.4023zm0 8.2734c0 2.9141-0.19141 3.8711-0.85156 4.4648-0.48828 0.44531-6.4219 4.0625-13.188 8.0195-17.25 10.23-15.504 9.293-16.059 8.4453-0.70312-1.1055-0.59375-4.6797 0.17188-5.6367 0.29688-0.44531 6.3594-4.4453 13.336-8.9102 7.0195-4.4258 13.336-8.5273 14.039-9.0391 2.2539-1.6602 2.5508-1.3398 2.5508 2.6602zm-647.49 0.29687c0 1.3203-0.70312 2.0625-4.8711 5.4219-2.6992 2.1484-7.7188 6.6797-11.23 10.039-3.5078 3.4023-6.4648 6.168-6.6797 6.168-0.14844 0-0.29688-0.70312-0.29688-1.5508 0-1.2109 0.51172-2.1055 2.168-3.6797 2.3398-2.2969 20.398-17.844 20.695-17.844 0.10547 0 0.21094 0.66016 0.21094 1.4453zm0 8.2734v3.168l-3.8711 3.2109c-2.1484 1.7422-7.2109 6.4219-11.23 10.336-4.0195 3.957-7.4648 7.168-7.6133 7.168-0.21094 0-0.36328-1.2109-0.36328-2.6602l-0.042968-2.6172 11.188-10.934c6.1055-5.957 11.336-10.867 11.527-10.867 0.25391 0 0.40234 1.4453 0.40234 3.1914zm647.49 3.9141c0 0.91406 0.14844 2.5078 0.29688 3.5078l0.32031 1.8711-3.6797 1.8086c-5.4023 2.6992-9.7617 5.3164-18.293 10.867-4.168 2.7227-7.8281 4.9141-8.125 4.9141-0.40234 0-0.61719-1.2969-0.61719-3.957v-4.0195l6.4219-3.6602c10.934-6.2539 22.93-12.891 23.332-12.93 0.19141 0 0.33984 0.74609 0.33984 1.5938zm-647.49 4.5742v3.168l-4.3594 3.7422c-2.4023 2.0625-7.4883 6.5703-11.23 10.082-3.8281 3.5742-7.0391 6.4219-7.1875 6.4219-0.14844 0-0.29688-0.80859-0.29688-1.7422 0-1.6172 0.66016-2.5078 5.4648-7.6797 6.082-6.5703 16.762-17.164 17.25-17.164 0.21094 0 0.36328 1.4023 0.36328 3.168zm647.89 6.2109-0.14844 4.3828-3.5078 2c-1.9141 1.1055-8.5703 5.1055-14.738 8.9766-12.102 7.5273-12.25 7.5703-11.996 3.6172 0.14844-1.957 0.21094-2.0195 9.3789-8.3359 5.0625-3.5078 11.699-8.3164 14.738-10.676 3.0625-2.3594 5.7852-4.3164 6.0195-4.3164 0.21094 0 0.29688 1.957 0.25391 4.3594zm-647.89 3.0625v3.3594l-5.3594 4.3594c-3.0195 2.3594-8.1875 6.9336-11.551 10.188l-6.168 5.8711v-4.8711l11.145-11.125c6.168-6.125 11.336-11.145 11.57-11.145 0.21094-0.042969 0.36328 1.4688 0.36328 3.3594zm648 7.7852v3.5938l-3.1055 1.7656c-1.7656 0.95703-8.2305 5.125-14.441 9.2734-6.2305 4.125-11.59 7.5703-11.891 7.6797-0.46875 0.14844-0.66016-0.66016-0.66016-2.7656v-2.8906l11.145-7.5273c6.168-4.168 12.719-8.7188 14.633-10.188 1.9141-1.4023 3.6602-2.5938 3.9141-2.5938 0.19141 0 0.40234 1.6367 0.40234 3.6602zm-648 0.85156v3.5078l-4.3594 3.3594c-2.4023 1.8945-7.4883 6.0625-11.293 9.2734-3.8086 3.2539-7.0195 5.9141-7.168 5.9141-0.14844 0-0.25391-0.48828-0.25391-1.1055 0-0.63672 1.4688-2.5938 3.9141-5.1055 12.738-13.293 18.652-19.355 18.906-19.355 0.14844 0 0.25391 1.5508 0.25391 3.5078zm648.25 6.6133c0.14844 0.89453 0.23437 3.3594 0.14844 5.4219l-0.14844 3.7656-14.805 9.9102-14.805 9.8906-0.33984-1.8516c-0.21094-1.0625-0.36328-3.2109-0.36328-4.7656l-0.042969-2.8711 2.9141-1.8516c3.8516-2.4453 20.801-14.633 23.926-17.145 1.4023-1.168 2.6602-2.0625 2.8516-2.0625 0.19141-0.042969 0.51172 0.70312 0.66016 1.5508zm-648.36 3.2539-0.14844 2.8711-5.5742 4.3164c-3.043 2.3398-8.168 6.4648-11.336 9.125-3.1914 2.6992-5.957 4.9141-6.1055 4.9141s-0.29688-0.80859-0.29688-1.8086c0-1.6172 0.38281-2.2109 3.4023-4.9766 6.0625-5.6133 19.418-17.25 19.801-17.25 0.21094-0.042969 0.36328 1.2539 0.25391 2.8086zm0.10547 7.9336v3.2109l-4.1055 3.1055c-2.3164 1.7656-7.3359 5.6562-11.188 8.7188-3.8711 3.0625-7.3359 5.7227-7.6367 5.9766-0.48828 0.25391-0.63672-0.21094-0.63672-1.7656 0-1.8945 0.23438-2.4023 2.4023-4.4023 2.6602-2.6172 20.652-18.102 20.949-18.102 0.10547 0 0.21094 1.4453 0.21094 3.2539zm648.49 3.2539v2.4688l-3.8516 2.6602c-2.168 1.4023-8.7188 5.9141-14.59 10.02-5.8711 4.0625-10.891 7.4219-11.145 7.4219-0.29688 0-0.48828-0.89453-0.48828-1.957 0-1.957 0.085937-2.043 4.9141-5.3594 7.5703-5.3164 20.715-14.738 22.672-16.355 0.9375-0.74609 1.8945-1.4023 2.1055-1.4023 0.23438 0 0.38281 1.1055 0.38281 2.5078zm-648.49 4.3594c0 1.8086 0 1.7656-5.2734 6.168-2.4453 2.0625-7.4648 6.3789-11.125 9.6367-3.6602 3.2539-6.7852 5.9141-6.9336 5.9141s-0.23438-0.89453-0.23438-1.957c0-1.7852 0.29688-2.1914 3.1484-4.6992 5.3594-4.7227 19.672-16.355 20.055-16.398 0.21094 0 0.36328 0.59375 0.36328 1.3398zm648.49 5.3828v4.2109l-4.3594 3.1484c-2.4453 1.7656-9.0195 6.6367-14.695 10.891-11.527 8.6367-10.867 8.4648-10.977 2.5508-0.042968-3.4453-0.59375-2.9141 13.484-13.336 5.9336-4.3594 11.891-8.7852 13.25-9.8281 1.3398-1 2.6602-1.8516 2.8516-1.8516 0.25391 0 0.44531 1.8945 0.44531 4.2109zm-648.49 2.043v2.7227l-8.8672 6.8711c-4.9336 3.7656-10.188 7.8711-11.699 9.125l-2.7656 2.2109-0.14844-1.3203c-0.085937-0.74609 0.14844-1.7031 0.51172-2.1484 1.2539-1.5508 22.055-20.207 22.523-20.207 0.23438 0 0.44531 1.2539 0.44531 2.7422zm649 10.23v5.5312l-4.6172 2.5938c-6.0195 3.3594-11.484 6.9336-18.504 11.996-3.1055 2.2539-5.9141 4.2109-6.3164 4.3594-0.51172 0.21094-0.66016-0.51172-0.66016-3v-3.2773l9.1875-7.0625c5.0195-3.8711 11.633-9.1875 14.633-11.781 3.0625-2.6602 5.6797-4.7656 5.9336-4.8281 0.19141 0 0.33984 2.4688 0.33984 5.4648zm-649-2c0 1.8516-0.14844 2.0625-4.8711 5.5742-2.6992 2-7.8711 6.0195-11.527 8.8672-3.6172 2.8086-6.7227 5.168-6.8711 5.168s-0.29688-0.74609-0.29688-1.6602c0-1.5508 0.59375-2.1484 7.4219-7.7188 13.441-10.977 14.887-12.145 15.547-12.188 0.33984 0 0.59375 0.70312 0.59375 1.957zm0 8.3164c0 2.7656 0 2.7656-2.6172 4.7656-7.5078 5.6797-20.609 15.059-21.055 15.059-0.36328 0-0.40234-0.74609-0.21094-2.168 0.36328-2.4023 0.17188-2.1914 13.805-13.23 4.8711-3.9141 9.125-7.125 9.4844-7.125 0.38281-0.042969 0.59375 0.80859 0.59375 2.6992zm649 6.9336v4.6562l-3.3594 1.957c-5.5742 3.2539-10.594 6.6797-18.25 12.336-4.0625 3.0195-7.4883 5.4648-7.6367 5.4648-0.44531 0-0.95703-5.3594-0.59375-6.4648 0.29688-0.95703 28.543-22.609 29.5-22.609 0.19141 0 0.33984 2.1055 0.33984 4.6562zm-649 1.5508c0 1.5938-0.29688 1.957-4.1055 4.6172-2.3164 1.5508-7.4883 5.4219-11.551 8.5703-4.0625 3.1055-7.6133 5.6797-7.9102 5.6797-0.70312 0-0.66016-1.6602 0.14844-2.6172 0.29688-0.40234 4.2109-3.5508 8.6133-6.9766 4.4258-3.3594 9.3789-7.2109 11.039-8.5703 1.6602-1.2969 3.168-2.3594 3.4023-2.4023 0.21094 0 0.36328 0.74609 0.36328 1.7031zm0 7.3164v2.4688l-3.1055 2.1055c-3.9141 2.6602-7.5703 5.4023-14.762 11.082-3.1055 2.4023-5.7656 4.4023-5.9141 4.4023-0.19141 0-0.29688-0.78516-0.19141-1.7852 0.14844-1.7227 0.89453-2.4258 11.676-11.25 6.3789-5.2109 11.699-9.4648 11.934-9.4648 0.21094-0.0625 0.36328 1.043 0.36328 2.4453zm649.51 4.2109v5.2305l-5.125 2.8906c-2.8516 1.6172-9.4219 5.4648-14.695 8.6367-5.2109 3.1484-9.6758 5.8711-9.8672 5.9766-0.25391 0.085938-0.40234-1.1055-0.40234-2.7227l0.042969-2.9141 7.5703-5.5078c4.125-3.0625 10.742-8.082 14.59-11.188 3.9141-3.0625 7.2734-5.6133 7.4883-5.6133 0.19141 0 0.40234 2.3594 0.40234 5.2109zm-649.51 3.5742c0 1.5508-0.51172 2.1055-5.7227 6.4648-3.1055 2.6172-8.4219 7.2109-11.742 10.273-3.3594 3.0625-6.168 5.5742-6.3594 5.5742-0.14844 0-0.25391-1.1055-0.25391-2.4453v-2.4688l4.4258-3.8086c9.2109-7.9336 18.906-15.762 19.289-15.504 0.21094 0.10547 0.36328 0.95703 0.36328 1.9141zm0 8.7617c0 3.0195-0.14844 3.6797-1.1055 4.4648-0.66016 0.51172-3.957 3.2109-7.4219 5.9766-3.4688 2.7656-8.2734 6.8711-10.785 9.082l-4.5078 4.0625-0.14844-2.6172c-0.14844-2.5078-0.10547-2.6602 2.2539-4.957 4.0625-4.0625 20.973-19.461 21.355-19.523 0.21094 0 0.36328 1.6172 0.36328 3.5078zm649.51 0.46875v3l-3.6172 2c-2.0195 1.1055-8.6367 5.082-14.695 8.7852-7.7852 4.8086-11.082 6.6133-11.379 6.168-0.51172-0.74609-0.51172-2.957 0-3.6602 0.44531-0.66016 28.988-19.27 29.543-19.27 0.085938 0 0.14844 1.3594 0.14844 2.9766zm0.48828 10.379c0 3.1055-0.042969 3.2969-1.5508 4.1055-4.8711 2.6992-14.145 8.3789-20.418 12.441-3.957 2.6172-7.3594 4.7227-7.6562 4.7227-0.25391 0-0.46875-1.2539-0.46875-2.7656v-2.7656l14.652-9.7188c8.0195-5.3828 14.805-9.6758 15.035-9.5273 0.21094 0.14844 0.40234 1.7031 0.40234 3.5078zm-650 2.8516c0 3.1055-0.21094 5.8711-0.40234 6.168-0.19141 0.25391-2.2539 1.957-4.6172 3.7227-5.5078 4.1484-8.7188 6.8047-14.336 11.891-2.5742 2.2969-4.7656 4.1484-4.9141 4.1484s-0.32031-2.4023-0.32031-5.3594v-5.3594l3.6797-3.5742c5.5508-5.4648 19.992-17.801 20.504-17.504 0.19141 0.14844 0.40234 2.8086 0.40234 5.8711zm650 6.8711v4.0195l-5.6133 3.6992c-3.1055 2.0625-9.7188 6.7852-14.695 10.551-10.125 7.6133-9.6367 7.5078-9.7188 1.4453-0.0625-3.7227-1.0625-2.8086 14.738-13.441 6.0625-4.1055 11.934-8.125 12.996-8.8672 1.043-0.76562 2.043-1.4023 2.1484-1.4023 0.042968 0 0.14844 1.7852 0.14844 4zm-650.1 5.6133-0.14844 4.125-2.7656 2.1914c-7.3164 5.8711-12.676 10.402-16.801 14.207l-4.5078 4.2109-0.14844-3.0195c-0.10547-1.5938-0.042969-3.4453 0.10547-4 0.33984-1.4688 22.672-21.82 23.863-21.82 0.36328 0 0.51172 1.5117 0.40234 4.1055zm650.55 9.0391 0.0625 2.8086-5.6133 3.6992c-3.125 2.0625-9.7852 6.8281-14.844 10.594-5.0195 3.7656-9.2305 6.8711-9.3789 6.8711-0.14844 0-0.25391-1.9141-0.25391-4.2109v-4.2109l11.891-9.4453c6.5078-5.2109 13.145-10.527 14.695-11.824l2.7422-2.4023 0.36328 2.6602c0.14844 1.4023 0.29688 3.8516 0.33984 5.4648zm-650.45 2.3594c0 2.7422-0.25391 4.6562-0.59375 5.1055-0.36328 0.44531-2.8086 2.5508-5.4219 4.7656-2.6172 2.168-7.7188 6.8281-11.379 10.336-3.6172 3.5508-6.7227 6.4219-6.8711 6.4219-0.14844 0-0.32031-2.1055-0.32031-4.6797v-4.6172l4.125-3.957c10.719-10.273 19.609-18.312 20.016-18.059 0.23438 0.14844 0.44531 2.2539 0.44531 4.6797zm650.51 5.6992v2.2109l-5.125 3.4023c-4.3594 2.8711-17.102 12.398-22.758 17.016-1.4023 1.1055-1.6602 1.1914-1.9141 0.48828-0.19141-0.44531 0.042969-1.4023 0.44531-2.043 0.85156-1.2539 28.203-23.227 28.906-23.227 0.23438 0 0.44531 1 0.44531 2.1484zm-650.51 6.7852v4.3594l-4.6172 4.2109c-2.5508 2.3594-8.125 7.7188-12.336 11.934-4.168 4.2109-7.7188 7.6797-7.8711 7.6797-0.51172 0-0.25391-7.6133 0.29688-8.6758 0.80859-1.5938 23.609-24.418 24.117-24.117 0.19141 0.14844 0.40234 2.2109 0.40234 4.6172zm650.51 1.2969v3.7227l-4.3594 3.1484c-5.8281 4.2109-12.891 9.8281-19.375 15.441-2.8906 2.5078-5.4023 4.5742-5.5508 4.5742-0.14844 0-0.29688-1.4453-0.29688-3.2539v-3.2109l9.9102-8.0391c5.5312-4.3594 12.039-9.7617 14.613-12.016 2.4883-2.2773 4.6992-4.0625 4.8086-4.0625 0.14844 0 0.25391 1.6367 0.25391 3.6992zm0.40234 10.785c0.085937 2.8086-0.0625 4.4258-0.51172 4.9141-0.33984 0.40234-2.6602 2.1055-5.1055 3.7656-2.5078 1.7031-8.7852 6.168-13.996 10.039-5.168 3.8086-9.6367 6.8047-9.9336 6.6562-0.25391-0.19141-0.44531-1.1055-0.44531-2.043 0-2.168 0.48828-2.6602 13.273-13.848 5.5312-4.8281 11.293-9.9336 12.805-11.336 1.4883-1.4023 3-2.5078 3.2539-2.4023 0.29688 0.042968 0.55469 2 0.66016 4.2539zm-651.27 3.168-0.29688 6.3594-3.0625 2.4023c-4.1055 3.2109-9.5273 7.9336-15.633 13.547-2.8086 2.5508-5.2305 4.6562-5.4219 4.6562-0.14844 0-0.29688-1.8945-0.29688-4.2539v-4.2109l3.1055-3.4258c9.6758-10.465 21.164-22.203 21.523-21.863 0.19141 0.21094 0.23438 3.2773 0.085937 6.7852zm651.36 8.168v3.8086l-2.2539 1.3594c-5.1055 3-15.887 10.188-21.203 14.039-3.1055 2.2539-5.7656 4.1055-5.8711 4.1055-0.14844 0-0.25391-0.89453-0.25391-2 0-1.8516 0.25391-2.1484 3.6602-4.957 7.168-5.9336 25.184-20.016 25.586-20.078 0.19141-0.042969 0.33984 1.6602 0.33984 3.7227zm-651.51 5.4219v4.6172l-2.8516 2.2539c-3.7227 2.8516-15.207 13.121-18.461 16.484-1.3594 1.4023-2.6602 2.5742-2.8516 2.5742-0.21094 0-0.40234-1.7656-0.40234-3.8711v-3.8516l6.6797-6.2734c3.5938-3.4688 8.9766-8.6367 11.867-11.441 2.9141-2.8516 5.4219-5.168 5.6797-5.168 0.19141 0 0.33984 2.1055 0.33984 4.6797zm651.61 8.7617c-0.10547 0.29688-2.4453 1.8711-5.168 3.4258-4.957 2.7422-13.484 8.2734-20.418 13.188-3.957 2.8086-4.2969 2.7422-4-0.76562 0.14844-1.8945 0.33984-2.1055 14.695-12.824l14.547-10.891 0.29688 3.6172c0.14844 2 0.14844 3.9141 0.042969 4.2539zm-651.61 3.8086v5.7227l-2.8516 2.168c-3.957 2.957-10.484 8.4648-16.398 13.93-2.7656 2.5078-5.168 4.5742-5.4219 4.5742-0.63672 0-0.44531-5.9141 0.29687-7.6797 0.66016-1.4453 23.227-24.418 24.035-24.418 0.19141 0 0.33984 2.5508 0.33984 5.6992zm652.02 0.55469c0 1.6602-0.25391 1.957-3.0625 3.6797-8.5273 5.1484-15.738 10.316-22.27 15.887-4.2109 3.6172-4.2539 3.6172-4.2539 1.6172 0-1.6172 0.44531-2.0195 10.676-9.4844 5.8047-4.3164 12.23-9.082 14.145-10.594 1.957-1.5508 3.8086-2.8086 4.168-2.8516 0.33984 0 0.59375 0.66016 0.59375 1.7422zm0 7.5273v4.2734l-4.9141 3.1484c-4.7227 3.0625-17.801 12.781-21.863 16.25-1.1055 0.91406-2.168 1.6602-2.4023 1.6602-0.21094 0-0.40234-1.1055-0.40234-2.4023 0-2.2109 0.19141-2.5742 2.6602-4.9766 4.3594-4.2539 25.566-22.203 26.266-22.203 0.51172 0 0.66016 1.1055 0.66016 4.2539zm-652.02 5.2109v4.4648l-4.1055 3.168c-2.3164 1.7031-7.5273 5.8711-11.59 9.168-10.422 8.4844-9.3789 7.9766-9.3789 4.6797 0-2.4688 0.21094-3.0625 1.6602-4.7227 2-2.3164 22.523-21.227 23.078-21.227 0.19141 0 0.33984 2.0195 0.33984 4.4648zm652.02 4.3164c0 2.7656-0.042969 2.8086-2.3594 4.4258-4.957 3.4023-14.188 10.465-20.312 15.59-3.5078 2.9141-6.4648 5.3164-6.6133 5.3164-0.14844 0-0.29688-0.85156-0.29688-1.9141 0-1.4883 0.33984-2.2539 1.6367-3.5078 1.3594-1.2969 27.438-22.566 27.84-22.609 0.0625-0.0625 0.10547 1.1914 0.10547 2.6992zm-652.02 8.9766v5.7227l-5.1055 3.6602c-2.8711 2.0195-8.3789 6.082-12.336 9.082-3.9766 2.957-7.2734 5.4219-7.4219 5.4219-0.10547 0-0.21094-2.0195-0.21094-4.4258v-4.4023l2.168-2.0195c3.957-3.7656 22.121-18.758 22.715-18.758 0.10547 0 0.19141 2.5742 0.19141 5.7227zm652.51 1.8086c0 5.125 0.66016 4.2109-7.2539 9.8281-4.3164 3.0625-14.293 10.996-18.758 14.844-1.5117 1.3594-2.9141 2.4023-3.168 2.4023-0.19141 0-0.40234-1.6367-0.40234-3.6992v-3.7656l3.9141-3.5078c6.6133-6.0195 24.926-21.012 25.332-20.758 0.19141 0.10547 0.33984 2.2109 0.33984 4.6562zm-652.51 10.441v4.4023l-4.3594 2.957c-2.4453 1.6602-8.0625 5.7656-12.527 9.125l-8.1875 6.125v-3.6992c0-2.8711 0.21094-3.9141 0.91406-4.5742 1.6602-1.6602 23.523-18.758 23.969-18.758 0.10547 0 0.19141 2 0.19141 4.4258zm652.51-0.25391v2.6992l-5.6133 3.7656c-6.168 4.1055-19.398 13.848-21.566 15.805-0.70313 0.70312-1.5938 1.1484-2 1-0.40234-0.14844 0.40234-1.2539 2.3594-3.168 2.957-2.8906 26.184-22.758 26.629-22.758 0.10547 0 0.21094 1.1914 0.21094 2.6602h-0.019531zm-202.65 3.2109c0 0.25391-3.5742 3-7.8906 6.168-24.609 18.059-47.344 36.348-66.297 53.363l-4.2539 3.8086h-6.125c-3.3594 0-6.2109-0.19141-6.4219-0.44531-0.29688-0.55469 24.777-20.164 54.66-42.73 10.785-8.125 21.227-16.102 23.289-17.652l3.6602-2.8711h4.6992c2.6172 0 4.7227 0.14844 4.6797 0.36328zm24.715 0.48828c1.0625 0.14844 1.7656 0.46875 1.6602 0.70312-0.14844 0.21094-3.168 2.3594-6.6797 4.7656-22.203 15.312-58.363 41.688-71.805 52.469l-6.7852 5.4219h-4.5078c-5.2734 0-8.3789-0.46875-7.9766-1.1055 0.44531-0.70312 22.863-19.375 34.051-28.289 11.145-8.9336 17.949-14.207 34.156-26.586l10.977-8.3164 7.5273 0.29688c4.168 0.19141 8.3789 0.48828 9.3789 0.63672zm-361.97 0.10547c-0.29688 0.25391-10.082 6.168-21.82 13.188-23.055 13.848-48.195 28.988-60.871 36.711-5.8711 3.5742-8.3789 4.8281-9.6367 4.8281-0.95703 0-1.7031-0.21094-1.7031-0.46875 0-0.48828 9.9766-7.9766 27.84-20.863 10.977-7.9102 34.754-25.16 41.816-30.328 3.5078-2.5508 3.8711-2.6992 7.5273-3.0625 5.957-0.51172 17.355-0.51172 16.844 0zm24.523-0.042969c0.14844 0.23438-0.89453 1.1055-2.3594 1.957-36.711 21.906-82.734 49.641-83.949 50.598-0.89453 0.70313-1.6602 1.5938-1.6602 2 0 0.55469-1.1484 0.70313-6.3594 0.70313-7.7852 0-14.91-0.48828-14.355-1.043 0.21094-0.21094 7.2734-4.4258 15.695-9.3789 8.4453-4.9141 23.992-14.207 34.605-20.523 10.633-6.3594 24.289-14.484 30.352-18.141l11.039-6.5703h8.3789c4.6172 0 8.4648 0.19141 8.6133 0.40234zm297.02 0.042969c-0.17188 0.25391-2.8711 2.2539-6.082 4.5078-20.355 14.398-62.488 45.898-72.465 54.172l-4.2734 3.5508h-6.6133c-3.6172 0-6.7227-0.19141-6.8711-0.44531-0.55469-0.85156 24.227-20.758 49.598-39.965 25.289-19.059 27.48-20.672 28.988-21.012 3.8086-1 18.207-1.6172 17.719-0.80859zm-346.88 1c0 0.25391-1.7422 1.5117-3.8516 2.8711-11.398 6.9531-52.809 35.711-65.551 45.43l-6.4648 4.9141h-5.7227c-3.1055 0-5.6797-0.14844-5.6797-0.40234 0.0625-0.40234 4.8281-4 27.395-20.461 9.125-6.6562 21.758-15.953 28.074-20.609 6.3164-4.7227 11.996-8.7852 12.59-9.125 1-0.51172 11.23-2.168 16.953-2.7227 1.1055-0.085937 2.0625-0.19141 2.168-0.23438 0.042969-0.0625 0.085938 0.085938 0.085938 0.33984zm71.121 0.40234c1.7031 0.14844 3.1055 0.44531 3.1055 0.59375 0 0.14844-16.992 10.484-37.711 22.887-20.758 12.422-40.773 24.418-44.496 26.672l-6.7227 4.168h-7.9102c-4.4258 0-8.0195-0.21094-8.2305-0.44531-0.14844-0.32031 1.0625-1.2539 2.6172-2.2109 1.5938-0.91406 8.2109-4.8281 14.695-8.6367 13.633-8.0195 36.797-21.758 58.68-34.797l15.293-9.125 3.7656 0.29688c2.043 0.14844 5.1484 0.40234 6.9141 0.59375zm331.52-0.10547c3.7656 0.46875 7.168 0.91406 7.5703 1.0625 0.40234 0.14844-3.7656 2.9141-9.5273 6.3594-25.48 15.312-40.027 24.926-63.105 41.73-19.398 14.102-18.801 13.805-24.609 12.953l-2.7656-0.40234 6.2109-4.5078c3.4258-2.5078 18.016-13.355 32.414-24.078 39.668-29.648 45.43-33.859 46.238-33.859 0.38281 0 3.8086 0.33984 7.5703 0.74609zm-79.141 0.51172c0 0.10547-2.9141 2.1055-6.4648 4.4023-16.609 10.891-48.258 34.605-66.91 50.152l-6.4219 5.3828h-4.0195c-2.1484 0-3.957-0.21094-3.957-0.44531 0-0.51172 38.922-32.816 64.848-53.832 3.8086-3.1055 4.0625-3.1484 14.398-4.9141 5.3164-0.89453 8.5273-1.1914 8.5273-0.74609zm-410.79 5.8711v5.168l-6.7617 4.9141c-3.7656 2.6992-9.3789 6.9766-12.547 9.4219-3.1484 2.4688-5.8477 4.4648-5.9961 4.4648-0.17188 0-0.25391-2-0.25391-4.5078 0-5.168-0.51172-4.4648 7.0195-10.484 4.6562-3.7656 18.207-14.102 18.461-14.102 0.042969 0 0.085938 2.3164 0.085938 5.125zm652.76-2.3594c0.21094 1.5117 0.25391 3.0625 0.0625 3.5078-0.14844 0.40234-1.5508 1.5508-3.168 2.5508-4.5508 2.9141-12.891 8.5273-19.715 13.355l-6.2539 4.4453-0.36328-1.4023c-0.55469-1.8945 0.40234-3.043 6.4219-7.9766 6.7617-5.5078 21.906-17.184 22.375-17.25 0.19141 0 0.48828 1.2539 0.63672 2.7656zm-473.55-1.2539c3.5508 0.51172 6.5703 1.0625 6.7227 1.2109 0.29688 0.29687 1.1484-0.25391-23.926 14.59-11.996 7.125-30.605 18.207-41.324 24.629-10.742 6.4648-19.973 11.719-20.566 11.781-3.3594 0.29687-20.863-0.10547-20.863-0.44531 0-0.25391 4.0195-2.7656 8.9336-5.6367 4.8477-2.8086 20.715-12.082 35.199-20.547 14.504-8.4844 30.648-17.973 35.859-21.012 10.891-6.3398 9.8281-6.125 19.973-4.5742zm328.75-0.19141c1.1484 0.19141 2.1055 0.48828 2.1055 0.70312 0 0.19141-3.5078 2.5508-7.7852 5.2109-24.078 14.953-58.977 38.305-73.312 49.047l-6.6367 4.957-4.1484-0.14844-4.168-0.14844 4.5078-3.0625c2.5078-1.7031 12.547-8.8281 22.332-15.781 9.7617-7.0195 23.121-16.207 29.586-20.418 6.4648-4.2539 16.398-10.742 22.055-14.441 8.7422-5.7227 10.484-6.7227 11.781-6.4648 0.87109 0.085937 2.4688 0.33984 3.6797 0.55469zm-445.03 1c-0.55469 0.40234-3.6172 2.3594-6.7852 4.3164-13.887 8.6133-42.113 28.223-57.66 40.008-3.168 2.4688-6.125 4.4648-6.5312 4.5078-0.40234 0.0625-3.4688 0.10547-6.7617 0.0625l-6.0195-0.10547 1.4883-1.1914c4.6172-3.7656 50.555-37.816 52.32-38.773 3.6992-2.0625 12.738-5.168 21.418-7.4219 9.4648-2.4023 9.9336-2.5078 8.5273-1.4023zm456.41 1.1914c1.6602 0.36328 3.3164 0.76562 3.6602 0.95703 0.44531 0.25391-1.3594 1.7031-5.5078 4.3164-19.016 12.039-63.148 42.688-73.039 50.746l-2.6992 2.168h-14.695l1.2539-1.2109c0.70312-0.66016 6.5703-4.7227 13.039-9.082 6.4648-4.3594 18.801-12.676 27.332-18.504 23.969-16.293 45.941-30.438 46.855-30.18 0.44531 0.14844 2.1484 0.48828 3.8086 0.78516zm-319.33 1.5508c3.3594 0.61719 6.082 1.3203 6.0195 1.5742-0.10547 0.23438-14.145 8.5703-31.242 18.504-17.102 9.9336-35.266 20.547-40.367 23.609-7.6367 4.5742-9.6367 5.6133-11.293 5.6133-7.0625 0.10547-16.801-0.23437-16.801-0.59375 0-0.19141 3.3164-2.2969 7.4219-4.6172 4.0625-2.2969 13.953-8.0195 21.93-12.676 60.277-35.156 56.426-33.008 57.426-32.754 0.40234 0.14844 3.5078 0.70312 6.9141 1.3398zm184.72-0.85156c-0.29688 0.40234-3.4688 2.8086-6.9766 5.3828-11.633 8.4648-44.688 34.754-55.875 44.43l-5.4023 4.6562h-5.5742c-3.4023 0-5.4648-0.19141-5.3594-0.48828 0.29688-0.95703 47.641-43.09 51.152-45.602 2.043-1.4023 25.227-8.9336 27.926-9.0195 0.51172-0.0625 0.55469 0.085937 0.10547 0.63672zm149.5 3.0625c3.3594 1 6.3789 2.0195 6.5703 2.2109 0.21094 0.19141-7.2734 5.3164-16.59 11.336-21.27 13.633-29.605 19.398-45.898 31.648l-12.93 9.7188h-8.125c-6.9336 0-7.9766-0.085937-7.3789-0.70312 1-0.95703 35.199-25.418 56.426-40.41 5.2539-3.7227 12.188-8.7422 15.441-11.145 3.2539-2.4023 6.0195-4.4023 6.125-4.4023 0.085937 0 2.957 0.78516 6.3594 1.7422zm-320.22 1.957c-19.906 12.484-48.492 32.309-60.277 41.836-2.2109 1.8086-4.4648 3.4453-5.0625 3.6992-0.66016 0.29688-3.7227 0.36328-8.0391 0.0625l-6.9531-0.40234 9.7617-5.5742c10.336-5.9141 17.609-10.125 48.664-28.031 10.633-6.125 20.016-11.484 20.801-11.934 1.6602-0.85156 2.5508-0.61719 1.1055 0.33984zm9.082 0.85156c2.4023 0.61719 4.5508 1.2539 4.7656 1.4688 0.25391 0.19141-2.8086 2.5938-6.7617 5.2539-21.375 14.652-39.879 28.18-47.492 34.816l-4.6797 4.0625-6.8711-0.29688c-3.7656-0.21094-6.8711-0.40234-6.9766-0.51172-0.29688-0.19141 13.293-10.273 34.605-25.629 11.398-8.168 22.375-16.102 24.438-17.547 2-1.4688 3.8516-2.6602 4.1055-2.6602 0.29687 0 2.4688 0.48828 4.8711 1.043zm429.93 4.168v3.6602l-6.3594 3.6602c-7.5273 4.3164-12.891 7.7188-18.418 11.699-2.1484 1.5508-4.168 2.8516-4.3594 2.8516-0.25391 0-0.44531-0.80859-0.44531-1.7422 0-1.4023 0.40234-2.168 2.1484-3.7656 2.8711-2.7227 26.031-20.016 26.84-20.016 0.40234-0.0625 0.59375 1 0.59375 3.6602zm-99.855-0.66016c2.2539 0.85156 4.168 1.7031 4.2734 1.9141 0.14844 0.19141-2.0195 1.6602-4.8281 3.3164-10.785 6.2539-51.703 32.691-61.531 39.75l-5.7227 4.125h-5.6562c-3.168 0-5.7227-0.14844-5.7227-0.40234 0.042968-0.36328 25.82-18.164 56.574-39.07 9.0195-6.125 16.887-11.125 17.504-11.125 0.59375-0.0625 2.8906 0.63672 5.1055 1.4883zm-315.05 0.55469c3.1055 0.85156 5.6562 1.7031 5.6562 1.9141 0 0.14844-4.4453 3.2969-9.8672 7.0195-13.293 8.9766-21.609 14.953-38.73 27.777l-6.7617 5.082-7.2734-0.17188c-4-0.085937-7.3594-0.23438-7.4648-0.33984-0.21094-0.19141 13.695-10.934 23.418-18.059 23.715-17.461 34.008-24.777 34.605-24.777 0.40234-0.042969 3.2539 0.66016 6.4219 1.5508zm-238.08 2.168c0 1.8086 0.0625 3.4023 0.10547 3.5938 0 0.25391-2.6172 2.3164-5.9141 4.6172-3.2539 2.3164-8.7188 6.3164-12.145 8.9336-3.4023 2.6172-6.5078 4.8711-6.9141 5.0195-0.55469 0.19141-0.70313-0.29688-0.70313-2.5508 0-3.3164-0.61719-2.6602 10.527-11.551 12.23-9.7852 14.25-11.336 14.695-11.336 0.19141 0 0.33984 1.4688 0.33984 3.2773zm349.06-0.55469c0 0.085937-4 3.5508-8.8672 7.6133-10.441 8.7188-27.18 23.332-34.965 30.438l-5.4648 5.0195-4.8086-0.33984c-2.6602-0.14844-5.8281-0.29687-7.0195-0.29687h-2.2109l0.95703-1.0625c1.043-1.1484 12.781-10.633 25.777-20.758 10.934-8.5703 17.504-12.484 31.094-18.609 4.6172-2.1055 5.5078-2.4023 5.5078-2zm-98.898 2c1.8086 0.59375 3.3594 1.3594 3.4258 1.5938 0.085937 0.25391-4.5312 3.5312-10.23 7.2734-9.3359 6.168-28.203 19.715-37.434 26.84l-3.4453 2.6992h-3.9766c-2.1484 0-3.8906-0.19141-3.8906-0.40234 0-0.44531 1.1914-1.4023 18.801-14.844 9.082-6.8711 15.547-11.973 28.734-22.715 1.957-1.5938 2.957-2.1055 3.6992-1.8516 0.55469 0.14844 2.4688 0.80859 4.3164 1.4023zm313.91 0.29688c1.8086 0.85156 3.2109 1.6172 3.1055 1.7031-0.085937 0.10547-4.6992 3.3594-10.23 7.1875-10.527 7.3164-32.031 22.312-44.43 31.094l-7.3594 5.1484h-6.3398c-3.4453 0-6.3164-0.19141-6.3164-0.44531 0-0.19141 1.4023-1.2539 3.168-2.2969 9.4844-5.8281 44.176-29.395 55.258-37.562 4.7227-3.4688 8.8281-6.3398 9.1875-6.3398 0.33984 0 2.1055 0.70312 3.957 1.5117zm-303.72 3.0625c1.7422 0.59375 3.3594 1.2539 3.6172 1.4453 0.19141 0.14844-2.2539 2.1055-5.5312 4.2734-6.9531 4.6172-29.438 20.652-36.496 26.031l-4.9766 3.8086h-4.1484c-2.4688 0-4.168-0.21094-4.168-0.51172 0-0.59375-0.61719-0.14844 26.074-20.312 11.441-8.6133 21.164-15.738 21.609-15.738 0.40234-0.042968 2.2109 0.44531 4.0195 1zm392.81 4.5742c0.14844 3.4023 0.0625 5.9141-0.25391 6.2539-0.63672 0.80859-24.672 14.762-25.82 14.996-0.66016 0.14844-1.2109-0.38281-1.957-2.043l-1.0625-2.2539 1.0625-0.95703c0.59375-0.51172 2.4023-1.9141 4.0625-3.0625 2.7656-2 2.8086-2.1484 0.40234-1.1484-0.51172 0.19141 4.3594-3.6602 10.824-8.5273 6.4648-4.8711 11.934-8.8672 12.082-8.8672 0.21094 0 0.51172 2.5508 0.66016 5.6133zm-76.738-1.9141c1.6172 0.85156 2.957 1.7656 2.957 2.0625 0.0625 0.23438-1.4883 1.4023-3.4023 2.4453-16.652 9.4844-44.027 25.926-53.809 32.352-4.3164 2.8086-6.5703 3.7227-6.5703 2.6172 0-0.25391 0.59375-0.85156 1.4023-1.3594 1.9141-1.1914 42.281-31.094 48.961-36.156 6.0625-4.6562 5.6562-4.5742 10.465-1.957zm-574.92-0.19141c0 1.3398 1.3594 4 2.0625 4 1.5938 0-0.70313 2.0625-8.5703 7.6797-4.8281 3.4688-11.398 8.168-14.547 10.527l-5.7656 4.2734-0.17188-3.3594-0.14844-3.3164 2.168-1.8516c4.1055-3.5078 24.078-18.973 24.523-18.973 0.25391 0 0.44531 0.46875 0.44531 1.0195zm269.18 1.2539c1.8516 0.70312 3.4453 1.3398 3.5508 1.4453 0.10547 0.10547-5.4219 3.9141-12.293 8.4648-6.8047 4.5312-16.801 11.336-22.164 15.102l-9.7852 6.8281h-3.6992c-3.2539 0-3.6602-0.10547-3.1055-0.74609 0.33984-0.40234 7.3164-5.7227 15.484-11.805 8.1875-6.0195 17.566-13.121 20.863-15.738 3.3164-2.6172 6.4219-4.7656 6.8711-4.7656 0.51172-0.042969 2.4023 0.51172 4.2734 1.2109zm9.8672 3.8086c1.5508 0.59375 2.8086 1.2539 2.8086 1.4023 0 0.19141-2.1055 1.7422-4.6172 3.5078-2.5508 1.7422-9.4648 6.7227-15.336 11.039-5.8711 4.2969-12.188 8.8672-14.039 10.168l-3.3164 2.4023h-5.2734c-5.2109 0-5.2539 0-4.2969-0.9375 0.53125-0.55469 8.4648-6.2305 17.547-12.699 9.125-6.4219 17.801-12.633 19.312-13.848 1.4883-1.1484 3.1055-2.1055 3.5938-2.1055 0.46875 0 2.0625 0.51172 3.6172 1.0625zm306.93 1.2969c5.5742 3.3594 5.7852 2.6992-1.7031 6.4219-3.6602 1.8086-16.145 8.7852-27.734 15.398-13.633 7.8281-21.715 12.125-22.863 12.293-1 0.085937-3.168 0-4.8086-0.21094l-2.957-0.40234 2.957-1.8086c7.168-4.2969 47.281-29.289 50.301-31.285 1.8516-1.2539 3.4023-2.2539 3.5508-2.2539 0.10547 0 1.5508 0.85156 3.2539 1.8516zm-298.19 2.4023c1.1484 0.44531 2.1055 1 2.1055 1.2109 0 0.14844-5.9336 4.3594-13.145 9.3164-7.2305 4.9766-14.805 10.336-16.867 11.891-3.5078 2.7227-3.8906 2.9141-6.4648 2.9141-1.957 0-2.6992-0.19141-2.5508-0.66016 0.29688-0.85156 33.648-25.969 34.266-25.715 0.29688 0.085937 1.4453 0.59375 2.6602 1.043zm324.07 0.70312c0 0.29688-0.19141 0.66016-0.48828 0.80859-0.25391 0.14844-0.51172-0.042968-0.51172-0.44531 0-0.44531 0.25391-0.80859 0.51172-0.80859 0.29687 0 0.48828 0.19141 0.48828 0.44531zm-15.738 3.1055c1.2539 0.87109 2.2109 1.6172 2.1055 1.7227-0.10547 0.042968-6.3789 3.8086-13.953 8.2734-7.5703 4.5078-17.504 10.379-22.012 13.082l-8.2734 4.9766h-4.0195l-4.0625-0.0625 1.9141-1.1055c9.2734-5.3164 37.305-22.715 41.73-25.863 1.957-1.3594 3.6992-2.5078 3.9141-2.5078 0.25391-0.0625 1.4453 0.63672 2.6602 1.4883zm-299.12 0.46875c1.7227 0.78516 3.4688 1.4883 3.8281 1.4883 1.4883 0-0.0625 1.5117-7.7852 7.5273-4.4023 3.4688-9.6758 7.6797-11.742 9.4219l-3.6992 3.168-7.5273-0.36328c-4.1055-0.14844-7.6133-0.38281-7.7188-0.48828-0.40234-0.36328 29.84-22.27 30.84-22.27 0.36328 0 2.0625 0.66016 3.8086 1.5117zm355.02 3.6992v4.2109l-6.3789 3.2539c-6.0625 3.0195-22.375 12.102-28.988 16.102-2.8516 1.7227-3.2539 1.8086-7.3594 1.8086-4.0625 0-5.5312-0.44531-3.7227-1.1484 0.85156-0.33984 15.504-9.5273 32.902-20.609 6.7227-4.3164 12.527-7.8281 12.891-7.8281 0.51172 0 0.66016 1.1055 0.66016 4.2109zm-48.707 0.51172 1.5938 1.1914-4.4023 2.6172c-2.4023 1.4453-10.336 6.5703-17.547 11.379l-13.102 8.7422-3.957-0.17188-3.9141-0.14844 1.6602-1c0.95703-0.55469 9.7188-6.1055 19.547-12.379 9.8477-6.2734 18.059-11.398 18.207-11.441 0.14844 0 1.0195 0.55469 1.9141 1.2109zm5.8711 4.1055c0.95703 0.74609 1.7031 1.5117 1.7031 1.7031 0 0.25391-1.2969 1.1484-2.8516 2.0625-1.6172 0.89453-8.125 4.957-14.504 9.082-10.676 6.8047-11.781 7.4219-13.93 7.4219-1.2539 0-2.3164-0.21094-2.3164-0.44531 0-0.32031 5.125-4.0195 11.336-8.3359 6.2109-4.2539 12.781-8.9336 14.652-10.273 1.8516-1.3594 3.5508-2.4688 3.7422-2.5078 0.25391 0 1.2109 0.59375 2.168 1.2969zm42.836 3.9141c0 1-1.0625 1.7656-6.8711 4.9141-9.1875 4.9766-15.207 8.8672-15.207 9.7422 0 2.2969 3.4688 0.59375 14.738-7.2305 3.3594-2.3594 6.3164-4.3164 6.6367-4.4648 1.1055-0.40234 1.7422 13.996 0.63672 14.652-0.74609 0.48828-29.586-0.29688-29.289-0.76562 0.14844-0.23438 4.9141-3.2539 10.633-6.7227 5.7656-3.4453 12.145-7.4219 14.188-8.7617 2.0625-1.3594 3.9141-2.5078 4.168-2.5078 0.21094-0.0625 0.36328 0.48828 0.36328 1.1484zm-38.668 3.0625 1 1.7422-6.125 4.168c-3.3594 2.2539-7.125 4.8711-8.3789 5.7656-2.4453 1.7656-2.7422 1.8086-7.5078 1.7031l-3.2773-0.085937 11.293-7.5273c6.2109-4.1055 11.422-7.5273 11.633-7.5273 0.14844 0 0.74609 0.80859 1.3594 1.7656z" fill-rule="evenodd"/>
  <path d="m453.03 26.48c-2.7656 1.2109-9.8906 6.0625-14.996 10.188-4.7227 3.8086-9.3359 8.168-8.6758 8.168 0.14844 0 2.7422-1.8516 5.7227-4.0625 10.379-7.7617 18.652-12.996 20.504-12.996 1.043 0 0.80859-1.7031-0.25391-1.8516-0.40234-0.042969-1.4453 0.21094-2.2969 0.55469z" fill-rule="evenodd"/>
  <path d="m481.61 29.18c-5.4219 2.9141-8.2305 4.7656-13.102 8.7422-3.7656 3.0625-5.4023 4.8086-3 3.2969 8.8281-5.8047 20.246-11.824 22.82-12.039 1.4453-0.085938 1.8516-0.33984 1.8516-1.1484s-0.40234-1-2-1.1484c-1.6172-0.10547-2.957 0.40234-6.5703 2.2969z" fill-rule="evenodd"/>
  <path d="m464.6 30.352c-5.3594 3.043-13.082 8.5078-16.547 11.781-1.8086 1.6602-2 2-0.74609 1.1055 8.082-5.6797 21.461-13.547 24.227-14.145 2-0.46875 1.6602-1.3203-0.55469-1.3203-1.3594 0-3.168 0.70312-6.3789 2.5742z" fill-rule="evenodd"/>
  <path d="m501.96 30.246c-7.5273 3-15.805 7.9766-19.059 11.336l-1.7422 1.8516 2.7422-1.6602c4.6797-2.7422 15.652-7.9102 18.906-8.9766 1.957-0.59375 3.7656-0.85156 4.8711-0.63672 1.5938 0.23438 1.8086 0.14844 1.8086-0.76562 0-2.2109-3.6172-2.6992-7.5273-1.1484z" fill-rule="evenodd"/>
  <path d="m524.79 31.988c-4.2539 1.4023-8.7188 3.6172-13.887 6.9336-5.7227 3.6602-5.7656 4.3594-0.14844 1.5508 8.9766-4.5078 17.758-7.4648 20.312-6.9141 1.8086 0.38281 2.4023-0.51172 1.1914-1.8086-1.0859-1.2539-3.1055-1.2109-7.4648 0.23438z" fill-rule="evenodd"/>
  <path d="m535.12 39.367c-6.6133 3.4023-12.59 6.8711-12.59 7.2305 0 0.29688 3.6602-1.3203 12.441-5.3828 6.8711-3.2109 8.4648-4.2969 7.2109-5.1055-0.19141-0.10547-3.4023 1.3398-7.0625 3.2539z" fill-rule="evenodd"/>
  <path d="m552.63 37.113c-2.7656 1.6602-7.9336 5.6562-9.2734 7.2734l-1.0195 1.1484 1.7656-1.043c0.95703-0.55469 3.1055-1.8086 4.7656-2.8086 1.6602-0.95703 4.3164-2.4258 5.9141-3.168 1.5508-0.80859 2.8086-1.6602 2.7227-1.957-0.36328-1-2.6602-0.74609-4.8711 0.55469z" fill-rule="evenodd"/>
  <path d="m563.35 39.477c-5.2539 2.2539-12.125 6.168-14.527 8.2305-0.80859 0.63672-1.2109 1.0859-0.95703 1 4-1.8711 20.566-8.8906 21.973-9.3789 1.043-0.29688 1.7852-0.85156 1.7031-1.168-0.40234-1.2344-3.2773-0.78516-8.1875 1.3203z" fill-rule="evenodd"/>
  <path d="m577.75 41.07c-2.6602 1.2539-7.5703 4.9766-7.5703 5.7656 0 0.21094 1.5117-0.33984 3.4023-1.2969 1.8711-0.95703 4.8711-2.2109 6.7852-2.7656 3.4453-1.0859 3.7656-1.3398 2.7422-2.3398-0.89453-0.91406-2.3398-0.70312-5.3594 0.63672z" fill-rule="evenodd"/>
  <path d="m596.95 45.836c-1.1484 0.61719-2.5078 1.5117-3 2.0625-0.85156 0.95703-0.85156 0.95703 1.1055 0.14844 1.043-0.44531 2.957-0.95703 4.2109-1.1484 1.4883-0.21094 2.2539-0.55469 2.2539-1.0625 0-1.1484-2.2539-1.1484-4.5742 0z" fill-rule="evenodd"/>
  <path d="m365.55 61.191c-9.2305 5.7656-20.055 15.398-20.055 17.801 0 0.51172 0.19141 0.95703 0.40234 0.95703 0.19141 0 1.7031-1.3594 3.3594-3.0625 4.4648-4.5742 15.035-13.805 19.016-16.547 4.957-3.5078 3.4453-3.0195-2.7227 0.85156z" fill-rule="evenodd"/>
  <path d="m354.98 59.277c-4.125 2.7227-7.4883 6.3164-7.4883 8.082 0 1.1914 0.95703 0.44531 2.2109-1.6602 0.70312-1.2109 2.6172-3.3594 4.168-4.7656 3-2.6602 3.2969-3.0625 1.1055-1.6602z" fill-rule="evenodd"/>
  <path d="m364.29 68.465c-9.3789 6.0195-21.801 17.504-21.801 20.207 0 0.70312 0.14844 1.2969 0.38281 1.2969 0.21094 0 1.3594-1.2539 2.6172-2.7422 2.4023-2.957 13.441-13.293 19.312-18.059 5.2109-4.2734 5.168-4.3164-0.51172-0.70312z" fill-rule="evenodd"/>
  <path d="m365.1 81.203c-6.4219 3.7656-11.484 7.4648-16.953 12.484-8.3789 7.6797-11.082 11.23-10.422 13.379 0.44531 1.4688 1.5938 1.168 1.8945-0.55469 0.55469-2.7422 16.762-17.844 27.141-25.266 2.1484-1.5508 3.6992-2.8086 3.5078-2.8086-0.25391 0.042969-2.5508 1.2539-5.168 2.7656z" fill-rule="evenodd"/>
  <path d="m475.38 87.012c-14.336 0.91406-34.094 3.9141-37.562 5.6797-3.2109 1.6367-4.1055 5.3164-1.8516 7.5703 1.8086 1.8086 3.2109 1.957 8.6367 0.78516 5.5508-1.1484 17.293-2.6992 27.031-3.6602 8.9766-0.85156 39.965-0.85156 47.387 0 30.883 3.5742 64.891 12.188 85.566 21.715 2.3594 1.0625 5.168 2.168 6.2539 2.4688 5.5742 1.5117 9.082-3.8086 5.082-7.6797-2.2539-2.1484-14.102-7.3164-25.438-11.125-23.969-7.9766-52.703-13.953-76.184-15.805-7.4648-0.59375-29.074-0.55469-38.922 0.042968z" fill-rule="evenodd"/>
  <path d="m359.45 99.41c-9.082 6.0195-21.48 16.738-21.48 18.59 0 1.4258 1.2109 0.76562 4.125-2.2539 3.1484-3.2969 14.547-13.082 20.098-17.184 2.6172-2.0195 3.2109-2.5742 2.6602-2.5742-0.085937 0-2.5508 1.5508-5.4023 3.4258z" fill-rule="evenodd"/>
  <path d="m364.06 105.28c-8.9961 6.8711-19.078 17.184-19.078 19.652 0 1.4453 0.87109 1.5117 1.2539 0 0.21094-0.59375 5.3164-6.0195 11.336-12.039 6.0195-5.9766 10.934-10.891 10.848-10.891-0.0625 0.0625-2.0195 1.5117-4.3594 3.2773z" fill-rule="evenodd"/>
  <path d="m369.61 114.45c-11.934 8.125-30.137 25.926-30.137 29.543 0 1.4453 1.4023 0.44531 4.0195-2.9141 3.6172-4.5508 20.715-21.461 25.82-25.48 4.6562-3.6992 4.5078-3.5508 4.1055-3.5508-0.14844 0-1.8516 1.043-3.8086 2.4023z" fill-rule="evenodd"/>
  <path d="m365.29 133.4c-9.8672 8.082-21.312 21.012-21.312 24.141 0 1.7422 0.55469 1.4023 2.6602-1.6602 2.7227-3.8711 10.633-12.953 17.355-19.906 3.168-3.2109 5.6133-5.8711 5.5312-5.8711-0.10547 0-2.0195 1.5117-4.2344 3.2969z" fill-rule="evenodd"/>
  <path d="m457.83 135.91c-12.441 0.85156-31.5 3.2773-41.625 5.2734-11.699 2.2969-37.07 9.168-40.668 11.039-2.3594 1.1484-3.4688 2.6992-3.4688 4.7656 0 1.8516 1.8516 3.957 3.8516 4.3594 1.4688 0.25391 2.0625 0.10547 18.973-4.5742 18.398-5.0625 28.223-7.0195 45.875-9.082 14.996-1.7422 25.543-2.1914 46.344-1.8945 24.375 0.33984 36.562 1.5117 57.234 5.4219 15.996 3 48.133 11.273 62.273 15.93 10.484 3.5078 12.848 3.8281 14.91 1.7656 2.4023-2.4688 1.4883-6.168-1.957-7.8711-2.6172-1.3203-19.715-6.7227-28.586-9.082-26.691-7.082-43.898-10.891-58.938-13.039-18.164-2.6172-22.461-2.9141-47.641-3.0625-13.102-0.042969-25.074-0.042969-26.586 0.042969z" fill-rule="evenodd"/>
  <path d="m362.04 152.45c-5.5078 4.3164-16.293 15.312-18.992 19.312-2.168 3.2773-2.4258 4.5742-0.91406 4.8711 0.55469 0.10547 0.74609-0.042969 0.59375-0.55469-0.59375-1.4453 9.6758-13.441 19.27-22.566 2.5508-2.4023 4.5508-4.3594 4.4648-4.3594-0.10547 0-2.1055 1.5117-4.4258 3.2969z" fill-rule="evenodd"/>
  <path d="m363.95 164.15c-4.5742 3.4688-11.379 9.9766-15.145 14.547-4.0625 4.9141-5.0195 6.3594-4.6172 7.3594 0.25391 0.61719 0.89453 0 2.6602-2.3398 3.3594-4.4258 11.781-13.613 16.738-18.164 2.3164-2.1055 4.0625-3.8711 3.9141-3.8711-0.14844 0-1.7422 1.1055-3.5508 2.4688z" fill-rule="evenodd"/>
  <path d="m369.06 177.59c-6.0195 4.8086-20.207 18.949-23.27 23.16-2.3594 3.2773-3.1055 6.082-1.5508 6.082 0.40234 0 0.74609-0.46875 0.74609-0.95703 0-0.51172 0.95703-2.2539 2.168-3.8711 2.5938-3.5508 18.461-20.355 23.523-24.926 2-1.8516 3.5508-3.2969 3.4023-3.2969s-2.4023 1.7031-5.0195 3.8086z" fill-rule="evenodd"/>
  <path d="m481.95 191.29c-20.566 1.2539-43.77 4.3594-61.977 8.2734-21.629 4.6172-34.902 8.4219-37.52 10.719-3.3164 3.0195-1.4023 8.082 3.0625 8.082 1 0 4.8086-0.91406 8.3789-2 11.082-3.4258 35.457-8.7852 48.75-10.785 20.652-3.0625 38.75-4.4648 56.809-4.4648 38.113 0.085937 64.953 4.4023 101.26 16.336 13.039 4.2734 14.188 4.4648 16.461 2.3164 1.6367-1.5508 1.5508-4.4258-0.21094-6.4219-1.1055-1.2539-3.1055-2.1055-9.9766-4.5078-27.48-9.4219-54.574-15.102-81.695-17.059-9.9336-0.70312-35.371-1-43.348-0.48828z" fill-rule="evenodd"/>
  <path d="m359.79 196.91c-6.0195 4.5508-15.738 14.633-17.547 18.059-1.4023 2.6602-1.4688 2.957-0.70312 3.6992 0.55469 0.51172 1.1914 0.70313 1.8945 0.44531 1.2109-0.33984 1.4023-1.2539 0.32031-1.2539-0.40234 0-0.76562-0.19141-0.76562-0.44531 0-1.2539 7.0195-9.6367 13.59-16.25l7.3164-7.3164c-0.042969 0-1.8945 1.4023-4.1055 3.0625z" fill-rule="evenodd"/>
  <path d="m366.06 209.43c-10.484 8.3789-24.629 23.078-26.031 26.988-0.51172 1.4453 0.25391 3.4688 0.80859 2.1055 0.78516-2 7.8281-9.8281 18.906-21.078 6.8711-6.9141 12.441-12.633 12.273-12.633-0.085937 0-2.8086 2.1055-5.957 4.6172z" fill-rule="evenodd"/>
  <path d="m370.67 216.56c-10.336 7.9336-23.523 22.863-23.078 26.141 0.14844 1.043 1.9141 1.7422 1.9141 0.74609 0-1.8516 9.3789-13.293 18.992-23.16 3.6797-3.8281 6.6367-6.9336 6.5312-6.9336s-2.1055 1.4688-4.3594 3.2109z" fill-rule="evenodd"/>
  <path d="m362.34 241.04c-10.422 10.484-17.102 19.312-16.188 21.652 0.48828 1.2539 1.1055 0.95703 2-1.0859 1.5508-3.5078 10.125-14.398 19.059-24.332 2.2109-2.4023 3.8086-4.3594 3.6172-4.3594-0.14844 0-3.957 3.6602-8.4844 8.125z" fill-rule="evenodd"/>
  <path d="m463.11 237.93c-26.031 1.5938-52.875 6.1055-70.973 11.824-4.8086 1.5117-5.6562 1.957-7.168 3.7656l-1.7656 2 0.80859 2.0195c0.80859 2.043 2.6602 3.4453 4.6172 3.4453 0.55469 0 3.5508-0.74609 6.6797-1.7031 29.074-8.7852 66.953-12.93 103.71-11.379 25.629 1.043 39.07 2.8516 58.426 7.8281 16.059 4.1055 22.566 6.4648 40.922 14.738 13.398 6.125 15.059 6.5078 17.207 4.3164 0.95703-0.91406 1.2539-1.7656 1.2539-3.3164 0-3.3164-1.7422-4.5078-14.844-10.422-14.398-6.5312-20.504-8.9336-30.031-11.805-20.312-6.1055-37.07-9.168-59.68-10.824-9.6367-0.70312-40.582-1.043-49.152-0.48828z" fill-rule="evenodd"/>
  <path d="m371.27 246.5c-6.4219 4.4023-10.633 7.9102-17.145 14.484-7.0195 7.0195-11.633 12.336-11.633 13.293 0 1.5117 1.3398 0.66016 4.2969-2.6602 3.3594-3.6992 23.672-23.312 27.289-26.266 1.2539-1.0625 2.1055-1.9141 1.957-1.9141-0.14844 0-2.2539 1.3594-4.7656 3.0625z" fill-rule="evenodd"/>
  <path d="m374.33 262.35c-11.781 9.082-26.84 25.777-26.84 29.797 0 2.1914 1.0625 1.7031 3.168-1.5117 2.8516-4.5078 13.848-17.059 21.758-25.035 3.9766-3.9141 7.125-7.125 7.082-7.125-0.10547 0-2.4023 1.7656-5.168 3.8711z" fill-rule="evenodd"/>
  <path d="m366.95 282.15c-8.7617 6.6367-22.461 21.82-22.461 24.992 0 0.85156 1.1914 0.55469 1.8516-0.46875 1.6602-2.5938 9.3359-11.23 16.91-18.992 4.6562-4.7227 8.3164-8.6367 8.168-8.6367s-2.1484 1.4023-4.4648 3.1055z" fill-rule="evenodd"/>
  <path d="m476.63 279.6c-15.188 0.51172-31.691 2.4023-49.684 5.7227-8.0391 1.5117-30.457 7.0625-32.352 8.082-3.0625 1.5508-3.8281 4.6172-1.7227 7.1055 2.0625 2.4688 3.4258 2.4258 15.609-0.59375 18.547-4.6172 32.285-7.0625 50.344-9.125 9.7852-1.0625 38.816-1.5117 49.152-0.74609 14.695 1.0859 34.965 4.5508 53.512 9.0586 15.547 3.8711 26.375 7.9336 41.07 15.547 4.4258 2.2539 8.4453 4.0195 9.2305 4.0195 0.80859 0 2.1055-0.55469 2.957-1.2969 1.2539-1.0625 1.5508-1.7031 1.5508-3.2773 0-3.1055-1.8516-4.6562-11.316-9.5703-10.484-5.3594-22.738-10.23-32.309-12.891-15.953-4.4023-39.73-9.125-54.809-10.824-5.7852-0.66016-28.5-1.9141-30.203-1.6602-0.25391 0.042968-5.2109 0.25391-11.039 0.44531z" fill-rule="evenodd"/>
  <path d="m377.29 288.38c-5.7227 3.8516-10.57 8.0625-18.164 15.633-8.3164 8.3359-11.719 12.699-11.527 14.613 0.21094 1.7422 2.5078 1.8945 2.6602 0.19141 0.10547-1.4023 2.6172-4.4023 9.5273-11.676 4.4258-4.5742 16.844-16.801 20.82-20.418 1.3398-1.2539 0.19141-0.66016-3.3164 1.6602z" fill-rule="evenodd"/>
  <path d="m374.59 306.53c-5.4648 3.5078-11.082 8.1875-16.719 13.91-8.4648 8.5078-12.379 13.93-11.57 15.996 0.44531 1.1055 2.2109 1 2.2109-0.10547 0-0.51172 1.4883-2.8086 3.3594-5.1055 3.5508-4.5312 20.844-22.184 24.715-25.246 1.2539-1 2.1484-1.8516 2-1.8516-0.14844 0-1.957 1.1055-4 2.4023z" fill-rule="evenodd"/>
  <path d="m372.08 323.59c-8.9766 5.9141-26.074 23.48-26.074 26.734 0 1.957 1.4023 0.80859 6.5703-5.168 2.8516-3.3594 8.8281-9.7852 13.23-14.293 4.4258-4.5078 7.9336-8.168 7.7852-8.168-0.17188 0.042969-0.80859 0.40234-1.5117 0.89453z" fill-rule="evenodd"/>
  <path d="m447.56 325.54c-18.059 0.95703-37.328 4.0625-49.664 8.0195-4.5078 1.4688-5.8711 2.168-7.4648 3.7227-1.7031 1.7422-1.9141 2.1484-1.6602 3.7656 0.70312 4.2539 3.3164 4.957 9.9766 2.7422 10.633-3.5078 22.27-5.6992 39.027-7.4219 12.484-1.2539 48.238-1.2539 60.168 0 29.5 3.125 59.746 10.039 87.031 19.93 9.9766 3.5938 14.039 5.4648 21.203 9.7188 3.1055 1.8516 6.4648 3.5078 7.3789 3.6602 4.7656 0.76562 7.4648-3.7656 4.4023-7.4219-2.1914-2.5938-11.336-8.0195-19.609-11.676-9.0195-3.9141-33.242-11.633-49.004-15.547-18.59-4.6172-39.453-7.9336-58.66-9.3359-6.3398-0.44531-35.52-0.55469-43.133-0.14844z" fill-rule="evenodd"/>
  <path d="m367.57 354.08c-6.0195 4.8086-9.1875 7.8711-13.805 13.336-4.2539 5.0195-6.5078 8.6367-6.0625 9.6758 0.33984 0.91406 1.8086 1 1.8086 0.10547 0-1.5508 10.273-14.102 17.949-21.777 2.8086-2.8516 5.0625-5.1484 5.0195-5.1484-0.10547 0-2.3164 1.7031-4.9141 3.8086z" fill-rule="evenodd"/>
  <path d="m442.03 372.36c-17.398 1.1055-43.73 5.6133-49.387 8.5273-2.3594 1.2109-3.0195 2-3.3594 4.2109-0.25391 1.5117-0.0625 2 1.2539 3.3164 1.957 1.957 3.2539 1.957 11.168 0 31.605-7.7188 70.633-8.3789 115.06-1.957 30.031 4.3164 49.855 9.2305 70.465 17.355 10.273 4.0625 16.355 7.0625 20.461 10.082 8.0195 6.0195 8.8281 6.3594 11.273 5 1.6602-0.85156 2.3164-1.957 2.3594-3.9141 0-2.6602-1.4453-4.5078-6.3164-8.2109-6.8281-5.168-20.863-11.633-37.051-17.102-23.078-7.7188-57.531-14.059-90.285-16.57-12.336-0.9375-36.199-1.3398-45.645-0.74609z" fill-rule="evenodd"/>
  <path d="m372.82 398.28c-6.4219 3.4688-22.715 19.715-25.883 25.84-0.85156 1.6367-0.85156 3.4453 0 3.3594 0.17188 0 1.5742-1.7227 3.0625-3.8281 4.4648-6.1055 18.418-21.203 22.82-24.609 2.2539-1.7656 2.2539-1.957 0-0.76562z" fill-rule="evenodd"/>
  <path d="m486.42 437.65c-8.4219 5.7227-19.059 13.805-21.82 16.547-0.23438 0.25391 5.4219-3.4453 12.656-8.3164 7.2109-4.8086 13.738-8.9336 14.441-9.125 1.7031-0.44531 1.6602-1.7031-0.10547-1.6602-0.80859 0-3 1.1055-5.168 2.5508z" fill-rule="evenodd"/>
  <path d="m467.81 438.01c-3.4023 2.2539-15.293 12.527-18.992 16.398-3.8711 4.0195-3.5078 3.7656 9.5273-6.5703 10.934-8.7188 11.719-9.2734 12.738-9.2734 1.0859 0 0.89453-1.6602-0.21094-1.9141-0.44531-0.042969-1.8086 0.55469-3.0625 1.3594z" fill-rule="evenodd"/>
  <path d="m518.28 439.82c-5.0195 2.5938-7.5938 4.2969-11.336 7.5078-4.4648 3.8281-3.7656 3.9141 2 0.25391 7.168-4.5508 13.93-8.0195 15.695-8.0195 1.5938 0 1.8516-0.74609 0.44531-1.5117-1.5508-0.80859-2.2969-0.63672-6.8047 1.7656z" fill-rule="evenodd"/>
  <path d="m507.03 439.35c-3.5938 0.95703-14.781 6.7227-20.949 10.891-2.8711 1.8516-5.168 3.5078-5.168 3.6602 0 0.10547 2.5508-1.1484 5.6562-2.8086 10.293-5.5508 18.27-9.4648 21.461-10.527 3.7656-1.2539 3.8281-1.2969 2.5742-1.5938-0.51172-0.14844-2.1055 0.042969-3.5742 0.38281z" fill-rule="evenodd"/>
  <path d="m373.82 440.78c-8.4219 5.6562-23.312 21.758-23.312 25.16 0 1.8516 0.66016 1.4688 2.9141-1.7031 3.1484-4.5078 12.379-14.887 18.102-20.312 2.8516-2.6602 5.0625-4.8711 4.957-4.8711-0.085938 0-1.2969 0.76562-2.6602 1.7227z" fill-rule="evenodd"/>
  <path d="m444.05 443.88c-5.9766 3.957-10.699 7.7617-13.805 11.016l-2.2539 2.4258 2.5078-1.8711c2.5078-1.8516 16.441-11.379 17.695-12.082 0.51172-0.29688 0.55469-0.042969 0.36328 1.0625-0.36328 1.4023-0.36328 1.4023 1.5117-0.51172 2-2.1055 2.043-3 0.19141-3.2539-0.85156-0.10547-2.8086 0.89453-6.2109 3.2109z" fill-rule="evenodd"/>
  <path d="m548.86 442.92c-4.8711 1.2539-18.164 7.5273-23.672 11.23-4.3594 2.957-5.3594 4.2109-1.6172 2.0625 6.082-3.4688 23.844-10.742 27.797-11.379 3.3594-0.55469 3.6602-0.72266 2.5508-1.5742-0.95703-0.70312-3.0625-0.85156-5.0625-0.33984z" fill-rule="evenodd"/>
  <path d="m557.65 446.77c-5.168 1.9141-15.762 8.0391-17.824 10.336-0.44531 0.51172 2.9141-1 7.4883-3.2969 8.5703-4.3164 12.336-5.7227 15.188-5.7227 1.8711 0 2.168-0.70312 0.70312-1.5117-1.2969-0.66016-3.4023-0.59375-5.5508 0.19141z" fill-rule="evenodd"/>
  <path d="m373.27 449.9c-0.89453 0.70312-0.89453 0.74609 0.21094 0.19141 0.59375-0.29688 1.1055-0.66016 1.1055-0.74609 0-0.40234-0.25391-0.29688-1.3203 0.55469z" fill-rule="evenodd"/>
  <path d="m368.82 452.9c-8.1875 6.0625-18.461 18.461-17.461 21.078 0.51172 1.3398 1.4023 0.70313 2.9141-2.2109 2.043-3.9141 8.5703-11.996 13.676-17.059 2.3594-2.2539 4.168-4.1055 4.0625-4.0625-0.085937 0-1.5508 1-3.1914 2.2539z" fill-rule="evenodd"/>
  <path d="m377.29 458.96c-13.484 11.039-29.586 28.246-26.375 28.246 0.25391 0 2.6992-2.5508 5.4648-5.6562 2.8086-3.0625 10.02-10.551 16.145-16.57 6.0625-5.957 10.977-10.867 10.934-10.867-0.10547 0-2.8516 2.1914-6.168 4.8477z" fill-rule="evenodd"/>
  <path d="m578.2 456.3c-5.957 2.125-13.039 6.4219-16.547 10.145l-1.7422 1.8086 2-1.3594c2.7656-1.8516 12.379-6.5078 15.996-7.7617 1.6602-0.55469 4.168-1.0195 5.6797-1.0195 1.4453 0 2.6602-0.14844 2.6602-0.38281-0.0625-1.1055-2.2539-2.6172-3.8711-2.6172-0.48828 0-2.3594 0.55469-4.168 1.1914z" fill-rule="evenodd"/>
  <path d="m603.27 463.38c-2.1055 0.70313-8.3594 5.0625-7.8711 5.5742 0.10547 0.085938 1.2109-0.36328 2.4023-1 3.5078-1.9141 7.3359-2.9766 9.4844-2.6172 2.957 0.44531 3.168-1.1055 0.36328-2.1484-1.7227-0.66016-1.5117-0.66016-4.3828 0.19141z" fill-rule="evenodd"/>
  <path d="m160.6 37.773c-3.3594 1.5938-8.4219 4.2109-11.273 5.8047-6.7227 3.7227-22.523 13.293-22.523 13.656 0 0.14844 1.2969-0.51172 2.9141-1.4023 10.379-5.9766 36.965-19.523 38.156-19.523 0.29688 0 0.55469-0.33984 0.55469-0.74609 0-1.2539-1.5117-0.85156-7.8281 2.2109z" fill-rule="evenodd"/>
  <path d="m202.63 36.051c-1.8945 0.87109-12.676 7.9766-16.652 11.039-1.4883 1.2109-4.1055 3.4258-5.7656 4.9766l-3 2.8516 2.7422-1.7031c1.5117-0.91406 7.2734-4.6172 12.805-8.125 5.4648-3.5742 10.719-6.7227 11.633-7.0195 2.1484-0.76562 2.4023-1.0625 1.6602-2.0195-0.76562-0.89453-1.3203-0.89453-3.4258 0z" fill-rule="evenodd"/>
  <path d="m174.66 40.281c-5.8711 2.8906-17.824 10.465-18.566 11.676-0.25391 0.40234 0.042969 0.33984 0.80859-0.14844 5.1055-3.3164 21.27-11.441 24.969-12.547 2.4023-0.70312 2.5508-1.5938 0.25391-1.8516-1-0.10547-3.3164 0.74609-7.4648 2.8711z" fill-rule="evenodd"/>
  <path d="m215.32 40.879c-5.7227 3.2539-13.59 8.9766-17.801 12.93-3.2539 3.0625-3.2539 3.0195 7.2734-3.5078 10.824-6.7617 15.738-9.4844 16.992-9.4844 1.0625 0 1.5117-0.9375 0.80859-1.7422-1.0625-1.2539-2.6172-0.85156-7.2734 1.8086z" fill-rule="evenodd"/>
  <path d="m234.13 44.176c-4.1055 1.5742-16.035 9.0391-16.035 10.039 0 0.10547 1.4883-0.59375 3.4023-1.5938 5.0195-2.8086 13.039-6.2305 15.25-6.5703 1.4453-0.25391 1.8945-0.55469 1.8086-1.168-0.14844-0.85156-2.9141-1.2969-4.4258-0.70312z" fill-rule="evenodd"/>
  <path d="m253.95 44.941c-2.3164 1.2539-6.125 4.5078-7.9336 6.6562l-1.9141 2.3164 4.4258-2.957c2.4023-1.6172 5.2734-3.4688 6.3164-4.0625 1.8516-1.1484 2.2109-2.2109 0.80859-2.4023-0.40234-0.10547-1.1484 0.085937-1.7031 0.44531z" fill-rule="evenodd"/>
  <path d="m268.95 49.258c-0.70312 0.48828-2.2109 2.6992-2.2109 3.2969 0 0.25391 0.40234 0.10547 0.89453-0.33984 0.51172-0.51172 1.6602-0.85156 2.5078-0.85156 1.9141 0 2.5742-0.91406 1.3594-1.8711-1.0625-0.74609-1.7656-0.78516-2.5508-0.23438z" fill-rule="evenodd"/>
  <path d="m65.125 64.848c-6.6367 4.0195-14.25 11.527-13.25 13.188 0.25391 0.40234 1.2969-0.40234 3.168-2.4453 1.5508-1.7227 5.0625-5.0195 7.8047-7.4219 6.125-5.3828 6.0195-5.2734 5.7852-5.2734-0.14844 0-1.7227 0.89453-3.5078 1.957z" fill-rule="evenodd"/>
  <path d="m63.914 74.973c-5.0625 3.7227-11.848 10.594-11.848 11.934 0 0.66016 0.17188 1.0625 0.40234 0.95703 0.51172-0.19141 15.398-15.441 15.145-15.441-0.14844 0-1.7852 1.1484-3.6992 2.5508z" fill-rule="evenodd"/>
  <path d="m62.148 88.328c-4.7656 3.5938-11.082 9.5703-11.082 10.465 0 0.40234 0.10547 0.70312 0.21094 0.70312 0.085937 0 2.4023-2.1055 5.1055-4.6562 2.7656-2.5508 6.125-5.7227 7.4883-7.0195 1.4023-1.2969 2.4023-2.3594 2.2539-2.3594s-1.9141 1.2969-3.9766 2.8711z" fill-rule="evenodd"/>
  <path d="m168.43 92.477c-3.6992 0.25391-7.6797 0.55469-8.7852 0.76563-4.5938 0.63672-7.168 4.0625-5.5078 7.2734 1.3594 2.5938 3.2109 3.043 10.082 2.4023 3.3164-0.29688 14.102-0.61719 24.035-0.61719 15.738 0 19.25 0.14844 27.332 1.1055 28.691 3.5078 42.516 6.5703 68.293 15.207 8.125 2.6992 14.207 4.4648 15.461 4.4648 2.8516 0 4.5078-1.7227 4.5078-4.5742 0-3.6602-1.1055-4.2539-18.207-9.9336-25.777-8.5273-39.773-11.633-68.805-15.145-9.7422-1.1484-36.562-1.7031-48.406-0.95703z" fill-rule="evenodd"/>
  <path d="m62.316 98.453c-4.4648 3.8516-9.2305 9.3789-9.2305 10.676 0 1.3594 0.70312 1.1055 1.7031-0.59375 0.44531-0.85156 2.8086-3.6172 5.2109-6.168 8.2305-8.7852 8.4219-9.125 2.3164-3.9141z" fill-rule="evenodd"/>
  <path d="m64.316 104.88c-6.9336 5.6992-12.781 12.379-11.996 13.676 0.44531 0.70312 1.7656 0.61719 1.7656-0.14844 0-0.29688 2.2969-3.1055 5.0625-6.1055 5.4648-5.9766 9.168-10.293 8.8672-10.293-0.085937 0-1.7422 1.3203-3.6992 2.8711z" fill-rule="evenodd"/>
  <path d="m62.316 119.47c-6.3398 5.4648-9.7852 10.273-8.3789 11.676 0.33984 0.36328 0.89453-0.19141 1.5938-1.6602 0.55469-1.1914 3.3164-4.6992 6.082-7.8047 2.8086-3.0625 4.957-5.6133 4.8477-5.6133-0.14844 0-2 1.4883-4.1484 3.4023z" fill-rule="evenodd"/>
  <path d="m62.914 128.7c-4.7227 4.6992-7.8281 8.8672-7.8281 10.527 0 1.3594 0.66016 1.1055 1.7031-0.66016 0.76563-1.2969 4.6172-6.2109 10.293-13.039 2.2969-2.8516 0.38281-1.4023-4.168 3.168z" fill-rule="evenodd"/>
  <path d="m67.977 137.12c-6.0195 5.2539-13.398 13.188-14.805 15.887-0.55469 0.95703-0.55469 1.4023-0.085937 1.8711 0.44531 0.40234 0.78516 0.23438 1.4023-0.70312 1.4453-2.168 9.5703-11.441 15.035-17.102 2.8516-3.0195 5.125-5.4648 4.9766-5.4648-0.17188 0-3.0625 2.4453-6.5312 5.5078z" fill-rule="evenodd"/>
  <path d="m142.1 146.95c-1.1055 0.10547-4.4648 0.44531-7.5273 0.70313-11.867 1.1484-29.031 4.4258-39.602 7.5273-8.082 2.4023-15.91 5.3164-17.102 6.4219-3.3164 2.8906-0.95703 8.125 3.6602 8.125 0.78516 0 4.4648-1.0195 8.168-2.2539 9.1875-3.125 14.25-4.4258 24.566-6.4883 19.078-3.8086 34.922-4.8477 60.445-3.8516 42.621 1.5938 72.613 7.2734 111.79 21.055 14.25 5.0195 16.504 5.168 18.164 1.2539 0.59375-1.4453 0.59375-1.957 0-3.3594-0.36328-0.89453-1.2539-2-1.9141-2.4453-1.5117-1.0195-22.777-8.5273-31.242-11.102-36.156-10.867-65.953-15.188-107.83-15.59-10.719-0.10547-20.461-0.10547-21.566 0z" fill-rule="evenodd"/>
  <path d="m62.699 153.22c-7.4648 6.6133-12.633 13.039-11.934 14.844 0.25391 0.59375 0.70312 0.19141 1.9141-1.4023 2-2.8086 6.0625-7.5703 11.336-13.102 3.6602-3.9141 4.5078-4.9141 3.957-4.9141-0.10547 0-2.4688 2.0625-5.2734 4.5742z" fill-rule="evenodd"/>
  <path d="m62.617 163.9c-5.3164 4.1055-11.039 9.8281-11.039 11.039 0 1.2539 0.48828 1 3.2109-1.8516 1.4023-1.4688 4.957-4.9141 7.9102-7.7852 2.9766-2.8086 5.2305-5.1055 5.0195-5.1055-0.19141 0-2.5078 1.6367-5.1055 3.6992z" fill-rule="evenodd"/>
  <path d="m61.617 175.34c-4.3828 3.2969-6.6367 5.2539-8.6367 7.7188-2 2.4453-2.4023 3.6992-1.1484 3.6992 0.40234 0 0.74609-0.23437 0.74609-0.59375 0-0.29687 2.7656-3.3594 6.125-6.7617 3.3594-3.3594 6.0195-6.168 5.8711-6.168-0.10547 0-1.4688 0.95703-2.957 2.1055z" fill-rule="evenodd"/>
  <path d="m58.703 187.02c-4.8281 4.8281-7.125 7.5703-7.0195 8.125 0.23438 1.2539 0.59375 1 3.2969-2.1055 1.3203-1.5117 4.4648-5.1055 7.0195-8.0195 2.6172-2.9141 4.5312-5.2734 4.2734-5.2734-0.21094 0-3.6172 3.2773-7.5703 7.2734z" fill-rule="evenodd"/>
  <path d="m64.871 194.4c-6.7227 5.5742-13.293 12.996-13.293 14.996 0 1.5938 0.80859 1.043 3.5078-2.3594 2.2539-2.9141 7.9766-9.5273 11.484-13.398 1.7422-1.8945 1.2109-1.7031-1.7031 0.76562z" fill-rule="evenodd"/>
  <path d="m163.66 202.63c-23.227 0.74609-48.301 3.3398-65.188 6.7617-6.125 1.1914-21.012 5.3164-22.969 6.3164-0.80859 0.40234-1.7656 1.5117-2.2109 2.5508-0.66016 1.6172-0.66016 1.957 0.042969 3.4688 0.55469 1.1055 1.4688 2 2.7227 2.5078 2 0.85156 1.6367 0.89453 17.441-3.3164 9.6367-2.5938 30.285-5.6133 48.344-7.0625 18.059-1.4688 50.32-1.4688 65.211 0 14.738 1.4453 36.605 5.0625 50.152 8.3164 9.3789 2.2109 20.461 5.5742 31.988 9.5273 5.0625 1.7656 9.9961 3.2109 10.934 3.2109 1.3203 0 2.2109-0.40234 3.2773-1.4453 2.6992-2.7227 1.4453-6.5703-2.6602-8.3359-4.0195-1.6602-22.012-7.5703-29.902-9.7852-19.461-5.5508-47.43-10.422-68.805-11.973-7.4648-0.55469-30.543-1-38.367-0.74609z" fill-rule="evenodd"/>
  <path d="m63.957 207.77c-7.2109 6.4219-12.273 12.891-11.016 14.145 0.38281 0.40234 0.89453 0 1.957-1.4023 2.1914-2.957 10.977-13.336 11.934-14.145 0.74609-0.63672 2.043-2.5508 1.7031-2.5508-0.10547 0-2.1484 1.7656-4.5742 3.957z" fill-rule="evenodd"/>
  <path d="m63.871 219.41c-5.8711 4.6172-11.293 9.9961-11.293 11.102 0 0.48828 0.042969 0.89453 0.14844 0.89453 0.29688 0 16.145-15.504 15.91-15.547-0.14844 0-2.3164 1.5938-4.7656 3.5508z" fill-rule="evenodd"/>
  <path d="m58.148 234.72c-3.7656 3.5078-6.5703 7.0625-6.5703 8.4219 0 1.4023 0.85156 0.85156 2.1484-1.3594 0.70313-1.1484 2.8711-3.8516 4.8281-6.0195 3.2539-3.5508 3.9141-4.3594 3.3594-4.3594-0.10547 0-1.8086 1.5117-3.7656 3.3164z" fill-rule="evenodd"/>
  <path d="m62.617 243.08c-3.4688 2.7656-9.7422 9.3359-10.742 11.336-1.3594 2.5742 0 2.2109 2.2539-0.55469 1.2109-1.4453 4.2734-4.957 6.8711-7.8047 2.6172-2.8086 4.6172-5.125 4.5078-5.125-0.042968 0-1.4023 1-2.8906 2.1484z" fill-rule="evenodd"/>
  <path d="m61.062 250.91c-2.3594 2.0625-7.4219 7.9766-8.4453 9.9336-1.2539 2.4688 0.51172 0.95703 4.125-3.5078 2.043-2.5078 4.4648-5.4648 5.3594-6.5078 0.85156-1.0195 1.5117-1.8711 1.4023-1.8711-0.10547 0-1.1914 0.91406-2.4453 1.957z" fill-rule="evenodd"/>
  <path d="m179.25 252.52c-21.504 1.6602-51.789 7.3594-80.777 15.25-13.441 3.6602-15.805 4.9141-15.805 8.3594 0 2.0195 0.74609 3.2773 2.5078 4.168 2 1.0625 2.8086 0.95703 8.6758-0.74609 24.777-7.4219 56.363-13.848 81.844-16.652 9.2305-1 36.156-0.85156 45.645 0.29688 25.926 3.1055 44.879 8.7852 71.273 21.375 10.527 4.957 12.891 5.1484 14.547 1.1914 0.59375-1.4453 0.59375-1.957 0-3.4023-0.91406-2.2109-2.4688-3.2109-11.188-7.4219-29.246-13.887-52.258-20.207-81.906-22.48-7.8281-0.59375-26.84-0.55469-34.816 0.0625z" fill-rule="evenodd"/>
  <path d="m62.699 262.75c-6.7227 5.9141-12.125 11.742-12.125 13.082 0 0.44531 0.19141 0.70312 0.40234 0.61719 0.23438-0.10547 3.3594-3.3164 6.9141-7.1875 3.5508-3.8086 7.6797-8.168 9.1875-9.6133 1.4453-1.4688 2.5508-2.6602 2.4453-2.6602-0.10547 0-3.1484 2.5938-6.8281 5.7656z" fill-rule="evenodd"/>
  <path d="m64.062 274.54c-4.168 3.3594-8.7188 8.5273-8.3789 9.4844 0.0625 0.23437 3.0625-2.5742 6.5703-6.2734 3.5742-3.7227 6.3789-6.7227 6.2734-6.7227-0.042969 0-2.1055 1.5938-4.4648 3.5078z" fill-rule="evenodd"/>
  <path d="m63.871 282.77c-5.9336 4.5078-10.551 8.8672-10.23 9.7617 0.19141 0.51172 3.1055-2 12.676-10.824 1.9141-1.7422 3.3594-3.1484 3.2539-3.1484-0.085937 0-2.6602 1.8945-5.6992 4.2109z" fill-rule="evenodd"/>
  <path d="m62.359 292.53c-4.1055 3.3164-10.785 10.293-10.785 11.293 0 0.44531 0.10547 0.80859 0.25391 0.80859s2.3594-2.2109 4.9141-4.9141c5.6133-5.8711 9.082-9.6367 8.8281-9.6367-0.10547 0.042969-1.5508 1.1055-3.2109 2.4453z" fill-rule="evenodd"/>
  <path d="m64.359 298.95c-4.9141 3.6172-11.781 10.082-11.781 11.082 0 0.36328 0.29688 0.61719 0.66016 0.61719 0.55469-0.0625 16.441-15.059 15.887-15.059-0.14844 0-2.2539 1.5117-4.7656 3.3594z" fill-rule="evenodd"/>
  <path d="m189 308.99c-8.6758 0.25391-20.566 1.2539-29.586 2.4453-11.082 1.4688-63.254 10.082-65.551 10.785-5.168 1.6602-4.6797 8.5938 0.59375 9.3359 1.3594 0.14844 11.484-1.2969 29.328-4.3164 45.855-7.6133 53.129-8.3789 78.906-7.9102 16.738 0.29688 20.715 0.55469 34.945 2.3594 20.672 2.5938 34.457 6.0625 60.594 15.293 7.0625 2.5078 8.5273 2.5938 10.57 0.70312 2.4688-2.3164 1.7031-5.7656-1.6602-7.6797-1.0859-0.70312-6.4648-2.8086-11.824-4.7227-28.332-10.168-52.66-14.695-87.266-16.145-6.2109-0.25391-12.082-0.44531-13.039-0.40234-0.95703 0.042969-3.6602 0.14844-6.0195 0.25391z" fill-rule="evenodd"/>
  <path d="m62.359 312.21c-7.3164 5.6133-12.633 11.379-11.23 12.23 0.29688 0.21094 0.55469 0.25391 0.59375 0.14844 0.042969-0.042969 3.4688-3.6172 7.6133-7.8281 4.125-4.1484 7.3789-7.6133 7.2734-7.6133-0.14844 0-2.043 1.4023-4.2539 3.0625z" fill-rule="evenodd"/>
  <path d="m67.785 318.33c-9.2305 6.2539-16.801 13.633-16.016 15.633 0.21094 0.55469 1.3594-0.40234 4.4258-3.5078 3.5078-3.6602 7.3594-7.2734 15.188-13.996 2.4258-2.043 1.3203-1.4883-3.5938 1.8711z" fill-rule="evenodd"/>
  <path d="m60.852 332.37c-5.1055 3.5078-10.676 9.4219-8.8672 9.3789 0.19141 0 3.0625-2.6172 6.3594-5.7656 3.3164-3.168 5.9141-5.7852 5.7656-5.7227-0.14844 0-1.5938 0.95703-3.2539 2.1055z" fill-rule="evenodd"/>
  <path d="m59.148 343.79c-4.0625 3.0625-7.9766 7.2305-7.3789 7.8281 0.14844 0.21094 2.5078-1.8086 5.2305-4.3594 2.6602-2.6172 5.3164-5.1055 5.8477-5.6133 2.0625-1.8516 0.17188-0.80859-3.6992 2.1484z" fill-rule="evenodd"/>
  <path d="m60.191 352.28c-4.2539 2.8516-9.4219 7.2109-10.168 8.5703-1.2539 2.3594 0.40234 1.7031 3.6992-1.4023 2.0195-1.8945 5.0625-4.6172 6.8711-6.125 4.168-3.4023 4.3164-3.5508 3.7656-3.5508-0.29688 0-2.1484 1.1484-4.168 2.5078z" fill-rule="evenodd"/>
  <path d="m58.852 360.66c-5.125 2.957-9.7852 6.5078-9.7852 7.4648 0 0.80859 0.80859 0.95703 1.2539 0.19141 0.19141-0.29688 3.0625-2.5938 6.4219-5.1055 8.168-6.0195 8.2305-6.125 2.1055-2.5508z" fill-rule="evenodd"/>
  <path d="m172.7 365.38c-15.059 0.51172-35.156 2.4688-46.898 4.5312-10.293 1.7852-27.543 6.4648-30.691 8.3164-3.4688 2-3.3164 6.5703 0.19141 8.3164 2.0625 1.0195 1.957 1.0625 12.699-2.1055 15.781-4.5508 27.586-6.4648 52.66-8.3164 11.824-0.89453 42.07-1 53.512-0.19141 27.969 1.8945 56.766 8.6133 78.738 18.293 4.6172 2.0625 8.9336 3.7227 9.6367 3.7227 3.2539 0 5.6992-2.6602 5.0625-5.4648-0.44531-2.168-2.5078-3.7656-8.0391-6.3164-13.527-6.3398-26.863-10.633-44.688-14.547-17.652-3.8086-31.477-5.5312-51.301-6.2734-13.887-0.51172-15.145-0.51172-30.883 0.042969z" fill-rule="evenodd"/>
  <path d="m62.699 367.18c-6.168 3.8086-12.039 9.3789-11.422 10.996 0.40234 1 1.1914 0.85156 1.5508-0.25391 0.25391-0.76562 5.8047-6.0195 12.039-11.293 2.1055-1.8086 1.4453-1.5938-2.168 0.55469z" fill-rule="evenodd"/>
  <path d="m59.105 379.37c-4.6797 2.8086-8.4453 6.5312-6.6367 6.5312 0.40234 0 10.145-7.9766 10.145-8.3359 0-0.33984-0.10547-0.29688-3.5078 1.8086z" fill-rule="evenodd"/>
  <path d="m59.043 388.45c-4.6562 3.3164-7.7188 6.9766-5.8047 6.9766 0.55469 0 5.168-4.5078 7.5703-7.4219 1.2969-1.5117 0.85156-1.4023-1.7656 0.44531z" fill-rule="evenodd"/>
  <path d="m60.66 396.94c-5.168 2.7422-9.082 5.6562-9.082 6.8047 0 0.40234 0.25391 0.70312 0.48828 0.70312 0.40234 0 11.742-8.2734 13.504-9.8281 0.59375-0.55469-0.59375 0.042968-4.9141 2.3164z" fill-rule="evenodd"/>
  <path d="m59.746 407.62c-5.6133 2.6602-10.273 5.4219-10.57 6.2109-0.40234 1.3594 1.5508 0.55469 6.7617-2.6602 3.0195-1.8516 6.168-3.7656 7.082-4.3164 0.85156-0.53125 1.5938-1.0859 1.5938-1.1914 0-0.29688 0.19141-0.36328-4.8711 1.957z" fill-rule="evenodd"/>
  <path d="m60.66 416.89c-5.2734 2.8516-10.594 7.125-10.594 8.4219 0 1.1055 0.44531 0.85156 3.2109-1.5117 1.4023-1.1914 4.8086-3.8086 7.5703-5.7656 7.125-5.168 7.082-5.2109-0.19141-1.1484z" fill-rule="evenodd"/>
  <path d="m61.508 424.72c-6.5703 4.0625-10.934 7.3789-10.934 8.4219 0 0.51172 0.085937 0.91406 0.25391 0.91406 0.19141 0 14.293-10.551 15.547-11.656 1.2969-1.1484-0.95703-0.085938-4.8711 2.3164z" fill-rule="evenodd"/>
  <path d="m165.92 436.25c-13.039 7.6797-19.609 11.699-20.312 12.441-0.59375 0.70312 3.9766-1.7422 17.566-9.3789 5.8047-3.2109 11.57-6.4219 12.93-7.0625 2.1484-1.1055 3.2539-2.7656 1.7422-2.6602-0.33984 0-5.6992 3-11.934 6.6562z" fill-rule="evenodd"/>
  <path d="m60.359 433.1c-5.8711 3.4023-12.293 8.9766-12.293 10.633 0 0.74609 0.63672 0.33984 3.0625-1.7656 1.6367-1.4453 5.1055-4.3164 7.6133-6.3164 6.8711-5.4648 7.0195-5.7227 1.6172-2.5508z" fill-rule="evenodd"/>
  <path d="m142.05 433.18c-4.2109 2.8711-10.336 7.3789-10.082 7.3789 0.14844 0 3.1055-1.7031 6.5078-3.7656 3.4688-2.043 6.5312-3.7656 6.8281-3.7656s0.55469-0.33984 0.55469-0.74609c0-1.1484-1.2109-0.89453-3.8086 0.89453z" fill-rule="evenodd"/>
  <path d="m192.5 436.5c-2.6172 1.3594-11.633 6.0195-20.055 10.336-8.4219 4.3164-15.059 7.7617-14.738 7.6797 2.5508-0.76562 16.844-7.3359 27.414-12.547 7.1875-3.5078 13.441-6.4219 13.996-6.4219 0.55469 0 0.91406-0.25391 0.80859-0.63672-0.44531-1.3203-2.8086-0.80859-7.4219 1.5938z" fill-rule="evenodd"/>
  <path d="m203.8 441.96c-5.2305 2.6992-11.699 6.2109-14.293 7.8281-4.8711 2.957-6.9766 4.5078-4.2734 3.168 10.977-5.4883 27.48-13.145 28.84-13.355 1.2969-0.25391 1.7422-0.55469 1.7422-1.2969 0-2.0625-2.3398-1.3594-12.016 3.6602z" fill-rule="evenodd"/>
  <path d="m60.043 442.52c-7.9102 5.2734-12.676 9.0195-12.891 10.23-0.29688 1.5117 0.85156 0.95703 5.5742-2.8086 2.5508-2 6.9766-5.5078 9.8281-7.7617 2.8711-2.2773 4.9766-4.125 4.7227-4.125-0.29688 0-3.5508 2-7.2305 4.4648z" fill-rule="evenodd"/>
  <path d="m217.94 445.22c-10.188 5.168-20.164 10.848-19.781 11.188 0.21094 0.21094 11.102-4.7656 23.078-10.527 3.8086-1.8086 7.3164-3.3164 7.8711-3.3164 0.51172 0 1.0625-0.19141 1.2539-0.44531 0.29688-0.48828-1.043-2.0625-1.8086-2.0625-0.29688 0-5.0625 2.3164-10.613 5.168z" fill-rule="evenodd"/>
  <path d="m236.85 447.84c-6.7852 3.5508-16.355 9.3359-16.016 9.6758 0.10547 0.14844 5.3828-2.2539 11.633-5.3164 6.2734-3 11.953-5.6562 12.59-5.8711 1.5117-0.44531 1.1484-1.4453-0.48828-1.6602-0.85156-0.085937-3.5742 1.0195-7.7188 3.168z" fill-rule="evenodd"/>
  <path d="m65.68 448.9c-7.2734 4-16.102 10.613-16.102 11.973 0 1.6172 1.1914 1.0625 5.8477-2.5508 4.0625-3.2109 11.484-9.1875 13.441-10.848 0.91406-0.74609 0-0.38281-3.1914 1.4258z" fill-rule="evenodd"/>
  <path d="m250.44 451.05c-3.125 1.4023-11.805 6.8281-11.805 7.3164 0 0.14844 0.76562-0.042969 1.6602-0.44531 0.85156-0.40234 4.4258-1.957 7.8711-3.5078 3.4688-1.5508 6.5703-2.8086 6.9336-2.8086 1.043 0 0.44531-1.7656-0.66016-1.8516-0.55469-0.0625-2.3594 0.48828-4 1.2969z" fill-rule="evenodd"/>
  <path d="m67.316 456.21c-7.0625 4.2539-17.25 12.484-17.25 13.93 0 1.7031 1.0625 1.6602 2.9141-0.085937 1.043-0.95703 4.5742-4.0195 7.8711-6.8281 7.2734-6.125 10.633-9.082 10.23-9.125-0.14844 0-1.8086 0.95703-3.7656 2.1055z" fill-rule="evenodd"/>
  <path d="m268.99 459.07c-2.2109 1.1055-4.9141 2.7656-6.0195 3.7227l-2 1.7422 6.2109-2.4453c3.4688-1.3594 6.9336-2.4688 7.6797-2.4688 1.2539 0 1.4453-0.19141 1.2969-1.1484-0.25391-1.8516-2.5938-1.6602-7.168 0.59375z" fill-rule="evenodd"/>
  <path d="m67.379 463.98c-7.4219 4.9141-16.164 12.996-15.652 14.398 0.19141 0.44531 0.66016 0.80859 1 0.80859 0.66016 0 18.949-17.461 18.418-17.566-0.17188 0-1.8711 1.0625-3.7656 2.3594z" fill-rule="evenodd"/>
  <path d="m292.55 466.38c-3.5508 2.3594-3.2109 2.5742 1.4023 0.95703 1.0625-0.33984 2.5742-0.55469 3.3594-0.33984 1.7031 0.29688 2.5742-0.85156 1.5117-2.1055-1.043-1.2539-2.6172-0.85156-6.2734 1.4883z" fill-rule="evenodd"/>
  <use y="584.746094" xlink:href="#w"/>
  <use x="7.804688" y="584.746094" xlink:href="#b"/>
  <use x="13.050781" y="584.746094" xlink:href="#a"/>
  <use x="20.261719" y="584.746094" xlink:href="#g"/>
  <use x="27.4375" y="584.746094" xlink:href="#c"/>
  <use x="32.519531" y="584.746094" xlink:href="#a"/>
  <use x="39.734375" y="584.746094" xlink:href="#j"/>
  <use x="51.046875" y="584.746094" xlink:href="#i"/>
  <use x="58.660156" y="584.746094" xlink:href="#f"/>
  <use x="69.296875" y="584.746094" xlink:href="#e"/>
  <use x="77.089844" y="584.746094" xlink:href="#b"/>
  <use x="82.332031" y="584.746094" xlink:href="#v"/>
  <use x="88.523438" y="584.746094" xlink:href="#a"/>
  <use x="95.734375" y="584.746094" xlink:href="#h"/>
  <use x="106.816406" y="584.746094" xlink:href="#f"/>
  <use x="113.75" y="584.746094" xlink:href="#u"/>
  <use x="120.078125" y="584.746094" xlink:href="#t"/>
  <use x="123.722656" y="584.746094" xlink:href="#g"/>
  <use x="130.898438" y="584.746094" xlink:href="#s"/>
  <use x="140.722656" y="584.746094" xlink:href="#r"/>
  <use y="595.378906" xlink:href="#q"/>
  <use x="4.625" y="595.378906" xlink:href="#b"/>
  <use x="9.871094" y="595.378906" xlink:href="#d"/>
  <use x="17.175781" y="595.378906" xlink:href="#h"/>
  <use x="31.960938" y="595.378906" xlink:href="#c"/>
  <use x="37.042969" y="595.378906" xlink:href="#p"/>
  <use x="44.613281" y="595.378906" xlink:href="#a"/>
  <use x="55.53125" y="595.378906" xlink:href="#o"/>
  <use x="64.429688" y="595.378906" xlink:href="#d"/>
  <use x="71.734375" y="595.378906" xlink:href="#n"/>
  <use x="79.304688" y="595.378906" xlink:href="#m"/>
  <use x="90.578125" y="595.378906" xlink:href="#e"/>
  <use x="98.375" y="595.378906" xlink:href="#b"/>
  <use x="103.617188" y="595.378906" xlink:href="#d"/>
  <use x="110.925781" y="595.378906" xlink:href="#l"/>
  <use x="114.570312" y="595.378906" xlink:href="#a"/>
  <use x="121.78125" y="595.378906" xlink:href="#k"/>
  <use x="128.085938" y="595.378906" xlink:href="#c"/>
 </g>
</svg>
