<svg width="163" height="186" viewBox="0 0 163 186" fill="none" xmlns="http://www.w3.org/2000/svg">
<path d="M21.24 53.7199C18.2172 55.2415 17 57.6861 17 61.0233V129.107C17 132.444 18.2172 134.584 21.24 136.41L78.6928 169.133C80.0101 169.789 81.4614 170.13 82.9328 170.13C84.4042 170.13 85.8556 169.789 87.1728 169.133L144.626 136.41C147.669 134.584 148.866 132.444 148.866 129.107V61.0233C148.866 57.0774 147.03 54.9372 144.626 53.7199L87.1728 20.997C85.8556 20.3413 84.4042 20 82.9328 20C81.4614 20 80.0101 20.3413 78.6928 20.997L21.24 53.7199Z" fill="#14BF96"/>
<path d="M133.377 80.8031C106.111 80.9451 84.0385 103.839 84.0385 132.079V133.275H81.9185V132.079C81.9185 103.839 59.8056 80.9451 32.4892 80.8031C32.3058 82.596 32.2144 84.3972 32.2153 86.1995C32.2153 108.282 45.7366 127.108 64.6745 134.33C70.5149 136.509 76.6995 137.618 82.9328 137.607C89.1647 137.602 95.3464 136.493 101.191 134.33C120.119 127.108 133.65 108.282 133.65 86.1995C133.651 84.3972 133.56 82.596 133.377 80.8031Z" fill="white"/>
<path d="M94.4102 79.333C100.748 72.9949 100.748 62.7189 94.4102 56.3809C88.0721 50.0428 77.7961 50.0428 71.458 56.3809C65.1199 62.7189 65.1199 72.9949 71.458 79.333C77.7961 85.6711 88.0721 85.6711 94.4102 79.333Z" fill="white"/>
</svg>
