<?xml version="1.0" encoding="UTF-8"?>
<svg width="700pt" height="700pt" version="1.1" viewBox="0 0 700 700" xmlns="http://www.w3.org/2000/svg" xmlns:xlink="http://www.w3.org/1999/xlink">
 <defs>
  <symbol id="t" overflow="visible">
   <path d="m3.6562-0.21875c-0.1875 0.09375-0.38672 0.16797-0.59375 0.21875-0.19922 0.050781-0.40625 0.078125-0.625 0.078125-0.66797 0-1.1992-0.17969-1.5938-0.54688-0.38672-0.375-0.57812-0.87891-0.57812-1.5156 0-0.64453 0.19141-1.1484 0.57812-1.5156 0.39453-0.375 0.92578-0.5625 1.5938-0.5625 0.21875 0 0.42578 0.027344 0.625 0.078125 0.20703 0.054687 0.40625 0.125 0.59375 0.21875v0.82812c-0.1875-0.125-0.375-0.21875-0.5625-0.28125-0.17969-0.0625-0.37109-0.09375-0.57812-0.09375-0.36719 0-0.65625 0.12109-0.875 0.35938-0.21094 0.23047-0.3125 0.55469-0.3125 0.96875 0 0.40625 0.10156 0.73047 0.3125 0.96875 0.21875 0.23047 0.50781 0.34375 0.875 0.34375 0.20703 0 0.39844-0.023437 0.57812-0.078125 0.1875-0.0625 0.375-0.16016 0.5625-0.29688z"/>
  </symbol>
  <symbol id="b" overflow="visible">
   <path d="m2.6875-2.1719c-0.085938-0.039063-0.16797-0.070313-0.25-0.09375-0.085938-0.019531-0.16797-0.03125-0.25-0.03125-0.25 0-0.44531 0.085937-0.57812 0.25-0.125 0.15625-0.1875 0.38281-0.1875 0.67188v1.375h-0.96875v-2.9844h0.96875v0.48438c0.11328-0.19531 0.25-0.33594 0.40625-0.42188 0.16406-0.09375 0.35938-0.14062 0.57812-0.14062h0.10938c0.039063 0 0.09375 0.007812 0.15625 0.015625z"/>
  </symbol>
  <symbol id="a" overflow="visible">
   <path d="m3.4375-1.5v0.26562h-2.2344c0.03125 0.23047 0.11328 0.40234 0.25 0.51562 0.13281 0.10547 0.32812 0.15625 0.57812 0.15625 0.20703 0 0.41406-0.023438 0.625-0.078125 0.20703-0.0625 0.42188-0.15625 0.64062-0.28125v0.73438c-0.21875 0.09375-0.44531 0.16406-0.67188 0.20312-0.23047 0.039062-0.45312 0.0625-0.67188 0.0625-0.54297 0-0.96484-0.13281-1.2656-0.40625-0.30469-0.28125-0.45312-0.67188-0.45312-1.1719 0-0.47656 0.14453-0.85938 0.4375-1.1406 0.30078-0.28125 0.70703-0.42188 1.2188-0.42188 0.46875 0 0.84375 0.14062 1.125 0.42188s0.42188 0.66406 0.42188 1.1406zm-0.96875-0.32812c0-0.17578-0.058594-0.31641-0.17188-0.42188-0.10547-0.11328-0.24219-0.17188-0.40625-0.17188-0.1875 0-0.33984 0.054687-0.45312 0.15625-0.11719 0.10547-0.1875 0.25-0.21875 0.4375z"/>
  </symbol>
  <symbol id="f" overflow="visible">
   <path d="m1.7969-1.3438c-0.19922 0-0.35156 0.039062-0.45312 0.10938-0.09375 0.0625-0.14062 0.16406-0.14062 0.29688 0 0.11719 0.035156 0.21094 0.10938 0.28125 0.082031 0.0625 0.19531 0.09375 0.34375 0.09375 0.17578 0 0.32812-0.0625 0.45312-0.1875s0.1875-0.28516 0.1875-0.48438v-0.10938zm1.4688-0.35938v1.7031h-0.96875v-0.4375c-0.125 0.17969-0.27344 0.30859-0.4375 0.39062-0.15625 0.082031-0.35156 0.125-0.57812 0.125-0.3125 0-0.57031-0.085938-0.76562-0.26562-0.1875-0.1875-0.28125-0.42188-0.28125-0.70312 0-0.35156 0.11719-0.61328 0.35938-0.78125 0.23828-0.16406 0.61719-0.25 1.1406-0.25h0.5625v-0.0625c0-0.15625-0.0625-0.26562-0.1875-0.32812-0.11719-0.070312-0.29688-0.10938-0.54688-0.10938-0.21094 0-0.40234 0.023437-0.57812 0.0625-0.17969 0.042969-0.33984 0.10156-0.48438 0.17188v-0.71875c0.19531-0.050781 0.39844-0.085938 0.60938-0.10938 0.20703-0.03125 0.41406-0.046875 0.625-0.046875 0.53906 0 0.92969 0.10938 1.1719 0.32812 0.23828 0.21094 0.35938 0.55469 0.35938 1.0312z"/>
  </symbol>
  <symbol id="c" overflow="visible">
   <path d="m1.5-3.8438v0.85938h0.98438v0.67188h-0.98438v1.2812c0 0.13672 0.023438 0.23047 0.078125 0.28125 0.0625 0.042969 0.17578 0.0625 0.34375 0.0625h0.48438v0.6875h-0.8125c-0.38672 0-0.65625-0.078125-0.8125-0.23438s-0.23438-0.42188-0.23438-0.79688v-1.2812h-0.46875v-0.67188h0.46875v-0.85938z"/>
  </symbol>
  <symbol id="l" overflow="visible">
   <path d="m2.5-2.5469v-1.6094h0.95312v4.1562h-0.95312v-0.4375c-0.13672 0.17969-0.28125 0.30859-0.4375 0.39062-0.15625 0.082031-0.33984 0.125-0.54688 0.125-0.375 0-0.68359-0.14453-0.92188-0.4375-0.23047-0.28906-0.34375-0.67188-0.34375-1.1406 0-0.45703 0.11328-0.83203 0.34375-1.125 0.23828-0.28906 0.54688-0.4375 0.92188-0.4375 0.19531 0 0.375 0.042969 0.53125 0.125 0.16406 0.085938 0.31641 0.21484 0.45312 0.39062zm-0.64062 1.9375c0.20703 0 0.36328-0.070313 0.46875-0.21875 0.11328-0.15625 0.17188-0.37891 0.17188-0.67188 0-0.28125-0.058594-0.49219-0.17188-0.64062-0.10547-0.15625-0.26172-0.23438-0.46875-0.23438-0.19922 0-0.35547 0.078125-0.46875 0.23438-0.10547 0.14844-0.15625 0.35938-0.15625 0.64062 0 0.29297 0.050781 0.51562 0.15625 0.67188 0.11328 0.14844 0.26953 0.21875 0.46875 0.21875z"/>
  </symbol>
  <symbol id="k" overflow="visible">
   <path d="m2.0469-0.60938c0.20703 0 0.36328-0.070313 0.46875-0.21875 0.11328-0.15625 0.17188-0.37891 0.17188-0.67188 0-0.28125-0.058594-0.49219-0.17188-0.64062-0.10547-0.15625-0.26172-0.23438-0.46875-0.23438-0.19922 0-0.35547 0.078125-0.46875 0.23438-0.10547 0.14844-0.15625 0.35938-0.15625 0.64062 0 0.29297 0.050781 0.51562 0.15625 0.67188 0.11328 0.14844 0.26953 0.21875 0.46875 0.21875zm-0.625-1.9375c0.125-0.17578 0.26562-0.30469 0.42188-0.39062 0.16406-0.082031 0.35156-0.125 0.5625-0.125 0.36328 0 0.66406 0.14844 0.90625 0.4375 0.23828 0.29297 0.35938 0.66797 0.35938 1.125 0 0.46875-0.12109 0.85156-0.35938 1.1406-0.24219 0.29297-0.54297 0.4375-0.90625 0.4375-0.21094 0-0.39844-0.042969-0.5625-0.125-0.15625-0.082031-0.29688-0.21094-0.42188-0.39062v0.4375h-0.96875v-4.1562h0.96875z"/>
  </symbol>
  <symbol id="j" overflow="visible">
   <path d="m0.0625-2.9844h0.95312l0.8125 2.0156 0.6875-2.0156h0.95312l-1.2656 3.2656c-0.125 0.33203-0.27344 0.56641-0.4375 0.70312-0.16797 0.13281-0.39062 0.20312-0.67188 0.20312h-0.54688v-0.64062h0.29688c0.16406 0 0.28516-0.027344 0.35938-0.078125 0.070313-0.054688 0.12891-0.14062 0.17188-0.26562l0.03125-0.09375z"/>
  </symbol>
  <symbol id="e" overflow="visible">
   <path d="m0.5-3.9844h1.7031c0.50781 0 0.89844 0.11719 1.1719 0.34375 0.26953 0.21875 0.40625 0.53906 0.40625 0.95312 0 0.41797-0.13672 0.74219-0.40625 0.96875-0.27344 0.21875-0.66406 0.32812-1.1719 0.32812h-0.67188v1.3906h-1.0312zm1.0312 0.75v1.1094h0.5625c0.19531 0 0.34766-0.046875 0.45312-0.14062 0.11328-0.10156 0.17188-0.24219 0.17188-0.42188 0-0.17578-0.058594-0.3125-0.17188-0.40625-0.10547-0.09375-0.25781-0.14062-0.45312-0.14062z"/>
  </symbol>
  <symbol id="i" overflow="visible">
   <path d="m3.4688-1.8281v1.8281h-0.96875v-1.3906c0-0.25781-0.007812-0.4375-0.015625-0.53125-0.011719-0.10156-0.03125-0.17578-0.0625-0.21875-0.03125-0.0625-0.085937-0.10938-0.15625-0.14062-0.0625-0.039062-0.13281-0.0625-0.20312-0.0625-0.21094 0-0.37109 0.078125-0.48438 0.23438-0.10547 0.15625-0.15625 0.37109-0.15625 0.64062v1.4688h-0.96875v-2.9844h0.96875v0.4375c0.13281-0.17578 0.28516-0.30469 0.45312-0.39062 0.16406-0.082031 0.34375-0.125 0.53125-0.125 0.34375 0 0.60156 0.10938 0.78125 0.32812 0.1875 0.21094 0.28125 0.51172 0.28125 0.90625z"/>
  </symbol>
  <symbol id="s" overflow="visible">
   <path d="m3.2812-3.8594v0.84375c-0.21875-0.10156-0.43359-0.17578-0.64062-0.21875-0.21094-0.050781-0.40625-0.078125-0.59375-0.078125-0.25 0-0.43359 0.039062-0.54688 0.10938-0.11719 0.0625-0.17188 0.16797-0.17188 0.3125 0 0.10547 0.035156 0.1875 0.10938 0.25 0.082031 0.054687 0.22656 0.10156 0.4375 0.14062l0.4375 0.09375c0.44531 0.09375 0.75781 0.23047 0.9375 0.40625 0.1875 0.17969 0.28125 0.4375 0.28125 0.78125 0 0.4375-0.13281 0.76562-0.39062 0.98438-0.26172 0.21094-0.65625 0.3125-1.1875 0.3125-0.25 0-0.50781-0.027344-0.76562-0.078125-0.25-0.039062-0.50781-0.10938-0.76562-0.20312v-0.875c0.25781 0.13672 0.50391 0.24219 0.73438 0.3125 0.23828 0.0625 0.47266 0.09375 0.70312 0.09375 0.21875 0 0.38281-0.035156 0.5-0.10938 0.125-0.070312 0.1875-0.17578 0.1875-0.3125 0-0.125-0.042969-0.21875-0.125-0.28125-0.085937-0.070312-0.24609-0.13281-0.48438-0.1875l-0.39062-0.09375c-0.40625-0.082031-0.70312-0.21875-0.89062-0.40625-0.17969-0.1875-0.26562-0.44141-0.26562-0.76562 0-0.39453 0.125-0.69531 0.375-0.90625 0.25781-0.21875 0.62891-0.32812 1.1094-0.32812 0.22656 0 0.45703 0.023438 0.6875 0.0625 0.22656 0.03125 0.46875 0.078125 0.71875 0.14062z"/>
  </symbol>
  <symbol id="h" overflow="visible">
   <path d="m3.2344-2.5c0.11328-0.17578 0.25391-0.3125 0.42188-0.40625 0.16406-0.10156 0.35156-0.15625 0.5625-0.15625 0.33203 0 0.58594 0.10938 0.76562 0.32812 0.1875 0.21094 0.28125 0.51172 0.28125 0.90625v1.8281h-0.96875v-1.5625c0.007813-0.019531 0.015625-0.039062 0.015625-0.0625v-0.10938c0-0.21875-0.03125-0.375-0.09375-0.46875s-0.16406-0.14062-0.29688-0.14062c-0.1875 0-0.33594 0.078125-0.4375 0.23438-0.09375 0.14844-0.14062 0.35938-0.14062 0.64062v1.4688h-0.96875v-1.5625c0-0.33203-0.03125-0.54688-0.09375-0.64062-0.054688-0.09375-0.15234-0.14062-0.29688-0.14062-0.17969 0-0.32031 0.078125-0.42188 0.23438-0.09375 0.14844-0.14062 0.35938-0.14062 0.64062v1.4688h-0.96875v-2.9844h0.96875v0.4375c0.11328-0.17578 0.24219-0.30469 0.39062-0.39062 0.15625-0.082031 0.32812-0.125 0.51562-0.125 0.20703 0 0.39062 0.054688 0.54688 0.15625 0.15625 0.09375 0.27344 0.23047 0.35938 0.40625z"/>
  </symbol>
  <symbol id="r" overflow="visible">
   <path d="m2.7969-2.8906v0.71875c-0.21094-0.082031-0.40625-0.14453-0.59375-0.1875-0.1875-0.039063-0.37109-0.0625-0.54688-0.0625-0.17969 0-0.3125 0.023437-0.40625 0.0625-0.085938 0.042969-0.125 0.10938-0.125 0.20312 0 0.085938 0.03125 0.14844 0.09375 0.1875 0.070312 0.042969 0.19531 0.074219 0.375 0.09375l0.15625 0.015625c0.48828 0.0625 0.81641 0.16797 0.98438 0.3125 0.17578 0.13672 0.26562 0.35938 0.26562 0.67188s-0.12109 0.55469-0.35938 0.71875c-0.23047 0.15625-0.57812 0.23438-1.0469 0.23438-0.19922 0-0.40625-0.015625-0.625-0.046875-0.21094-0.03125-0.42188-0.078125-0.64062-0.14062v-0.71875c0.1875 0.085937 0.37891 0.15234 0.57812 0.20312 0.20703 0.042969 0.41406 0.0625 0.625 0.0625 0.1875 0 0.32812-0.023438 0.42188-0.078125 0.09375-0.050781 0.14062-0.125 0.14062-0.21875s-0.039062-0.16016-0.10938-0.20312c-0.0625-0.039062-0.1875-0.070312-0.375-0.09375l-0.17188-0.015625c-0.42969-0.050781-0.73047-0.14844-0.90625-0.29688-0.16797-0.14453-0.25-0.36328-0.25-0.65625 0-0.32031 0.10938-0.55469 0.32812-0.70312 0.21875-0.15625 0.55078-0.23438 1-0.23438 0.17578 0 0.35938 0.015625 0.54688 0.046875 0.19531 0.023437 0.41016 0.0625 0.64062 0.125z"/>
  </symbol>
  <symbol id="g" overflow="visible">
   <path d="m3.4688-1.8281v1.8281h-0.96875v-1.3906c0-0.25781-0.007812-0.4375-0.015625-0.53125-0.011719-0.10156-0.03125-0.17578-0.0625-0.21875-0.03125-0.0625-0.085937-0.10938-0.15625-0.14062-0.0625-0.039062-0.13281-0.0625-0.20312-0.0625-0.21094 0-0.37109 0.078125-0.48438 0.23438-0.10547 0.15625-0.15625 0.37109-0.15625 0.64062v1.4688h-0.96875v-4.1562h0.96875v1.6094c0.13281-0.17578 0.28516-0.30469 0.45312-0.39062 0.16406-0.082031 0.34375-0.125 0.53125-0.125 0.34375 0 0.60156 0.10938 0.78125 0.32812 0.1875 0.21094 0.28125 0.51172 0.28125 0.90625z"/>
  </symbol>
  <symbol id="q" overflow="visible">
   <path d="m2.4219-4.1562v0.625h-0.51562c-0.13672 0-0.23438 0.027344-0.29688 0.078125-0.054687 0.054687-0.078125 0.13672-0.078125 0.25v0.21875h0.82812v0.67188h-0.82812v2.3125h-0.95312v-2.3125h-0.46875v-0.67188h0.46875v-0.21875c0-0.32031 0.085937-0.5625 0.26562-0.71875 0.1875-0.15625 0.47266-0.23438 0.85938-0.23438z"/>
  </symbol>
  <symbol id="d" overflow="visible">
   <path d="m1.875-2.375c-0.21094 0-0.37109 0.078125-0.48438 0.23438-0.10547 0.14844-0.15625 0.35938-0.15625 0.64062 0 0.29297 0.050781 0.51562 0.15625 0.67188 0.11328 0.14844 0.27344 0.21875 0.48438 0.21875 0.20703 0 0.36719-0.070313 0.48438-0.21875 0.11328-0.15625 0.17188-0.37891 0.17188-0.67188 0-0.28125-0.058594-0.49219-0.17188-0.64062-0.11719-0.15625-0.27734-0.23438-0.48438-0.23438zm0-0.6875c0.51953 0 0.92188 0.14062 1.2031 0.42188 0.28906 0.27344 0.4375 0.65234 0.4375 1.1406 0 0.5-0.14844 0.89062-0.4375 1.1719-0.28125 0.27344-0.68359 0.40625-1.2031 0.40625-0.51172 0-0.91406-0.13281-1.2031-0.40625-0.29297-0.28125-0.4375-0.67188-0.4375-1.1719 0-0.48828 0.14453-0.86719 0.4375-1.1406 0.28906-0.28125 0.69141-0.42188 1.2031-0.42188z"/>
  </symbol>
  <symbol id="p" overflow="visible">
   <path d="m0.5-3.9844h1.1562l1.4375 2.7344v-2.7344h0.98438v3.9844h-1.1562l-1.4375-2.7344v2.7344h-0.98438z"/>
  </symbol>
  <symbol id="o" overflow="visible">
   <path d="m0.42188-1.1719v-1.8125h0.96875v0.29688 0.60938 0.48438c0 0.24219 0.003906 0.41797 0.015625 0.53125 0.007812 0.10547 0.03125 0.17969 0.0625 0.21875 0.039062 0.0625 0.09375 0.11719 0.15625 0.15625 0.0625 0.03125 0.13281 0.046875 0.21875 0.046875 0.19531 0 0.35156-0.078125 0.46875-0.23438 0.11328-0.15625 0.17188-0.36719 0.17188-0.64062v-1.4688h0.95312v2.9844h-0.95312v-0.4375c-0.14844 0.17969-0.30469 0.30859-0.46875 0.39062-0.15625 0.082031-0.33594 0.125-0.53125 0.125-0.34375 0-0.60938-0.10156-0.79688-0.3125-0.17969-0.21875-0.26562-0.53125-0.26562-0.9375z"/>
  </symbol>
  <symbol id="n" overflow="visible">
   <path d="m0.45312-2.9844h0.96875v2.9375c0 0.39453-0.10156 0.69531-0.29688 0.90625-0.1875 0.21875-0.46484 0.32812-0.82812 0.32812h-0.48438v-0.64062h0.17188c0.17578 0 0.29688-0.042969 0.35938-0.125 0.070312-0.074219 0.10938-0.23047 0.10938-0.46875zm0-1.1719h0.96875v0.78125h-0.96875z"/>
  </symbol>
  <symbol id="m" overflow="visible">
   <path d="m2.875-2.8906v0.76562c-0.125-0.082031-0.25781-0.14453-0.39062-0.1875-0.13672-0.039062-0.27344-0.0625-0.40625-0.0625-0.27344 0-0.48047 0.078125-0.625 0.23438-0.14844 0.15625-0.21875 0.37109-0.21875 0.64062 0 0.28125 0.070313 0.5 0.21875 0.65625 0.14453 0.15625 0.35156 0.23438 0.625 0.23438 0.14453 0 0.28516-0.019531 0.42188-0.0625 0.13281-0.039063 0.25781-0.10938 0.375-0.20312v0.78125c-0.14844 0.0625-0.29688 0.10156-0.45312 0.125-0.15625 0.03125-0.3125 0.046875-0.46875 0.046875-0.54297 0-0.96484-0.13281-1.2656-0.40625-0.30469-0.28125-0.45312-0.67188-0.45312-1.1719 0-0.48828 0.14844-0.86719 0.45312-1.1406 0.30078-0.28125 0.72266-0.42188 1.2656-0.42188 0.15625 0 0.3125 0.015625 0.46875 0.046875 0.15625 0.023437 0.30469 0.0625 0.45312 0.125z"/>
  </symbol>
 </defs>
 <g>
  <path d="m113.75 367.5h26.25v61.25h-17.5c-2.3203 0-4.5469 0.92188-6.1875 2.5625s-2.5625 3.8672-2.5625 6.1875v35c0 2.3203 0.92188 4.5469 2.5625 6.1875s3.8672 2.5625 6.1875 2.5625h5.125l6.1875 6.1875c1.6406 1.6406 3.8672 2.5625 6.1875 2.5625h17.5c2.3203 0 4.5469-0.92188 6.1875-2.5625l6.1875-6.1875h45.25l6.1875 6.1875c1.6406 1.6406 3.8672 2.5625 6.1875 2.5625h17.5c2.3203 0 4.5469-0.92188 6.1875-2.5625l6.1875-6.1875h5.125c2.3203 0 4.5469-0.92188 6.1875-2.5625s2.5625-3.8672 2.5625-6.1875v-35c0-2.3203-0.92188-4.5469-2.5625-6.1875s-3.8672-2.5625-6.1875-2.5625h-17.5v-61.25h218.75c6.9609-0.007812 13.633-2.7773 18.555-7.6953 4.918-4.9219 7.6875-11.594 7.6953-18.555v-245c-0.007812-6.9609-2.7773-13.633-7.6953-18.555-4.9219-4.918-11.594-7.6875-18.555-7.6953h-350c-6.9609 0.007812-13.633 2.7773-18.555 7.6953-4.918 4.9219-7.6875 11.594-7.6953 18.555v245c0.007812 6.9609 2.7773 13.633 7.6953 18.555 4.9219 4.918 11.594 7.6875 18.555 7.6953zm140 96.25h-122.5v-17.5h122.5zm-26.25-35h-70v-61.25h26.25v26.25c0 4.832 3.918 8.75 8.75 8.75s8.75-3.918 8.75-8.75v-26.25h26.25zm-122.5-332.5c0.003906-4.832 3.918-8.7461 8.75-8.75h350c4.832 0.003906 8.7461 3.918 8.75 8.75v245c-0.003906 4.832-3.918 8.7461-8.75 8.75h-350c-4.832-0.003906-8.7461-3.918-8.75-8.75z"/>
  <path d="m131.25 332.5h315c2.3203 0 4.5469-0.92188 6.1875-2.5625s2.5625-3.8672 2.5625-6.1875v-210c0-2.3203-0.92188-4.5469-2.5625-6.1875s-3.8672-2.5625-6.1875-2.5625h-315c-2.3203 0-4.5469 0.92188-6.1875 2.5625s-2.5625 3.8672-2.5625 6.1875v210c0 2.3203 0.92188 4.5469 2.5625 6.1875s3.8672 2.5625 6.1875 2.5625zm8.75-210h297.5v192.5h-297.5z"/>
  <path d="m166.25 140c0 4.832-3.918 8.75-8.75 8.75s-8.75-3.918-8.75-8.75 3.918-8.75 8.75-8.75 8.75 3.918 8.75 8.75"/>
  <path d="m192.5 140c0 4.832-3.918 8.75-8.75 8.75s-8.75-3.918-8.75-8.75 3.918-8.75 8.75-8.75 8.75 3.918 8.75 8.75"/>
  <path d="m218.75 140c0 4.832-3.918 8.75-8.75 8.75s-8.75-3.918-8.75-8.75 3.918-8.75 8.75-8.75 8.75 3.918 8.75 8.75"/>
  <path d="m323.75 201.25c0-2.9258-1.4609-5.6562-3.8984-7.2812l-52.5-35c-2.6836-1.7891-6.1367-1.957-8.9805-0.43359-2.8438 1.5234-4.6211 4.4883-4.6211 7.7148v70c0 3.2266 1.7773 6.1914 4.6211 7.7148 2.8438 1.5234 6.2969 1.3555 8.9805-0.43359l52.5-35c2.4375-1.625 3.8984-4.3555 3.8984-7.2812zm-52.5 18.648v-37.297l27.977 18.648z"/>
  <path d="m227.5 253.75c-5.4258 0.007812-10.719 1.6914-15.148 4.8242-4.4297 3.1328-7.7812 7.5625-9.5977 12.676h-36.504v17.5h36.504c2.1523 6.0781 6.4648 11.152 12.113 14.258 5.6523 3.1016 12.25 4.0156 18.531 2.5664 6.2852-1.4492 11.812-5.1562 15.535-10.422s5.3789-11.715 4.6484-18.121-3.793-12.32-8.6016-16.617c-4.8086-4.293-11.031-6.6641-17.48-6.6641zm0 35c-3.5391 0-6.7305-2.1328-8.082-5.4023-1.3555-3.2695-0.60938-7.0312 1.8945-9.5352s6.2656-3.25 9.5352-1.8945c3.2695 1.3516 5.4023 4.543 5.4023 8.082-0.003906 4.832-3.918 8.7461-8.75 8.75z"/>
  <path d="m271.25 271.25h140v17.5h-140z"/>
  <path d="m603.75 428.75h-8.75v-35c0-2.3203-0.92188-4.5469-2.5625-6.1875s-3.8672-2.5625-6.1875-2.5625h-15.93c1.9414-21.453-5.707-42.668-20.895-57.949l-9.4883-9.4883c-2.5039-2.5039-6.2656-3.25-9.5352-1.8984-3.2695 1.3555-5.4023 4.5469-5.4023 8.0859-0.066406 24.051-12.68 46.324-33.266 58.758l-4.2617 2.5586-0.003906-0.003906c-16.688 0.81641-31.996 9.5273-41.219 23.461-9.7148-14.684-26.145-23.516-43.75-23.523h-96.25c-2.3203 0-4.5469 0.92188-6.1875 2.5625s-2.5625 3.8672-2.5625 6.1875v35h-8.75c-2.3203 0-4.5469 0.92188-6.1875 2.5625s-2.5625 3.8672-2.5625 6.1875v26.25c0 2.3203 0.92188 4.5469 2.5625 6.1875s3.8672 2.5625 6.1875 2.5625h102.35l2.2031 1.4688c15.68 10.453 34.102 16.031 52.945 16.031s37.266-5.5781 52.945-16.031l2.2031-1.4688h102.35c2.3203 0 4.5469-0.92188 6.1875-2.5625s2.5625-3.8672 2.5625-6.1875v-26.25c0-2.3203-0.92188-4.5469-2.5625-6.1875s-3.8672-2.5625-6.1875-2.5625zm-63.453-85.777c9.75 11.703 14.246 26.902 12.434 42.027h-35.93c11.637-11.516 19.781-26.082 23.496-42.027zm-50.297 59.527h87.5v26.25h-87.5c-1.7266 0-3.418 0.51172-4.8516 1.4688l-11.688 7.793h-0.003907c-5.5742 3.7227-11.859 6.2617-18.457 7.4531v-7.9648c0.011719-9.2812 3.7031-18.176 10.262-24.738 6.5625-6.5586 15.457-10.25 24.738-10.262zm-175 0h87.5c9.2812 0.011719 18.176 3.7031 24.738 10.262 6.5586 6.5625 10.25 15.457 10.262 24.738v7.9648c-6.5977-1.1914-12.879-3.7305-18.457-7.4531l-11.688-7.793h-0.003907c-1.4336-0.95703-3.125-1.4688-4.8516-1.4688h-87.5zm280 52.5h-96.25c-1.7266 0-3.418 0.51172-4.8516 1.4688l-4.4102 2.9375v0.003906c-12.805 8.5352-27.848 13.09-43.238 13.09s-30.434-4.5547-43.238-13.094l-4.4102-2.9375c-1.4336-0.95703-3.125-1.4688-4.8516-1.4688h-96.25v-8.75h102.35l9.4844 6.3242c10.93 7.2852 23.777 11.176 36.914 11.176s25.984-3.8906 36.914-11.176l9.4844-6.3242h102.35z"/>
  <use x="70" y="576.40625" xlink:href="#t"/>
  <use x="74.011719" y="576.40625" xlink:href="#b"/>
  <use x="76.710938" y="576.40625" xlink:href="#a"/>
  <use x="80.417969" y="576.40625" xlink:href="#f"/>
  <use x="84.109375" y="576.40625" xlink:href="#c"/>
  <use x="86.722656" y="576.40625" xlink:href="#a"/>
  <use x="90.433594" y="576.40625" xlink:href="#l"/>
  <use x="96.25" y="576.40625" xlink:href="#k"/>
  <use x="100.167969" y="576.40625" xlink:href="#j"/>
  <use x="105.636719" y="576.40625" xlink:href="#e"/>
  <use x="109.644531" y="576.40625" xlink:href="#a"/>
  <use x="113.351562" y="576.40625" xlink:href="#i"/>
  <use x="117.246094" y="576.40625" xlink:href="#s"/>
  <use x="121.183594" y="576.40625" xlink:href="#h"/>
  <use x="126.882812" y="576.40625" xlink:href="#f"/>
  <use x="130.574219" y="576.40625" xlink:href="#r"/>
  <use x="133.828125" y="576.40625" xlink:href="#g"/>
  <use x="137.722656" y="576.40625" xlink:href="#a"/>
  <use x="141.429688" y="576.40625" xlink:href="#b"/>
  <use x="70" y="581.875" xlink:href="#q"/>
  <use x="72.378906" y="581.875" xlink:href="#b"/>
  <use x="75.078125" y="581.875" xlink:href="#d"/>
  <use x="78.832031" y="581.875" xlink:href="#h"/>
  <use x="86.4375" y="581.875" xlink:href="#c"/>
  <use x="89.050781" y="581.875" xlink:href="#g"/>
  <use x="92.941406" y="581.875" xlink:href="#a"/>
  <use x="98.554688" y="581.875" xlink:href="#p"/>
  <use x="103.132812" y="581.875" xlink:href="#d"/>
  <use x="106.890625" y="581.875" xlink:href="#o"/>
  <use x="110.785156" y="581.875" xlink:href="#i"/>
  <use x="116.582031" y="581.875" xlink:href="#e"/>
  <use x="120.589844" y="581.875" xlink:href="#b"/>
  <use x="123.285156" y="581.875" xlink:href="#d"/>
  <use x="127.042969" y="581.875" xlink:href="#n"/>
  <use x="128.917969" y="581.875" xlink:href="#a"/>
  <use x="132.625" y="581.875" xlink:href="#m"/>
  <use x="135.867188" y="581.875" xlink:href="#c"/>
 </g>
</svg>
