<svg width="1526" height="1035" viewBox="0 0 1526 1035" fill="none" xmlns="http://www.w3.org/2000/svg">
<path d="M129.614 103.989L125.114 863.707" stroke="#82D64E" stroke-width="3" stroke-linecap="round"/>
<path d="M122.63 861.192L1384.66 868.666" stroke="#8864D6" stroke-width="3" stroke-linecap="round"/>
<path d="M128.981 860.743C707.283 806.583 1308.98 794.483 1335.91 200.879" stroke="#D97272" stroke-width="11" stroke-linecap="round"/>
<path d="M451.302 335.091C450.662 335.087 450.152 334.785 449.771 334.186C449.434 333.544 449.268 332.775 449.273 331.879C449.281 330.471 449.377 328.743 449.56 326.696L449.698 325.033L449.846 321.642C449.855 320.149 449.725 316.82 449.457 311.655C449.189 306.491 449.059 303.162 449.068 301.669C449.069 301.541 449.07 301.306 449.072 300.965C449.117 300.581 449.142 300.005 449.146 299.237C449.194 298.384 449.222 297.339 449.229 296.102C449.247 292.987 449.046 291.002 448.624 290.146C448.368 290.145 447.813 290.205 446.959 290.328L445.166 290.446C444.612 290.442 444.122 290.29 443.697 289.989C443.272 289.645 443.062 289.217 443.065 288.705C443.068 288.193 443.582 287.748 444.609 287.37C446.105 286.867 448.646 286.519 452.231 286.327C453.682 286.251 454.557 286.213 454.856 286.215C455.368 286.218 455.836 286.391 456.261 286.735C456.685 287.079 456.896 287.507 456.893 288.019C456.89 288.531 456.695 288.957 456.309 289.296C455.966 289.592 455.517 289.739 454.963 289.736L453.811 289.665C453.47 289.62 453.086 289.597 452.66 289.594L452.02 289.59C452.301 292.493 452.435 295.118 452.421 297.465L452.333 301.56C452.283 302.797 452.253 304.184 452.244 305.72C452.232 307.768 452.303 310.222 452.456 313.081C452.649 316.624 452.741 319.078 452.733 320.443C452.723 322.064 452.797 323.985 452.955 326.204C453.112 328.467 453.186 330.387 453.177 331.966C453.164 334.056 452.539 335.098 451.302 335.091ZM466.519 334.669C462.807 334.647 460.955 333.996 460.962 332.716C460.968 331.692 461.633 331.184 462.955 331.192L463.659 331.196L464.299 331.264C464.64 331.266 464.876 331.16 465.005 330.948C465.134 330.735 465.2 330.352 465.204 329.797C465.208 329.072 465.172 327.941 465.096 326.404C464.974 325.38 464.835 323.544 464.68 320.898C464.335 314.368 464.172 309.439 464.192 306.111C464.199 304.916 464.227 303.828 464.275 302.847L464.359 299.583C464.367 298.175 464.31 297.002 464.187 296.062C463.504 296.229 463.013 296.311 462.714 296.31C461.69 296.304 461.181 295.789 461.187 294.765C461.19 294.253 461.513 293.806 462.155 293.426C462.797 293.046 463.61 292.774 464.592 292.609C466.301 292.277 467.816 292.116 469.139 292.124C469.651 292.127 470.076 292.321 470.415 292.707C470.797 293.051 470.987 293.457 470.984 293.927C470.981 294.396 470.83 294.8 470.529 295.14C470.271 295.48 469.929 295.648 469.502 295.646C469.246 295.644 469.033 295.622 468.862 295.578L468.35 295.575C467.924 295.572 467.603 295.677 467.389 295.889C467.217 296.059 467.13 296.4 467.126 296.912C467.102 301.05 467.321 307.281 467.784 315.604C467.86 317.14 468.017 319.403 468.256 322.391C468.457 324.355 468.552 326.361 468.54 328.409L468.526 330.841C468.782 330.8 469.209 330.781 469.806 330.784C471.598 330.795 472.489 331.547 472.481 333.04L472.478 333.424L470.872 334.503C470.829 334.502 470.68 334.523 470.424 334.564C470.21 334.563 469.784 334.56 469.144 334.556C467.778 334.634 466.903 334.671 466.519 334.669ZM495.226 335.095C494.714 335.092 494.331 334.962 494.077 334.704C493.822 334.404 493.633 333.912 493.509 333.229L493.133 332.01L493.133 331.882L493.134 331.69C493.143 330.282 491.699 325.474 488.804 317.265C485.951 309.055 483.704 302.983 482.064 299.048L481.873 331.24L482.126 331.689C482.168 331.775 482.253 331.925 482.38 332.139C482.506 332.353 482.569 332.567 482.568 332.78C482.565 333.335 482.37 333.803 481.984 334.184C481.597 334.566 481.127 334.755 480.572 334.752C479.207 334.744 478.532 333.439 478.547 330.836L478.548 319.892C478.525 316.606 478.525 312.937 478.549 308.884C478.557 307.518 478.633 305.535 478.777 302.933C478.92 300.246 478.996 298.262 479.004 296.982C479.016 294.977 479.793 293.403 481.336 292.26L481.334 292.644C481.59 292.56 481.761 292.518 481.846 292.519C482.828 292.525 484.055 294.239 485.528 297.661C486.706 300.398 487.756 303.285 488.677 306.32C489.64 309.355 490.894 313.672 492.44 319.27L493.066 321.578C494.027 325.04 494.759 327.519 495.262 329.015C496.17 319.847 496.661 309.012 496.735 296.511L496.74 295.679C496.699 295.423 496.679 295.145 496.681 294.847C496.688 293.567 497.204 292.93 498.228 292.936C498.825 292.939 499.272 293.177 499.568 293.648C499.906 294.119 500.074 294.718 500.069 295.443L500.041 300.243C499.917 306.813 499.618 313.937 499.146 321.614C498.674 329.291 498.136 333.619 497.533 334.597C496.294 334.931 495.525 335.097 495.226 335.095ZM513.623 335.908C512.898 335.904 512.303 335.431 511.839 334.489C512.314 333.596 512.57 329.971 512.608 323.614C512.617 322.12 512.519 320.498 512.316 318.748L512.135 316.891C512.014 315.738 511.955 314.863 511.959 314.266L511.969 312.602C511.549 311.532 510.771 309.544 509.636 306.636C508.544 303.728 507.662 301.291 506.991 299.324C506.194 297.058 505.798 295.519 505.803 294.709L505.805 294.389L507.283 293.31C508.008 293.399 508.77 294.342 509.57 296.139C510.244 297.722 510.977 299.988 511.77 302.936C512.606 305.885 513.023 307.445 513.022 307.616C513.196 307.147 513.547 305.55 514.075 302.822C514.603 300.094 515.193 297.687 515.846 295.6C516.583 293.514 517.336 292.473 518.104 292.478C518.531 292.48 518.893 292.61 519.19 292.868C519.53 293.126 519.698 293.447 519.696 293.831C519.683 296.007 519.068 299.075 517.85 303.036C516.544 307.338 515.886 310.449 515.874 312.369L515.76 331.632C515.743 334.491 515.031 335.916 513.623 335.908ZM541.131 336.007C540.577 336.003 540.066 335.808 539.599 335.422C539.174 335.035 538.942 334.564 538.903 334.01L538.913 332.346L538.92 331.066C538.88 330.681 538.861 330.233 538.864 329.721C538.87 328.825 538.814 327.46 538.697 325.624L538.593 321.527C538.605 319.437 538.688 316.323 538.84 312.185C539.033 308.474 539.137 305.36 539.152 302.842C539.155 302.245 539.096 301.349 538.976 300.153C538.855 298.915 538.796 298.019 538.799 297.464C538.817 294.435 539.722 292.926 541.514 292.936C542.922 292.945 544.542 293.232 546.373 293.797C548.247 294.363 549.182 295.03 549.178 295.798C549.175 296.224 548.981 296.629 548.594 297.01C548.251 297.35 547.823 297.624 547.309 297.835C545.521 297.184 543.902 296.748 542.453 296.526C542.492 297.166 542.508 298.084 542.501 299.278C542.491 300.985 542.46 302.521 542.41 303.886C542.269 305.933 542.196 307.469 542.19 308.493L542.376 309.518L543.401 309.46C543.742 309.419 544.169 309.4 544.681 309.403C546.729 309.415 547.749 310.019 547.742 311.213C547.739 311.683 547.545 312.087 547.159 312.426C546.773 312.722 546.282 312.869 545.684 312.865C544.916 312.861 544.319 312.815 543.893 312.727L542.293 312.717C542.372 313.827 542.405 315.449 542.392 317.582C542.38 319.715 542.347 321.635 542.294 323.341C542.151 325.943 542.075 327.884 542.068 329.164C542.054 331.553 542.089 332.748 542.175 332.749L544.287 332.697C545.012 332.659 545.887 332.643 546.911 332.649C548.533 332.659 549.34 333.175 549.334 334.199C549.331 334.797 549.051 335.243 548.494 335.538C547.98 335.877 547.339 336.044 546.571 336.039L541.131 336.007ZM557.72 335.849C557.08 335.845 556.314 335.521 555.422 334.875C555.784 331.336 556.094 325.898 556.35 318.561C556.609 310.925 556.785 306.339 556.88 304.803L556.889 303.267C557.084 299.087 557.187 296.186 557.196 294.565C557.2 293.968 557.437 293.5 557.909 293.161C558.423 292.823 559 292.656 559.64 292.66C561.133 292.668 562.732 292.806 564.437 293.072C565.546 293.249 566.419 293.532 567.056 293.92C567.737 294.308 568.075 294.779 568.072 295.334C568.065 296.528 566.974 297.119 564.798 297.106C563.989 296.675 562.881 296.455 561.473 296.447L560.705 296.442L560.701 297.21C560.691 298.874 560.593 300.985 560.407 303.544C560.18 305.932 560.06 308.086 560.049 310.006L560.039 311.734L560.551 311.737L561.191 311.741C563.281 311.753 564.323 312.314 564.317 313.424C564.314 313.978 564.076 314.425 563.605 314.763C563.176 315.102 562.642 315.27 562.002 315.266C560.978 315.26 560.147 315.148 559.508 314.931L559.401 333.043C559.39 334.92 558.829 335.856 557.72 335.849ZM573.528 335.943C572.888 335.939 572.122 335.614 571.229 334.969C571.592 331.43 571.901 325.991 572.158 318.654C572.417 311.018 572.593 306.433 572.688 304.897L572.697 303.361C572.892 299.181 572.995 296.28 573.004 294.659C573.008 294.061 573.245 293.594 573.717 293.255C574.231 292.917 574.808 292.749 575.448 292.753C576.941 292.762 578.54 292.9 580.245 293.166C581.353 293.343 582.226 293.625 582.864 294.013C583.545 294.401 583.883 294.873 583.88 295.427C583.873 296.622 582.781 297.213 580.605 297.2C579.797 296.768 578.689 296.548 577.281 296.54L576.513 296.536L576.509 297.304C576.499 298.968 576.401 301.079 576.215 303.638C575.988 306.026 575.868 308.18 575.857 310.1L575.847 311.828L576.359 311.831L576.999 311.835C579.089 311.847 580.131 312.408 580.125 313.517C580.121 314.072 579.884 314.519 579.413 314.857C578.984 315.196 578.45 315.363 577.81 315.36C576.786 315.354 575.954 315.242 575.316 315.025L575.208 333.137C575.197 335.014 574.637 335.949 573.528 335.943ZM595.485 336.713C594.375 336.706 593.353 336.337 592.419 335.606C591.484 334.918 590.722 333.975 590.132 332.777C588.91 330.167 588.159 327.325 587.878 324.251C587.511 321.348 587.336 318.552 587.352 315.864C587.355 315.352 587.379 314.926 587.423 314.585L587.43 313.433C587.432 313.219 587.411 313.112 587.368 313.112L587.375 311.96L587.466 307.481C587.516 306.116 587.7 303.941 588.016 300.956C588.242 298.909 588.744 296.928 589.523 295.013C589.827 294.161 590.215 293.523 590.687 293.099C591.159 292.633 591.694 292.401 592.291 292.405C593.998 292.415 595.532 292.744 596.893 293.392C598.255 293.998 599.402 294.858 600.334 295.973C601.181 297.044 601.898 298.371 602.486 299.953C603.075 301.493 603.492 303.138 603.737 304.889C603.983 306.682 604.099 308.582 604.087 310.587L604.084 311.099C604.077 312.422 604.091 313.617 604.127 314.683L604.17 318.332C604.097 330.62 601.202 336.747 595.485 336.713ZM595.244 334.023C596.012 334.028 596.718 333.733 597.362 333.14C598.006 332.504 598.501 331.653 598.849 330.588C599.672 328.417 600.177 326.074 600.363 323.557C600.589 321.383 600.707 319.506 600.716 317.927C600.727 316.007 600.593 313.489 600.313 310.373C600.076 307.086 599.963 304.632 599.972 303.011L599.979 301.859C599.903 300.237 599.357 298.826 598.34 297.625C597.366 296.424 596.153 295.82 594.703 295.811C593.252 295.803 592.287 296.629 591.808 298.29C591.374 299.61 591.15 301.316 591.138 303.406C591.133 304.217 591.15 304.9 591.19 305.455L591.179 307.183L591.034 310.126C590.943 311.021 590.895 312.002 590.888 313.069C590.875 315.373 590.925 317.656 591.04 319.918C591.192 323.119 591.6 326.236 592.265 329.269C592.929 332.431 593.922 334.015 595.244 334.023ZM622.259 336.743C621.321 336.738 620.473 335.709 619.718 333.656C618.835 331.432 618.187 329.146 617.774 326.796L617.339 324.618C616.138 318.509 615.369 315.027 615.033 314.172L614.265 314.167C614.258 315.405 614.23 316.535 614.181 317.559L614.16 321.079C614.126 326.796 614.505 331.257 615.297 334.462L614.582 336.186L612.791 336.175L611.964 335.21L612.054 330.923C612.076 327.083 611.919 321.258 611.581 313.448C611.289 305.126 611.153 299.301 611.173 295.973C611.185 293.925 611.895 292.905 613.303 292.913C615.607 292.927 617.48 293.535 618.924 294.739C620.41 295.942 621.147 297.611 621.134 299.744L621.108 304.224C621.104 304.864 620.993 305.61 620.775 306.462C620.557 307.271 620.318 307.931 620.059 308.442L618.829 310.738L617.794 312.652L618.105 314.19L618.974 318.739C619.552 322.028 620.112 324.698 620.654 326.75C621.197 328.801 621.869 330.661 622.669 332.33L623.049 333.1C623.471 333.956 623.68 334.64 623.677 335.152C623.674 335.578 623.544 335.94 623.286 336.237C623.028 336.577 622.686 336.746 622.259 336.743ZM614.539 311.033C615.481 310.569 616.278 309.294 616.93 307.207C617.625 305.078 617.978 303.117 617.989 301.325C617.997 299.96 617.834 298.679 617.5 297.482C617.29 296.798 616.931 296.284 616.421 295.94C615.954 295.553 615.358 295.358 614.632 295.353L614.502 295.673L614.371 296.248L614.454 303.8C614.526 306.02 614.555 308.43 614.539 311.033ZM633.531 334.698L633.481 332.202C633.443 331.476 633.427 330.665 633.432 329.769L633.509 327.594C633.383 327.124 633.091 322.45 632.632 313.572C632.172 304.695 631.907 298.997 631.837 296.479C629.363 296.379 627.786 296.114 627.106 295.683C626.638 295.339 626.406 294.954 626.408 294.527C626.41 294.186 626.626 293.888 627.054 293.635C627.525 293.339 627.995 293.192 628.464 293.195C629.659 293.202 631.109 293.296 632.815 293.477C634.435 293.7 635.885 293.815 637.165 293.823L637.677 293.826L638.189 293.829C639.511 293.837 640.17 294.353 640.164 295.377C640.161 295.889 639.945 296.314 639.516 296.653C639.088 296.949 638.596 297.095 638.041 297.092C637.657 297.09 637.103 297.022 636.379 296.89L635.1 296.627L635.034 296.946L634.968 297.266C634.946 301.063 635.273 307.124 635.949 315.448C636.585 323.26 636.891 329.32 636.865 333.63C636.862 334.142 636.625 334.588 636.153 334.969C635.724 335.351 635.232 335.54 634.678 335.537L633.531 334.698ZM660.942 336.716C660.387 336.713 659.876 336.518 659.409 336.131C658.985 335.745 658.753 335.274 658.713 334.719L658.723 333.055L658.731 331.775C658.691 331.391 658.672 330.943 658.675 330.431C658.68 329.535 658.624 328.169 658.507 326.334L658.403 322.237C658.416 320.146 658.498 317.032 658.651 312.894C658.843 309.183 658.947 306.069 658.962 303.552C658.966 302.955 658.907 302.058 658.786 300.863C658.665 299.625 658.607 298.728 658.61 298.174C658.628 295.145 659.533 293.635 661.325 293.646C662.733 293.654 664.352 293.941 666.184 294.507C668.058 295.072 668.992 295.739 668.988 296.507C668.985 296.934 668.791 297.338 668.405 297.72C668.061 298.059 667.633 298.334 667.12 298.544C665.332 297.894 663.713 297.457 662.264 297.235C662.302 297.876 662.318 298.793 662.311 299.988C662.301 301.694 662.271 303.23 662.22 304.595C662.08 306.643 662.007 308.178 662.001 309.202L662.187 310.227L663.211 310.169C663.553 310.129 663.979 310.11 664.491 310.113C666.539 310.125 667.56 310.728 667.553 311.923C667.55 312.392 667.355 312.797 666.969 313.136C666.584 313.432 666.092 313.578 665.495 313.575C664.727 313.57 664.13 313.524 663.704 313.436L662.104 313.427C662.182 314.537 662.215 316.158 662.203 318.291C662.19 320.425 662.157 322.345 662.105 324.051C661.961 326.653 661.886 328.594 661.878 329.874C661.864 332.263 661.9 333.458 661.985 333.458L664.097 333.407C664.823 333.369 665.698 333.352 666.722 333.358C668.343 333.368 669.151 333.885 669.145 334.909C669.141 335.506 668.861 335.953 668.305 336.248C667.791 336.586 667.15 336.753 666.382 336.749L660.942 336.716ZM688.794 336.625C687.813 336.619 687.088 336.466 686.621 336.164C686.153 335.863 685.922 335.307 685.927 334.496C685.934 333.216 685.734 331.039 685.325 327.965L685.077 326.619L678.747 325.622C678.485 326.601 678.111 328.583 677.624 331.567C677.356 333.656 676.942 335.04 676.383 335.72C676.082 336.102 675.655 336.291 675.1 336.288C674.588 336.285 674.12 336.133 673.695 335.832C673.27 335.488 673.059 335.081 673.062 334.612L673.192 334.293L673.257 334.037C676.138 323.089 678.335 312.286 679.849 301.628C679.85 301.457 679.873 301.18 679.918 300.796C679.963 300.37 680.01 299.773 680.057 299.005C680.194 297.427 680.33 296.169 680.463 295.231C680.639 294.294 680.9 293.591 681.244 293.124L683.42 293.137C684.017 293.14 684.528 293.293 684.953 293.594C685.378 293.852 685.589 294.238 685.586 294.75C685.567 297.992 685.986 302.816 686.844 309.221C687.659 315.797 688.058 320.407 688.043 323.053C688.041 323.309 688.144 323.97 688.351 325.038C688.558 326.021 688.661 326.662 688.659 326.96C688.658 327.259 688.863 328.54 689.277 330.804C689.649 332.854 689.833 334.178 689.829 334.775L689.829 334.839C689.823 335.778 689.478 336.373 688.794 336.625ZM684.643 324.312C684.519 323.672 684.46 322.882 684.465 321.943C684.488 318.103 684.176 313.195 683.528 307.218L682.928 300.558C681.034 310.573 679.73 318.139 679.017 323.255C679.655 323.686 681.53 324.038 684.643 324.312ZM703.885 337.035C702.946 337.029 701.945 336.874 700.88 336.569C699.857 336.307 699.07 336.003 698.517 335.659C695.669 333.807 694.27 328.786 694.318 320.594L694.328 318.866L694.34 316.882L694.349 315.346C694.359 313.639 694.39 312.125 694.44 310.802C694.491 309.437 694.585 307.966 694.722 306.388C694.86 304.725 695.06 303.382 695.322 302.359C695.585 301.294 696.018 300.102 696.623 298.783C697.143 297.549 697.767 296.592 698.496 295.914C699.268 295.236 700.253 294.666 701.451 294.203C702.52 293.74 703.844 293.514 705.423 293.523C706.063 293.527 706.553 293.679 706.892 293.98C707.232 294.28 707.4 294.665 707.397 295.135C707.395 295.561 707.243 295.944 706.942 296.284C706.684 296.624 706.363 296.814 705.979 296.854L702.971 296.836C702.118 296.831 701.368 297.36 700.722 298.423C700.075 299.486 699.619 300.87 699.353 302.575C698.78 305.729 698.487 308.287 698.476 310.25L698.474 310.57L698.309 316.713C698.213 318.547 698.158 320.616 698.145 322.92C698.135 324.542 698.191 325.865 698.313 326.889C698.517 328.427 698.872 329.709 699.378 330.736C699.883 331.891 700.753 332.728 701.987 333.247C702.626 333.507 703.329 333.639 704.097 333.644C704.566 333.647 705.037 333.479 705.508 333.14C706.063 333.143 706.51 333.274 706.85 333.532C707.233 333.748 707.423 334.09 707.42 334.56C707.41 336.223 706.232 337.049 703.885 337.035ZM724.453 336.26C723.002 336.252 722.298 332.728 722.34 325.688L722.425 322.04L722.507 319.097L722.508 318.905L722.512 318.265C722.556 317.924 722.58 317.518 722.583 317.049C722.583 316.964 722.52 316.857 722.393 316.728C722.265 316.599 722.202 316.492 722.203 316.407L722.203 316.343C721.989 316.427 721.605 316.467 721.05 316.464C720.496 316.461 719.813 316.371 719.004 316.196C718.748 316.152 718.066 316.041 716.958 315.864L716.914 323.224C716.907 324.333 716.961 326.083 717.075 328.473C717.189 330.82 717.243 332.57 717.236 333.722C717.232 334.362 717.058 334.915 716.714 335.383C716.37 335.85 715.921 336.082 715.366 336.079C714.555 336.074 713.984 335.281 713.652 333.7C713.32 332.077 713.162 329.964 713.177 327.361L713.336 322.178C713.387 320.728 713.418 319.192 713.427 317.571L713.434 316.483L713.439 315.587C713.443 314.904 713.425 314.456 713.383 314.242L713.385 313.922L713.599 310.212C713.609 308.59 713.559 306.179 713.45 302.979C713.341 299.778 713.291 297.367 713.301 295.746C713.304 295.234 713.477 294.787 713.821 294.405C714.164 294.023 714.592 293.833 715.104 293.836C716.469 293.844 717.144 295.128 717.129 297.688L716.954 305.623C716.855 308.012 716.796 310.679 716.779 313.623C717.418 313.84 718.569 313.953 720.233 313.963L722.601 313.977C722.688 313.722 722.732 313.466 722.733 313.21C722.746 311.162 722.636 308.132 722.403 304.12C722.127 300.363 721.996 297.312 722.009 294.965C722.012 294.496 722.185 294.113 722.528 293.816C722.914 293.477 723.363 293.309 723.875 293.312C724.174 293.314 724.6 293.423 725.153 293.64L725.728 293.899C725.692 299.958 725.857 308.044 726.224 318.159L726.704 334.354C726.701 334.951 726.463 335.419 725.992 335.758C725.563 336.096 725.05 336.264 724.453 336.26ZM748.109 336.785C747 336.778 746.462 333.98 746.495 328.391L746.683 318.28C746.743 315.293 746.784 311.944 746.806 308.232C746.814 306.867 746.699 304.754 746.46 301.894C746.265 298.778 746.17 296.879 746.174 296.196C746.177 295.642 746.414 295.152 746.886 294.729C747.358 294.305 747.871 294.094 748.426 294.098C749.919 294.106 751.347 294.456 752.708 295.147C754.112 295.795 755.344 296.72 756.404 297.921C758.649 300.537 760.126 303.404 760.833 306.523C761.207 308.104 761.39 309.663 761.381 311.199C761.378 311.753 761.353 312.265 761.308 312.734L761.234 314.462L761.213 317.982C761.197 320.712 761.099 322.867 760.919 324.444C760.65 326.576 760.148 328.472 759.413 330.131C758.549 331.918 757.302 333.511 755.673 334.909C754.901 335.545 753.916 336.179 752.717 336.812L748.109 336.785ZM750.945 333.537C751.798 333.542 752.588 333.334 753.316 332.911C754.044 332.446 754.667 331.831 755.183 331.066C755.614 330.386 756.003 329.535 756.35 328.513C756.741 327.449 757.024 326.426 757.201 325.446C757.596 323.528 757.842 321.567 757.939 319.562C757.985 319.051 758.011 318.304 758.017 317.323C758.093 304.438 755.637 297.703 750.648 297.119C750.338 299.037 750.176 301.255 750.161 303.772C750.145 306.46 750.288 311.154 750.589 317.855C750.853 323.787 750.974 328.503 750.954 332.001L750.945 333.537ZM780.793 337.17C779.811 337.164 779.087 337.011 778.619 336.709C778.152 336.408 777.92 335.852 777.925 335.041C777.933 333.761 777.732 331.584 777.324 328.509L777.076 327.164L770.746 326.166C770.484 327.146 770.109 329.128 769.622 332.112C769.354 334.201 768.94 335.585 768.382 336.265C768.081 336.647 767.653 336.836 767.098 336.833C766.586 336.83 766.118 336.678 765.693 336.377C765.268 336.033 765.057 335.626 765.06 335.157L765.19 334.838L765.256 334.582C768.137 323.634 770.334 312.83 771.848 302.172C771.849 302.002 771.872 301.725 771.917 301.341C771.962 300.914 772.008 300.317 772.055 299.55C772.193 297.972 772.328 296.714 772.462 295.776C772.638 294.838 772.898 294.136 773.242 293.669L775.418 293.681C776.015 293.685 776.526 293.837 776.951 294.139C777.377 294.397 777.588 294.782 777.585 295.294C777.565 298.537 777.985 303.361 778.843 309.766C779.657 316.342 780.057 320.952 780.041 323.597C780.039 323.853 780.142 324.515 780.349 325.583C780.557 326.566 780.66 327.206 780.658 327.505C780.656 327.804 780.862 329.085 781.275 331.349C781.647 333.399 781.831 334.723 781.828 335.32L781.827 335.384C781.822 336.323 781.477 336.918 780.793 337.17ZM776.641 324.857C776.517 324.217 776.458 323.427 776.463 322.488C776.486 318.648 776.174 313.74 775.527 307.762L774.926 301.103C773.032 311.118 771.729 318.684 771.016 323.8C771.653 324.23 773.528 324.583 776.641 324.857ZM792.555 337.56C791.83 337.555 791.236 337.083 790.772 336.141C791.246 335.248 791.503 331.623 791.54 325.266C791.549 323.772 791.452 322.15 791.249 320.4L791.068 318.543C790.947 317.39 790.888 316.515 790.892 315.918L790.901 314.254C790.481 313.184 789.704 311.196 788.569 308.288C787.477 305.38 786.595 302.943 785.924 300.976C785.127 298.71 784.731 297.171 784.735 296.361L784.737 296.041L786.216 294.961C786.94 295.051 787.703 295.994 788.503 297.791C789.176 299.374 789.909 301.639 790.703 304.588C791.539 307.537 791.956 309.097 791.955 309.268C792.128 308.799 792.479 307.201 793.007 304.474C793.536 301.746 794.126 299.339 794.778 297.252C795.516 295.166 796.269 294.125 797.037 294.13C797.463 294.132 797.825 294.262 798.122 294.52C798.462 294.778 798.631 295.099 798.629 295.483C798.616 297.659 798 300.727 796.782 304.688C795.477 308.99 794.818 312.101 794.807 314.021L794.693 333.284C794.676 336.143 793.963 337.568 792.555 337.56ZM829.729 337.46C828.748 337.454 828.023 337.3 827.556 336.999C827.088 336.698 826.857 336.142 826.862 335.331C826.869 334.051 826.669 331.874 826.26 328.799L826.012 327.454L819.682 326.456C819.42 327.436 819.046 329.418 818.559 332.402C818.291 334.491 817.877 335.875 817.318 336.554C817.017 336.937 816.59 337.126 816.035 337.123C815.523 337.12 815.055 336.968 814.63 336.666C814.205 336.323 813.994 335.916 813.997 335.447L814.127 335.127L814.192 334.872C817.073 323.923 819.271 313.12 820.784 302.462C820.785 302.292 820.808 302.014 820.853 301.631C820.898 301.204 820.945 300.607 820.992 299.839C821.129 298.262 821.265 297.004 821.398 296.066C821.574 295.128 821.835 294.426 822.179 293.958L824.355 293.971C824.952 293.975 825.463 294.127 825.888 294.428C826.313 294.687 826.524 295.072 826.521 295.584C826.502 298.827 826.921 303.651 827.779 310.056C828.594 316.631 828.993 321.242 828.978 323.887C828.976 324.143 829.079 324.805 829.286 325.873C829.493 326.856 829.596 327.496 829.594 327.795C829.593 328.094 829.798 329.375 830.212 331.639C830.584 333.689 830.768 335.013 830.764 335.61L830.764 335.674C830.758 336.613 830.413 337.208 829.729 337.46ZM825.578 325.147C825.454 324.506 825.395 323.717 825.4 322.778C825.423 318.938 825.111 314.029 824.463 308.052L823.863 301.393C821.969 311.408 820.665 318.974 819.952 324.09C820.59 324.52 822.465 324.873 825.578 325.147ZM838.295 337.319C837.186 337.312 836.648 334.514 836.681 328.925L836.869 318.814C836.929 315.827 836.97 312.478 836.992 308.766C837 307.401 836.885 305.288 836.646 302.428C836.451 299.312 836.356 297.413 836.36 296.73C836.363 296.176 836.6 295.687 837.072 295.263C837.544 294.839 838.057 294.628 838.612 294.632C840.105 294.641 841.533 294.99 842.894 295.681C844.298 296.329 845.53 297.254 846.59 298.455C848.835 301.071 850.312 303.939 851.019 307.057C851.393 308.638 851.576 310.197 851.567 311.733C851.564 312.287 851.539 312.799 851.494 313.268L851.42 314.996L851.399 318.516C851.383 321.247 851.285 323.401 851.105 324.978C850.836 327.11 850.334 329.006 849.599 330.665C848.735 332.452 847.488 334.045 845.858 335.443C845.087 336.079 844.102 336.713 842.903 337.346L838.295 337.319ZM841.13 334.071C841.984 334.076 842.774 333.868 843.502 333.445C844.23 332.98 844.853 332.365 845.369 331.6C845.8 330.92 846.189 330.069 846.536 329.047C846.927 327.983 847.21 326.961 847.387 325.98C847.782 324.063 848.028 322.101 848.125 320.097C848.171 319.585 848.197 318.838 848.203 317.857C848.279 304.972 845.823 298.237 840.834 297.653C840.524 299.571 840.362 301.789 840.347 304.306C840.331 306.994 840.474 311.688 840.775 318.389C841.039 324.321 841.16 329.037 841.14 332.535L841.13 334.071ZM860.42 337.45C859.311 337.443 858.772 334.645 858.806 329.056L858.993 318.945C859.054 315.959 859.095 312.609 859.117 308.897C859.125 307.532 859.009 305.419 858.77 302.559C858.576 299.443 858.48 297.544 858.484 296.861C858.487 296.307 858.725 295.818 859.197 295.394C859.669 294.97 860.182 294.759 860.737 294.763C862.23 294.772 863.657 295.121 865.018 295.812C866.423 296.46 867.655 297.385 868.714 298.586C870.96 301.202 872.436 304.07 873.143 307.188C873.518 308.769 873.701 310.328 873.692 311.864C873.688 312.418 873.664 312.93 873.618 313.399L873.544 315.127L873.523 318.647C873.507 321.378 873.409 323.532 873.229 325.109C872.961 327.241 872.459 329.137 871.723 330.796C870.859 332.583 869.613 334.176 867.983 335.574C867.211 336.21 866.226 336.844 865.028 337.477L860.42 337.45ZM863.255 334.202C864.108 334.207 864.899 333.999 865.627 333.576C866.355 333.111 866.977 332.496 867.494 331.731C867.925 331.051 868.314 330.2 868.661 329.178C869.051 328.114 869.335 327.092 869.511 326.111C869.907 324.194 870.153 322.232 870.25 320.228C870.296 319.716 870.321 318.969 870.327 317.988C870.404 305.103 867.947 298.368 862.959 297.784C862.649 299.702 862.486 301.92 862.471 304.437C862.455 307.125 862.598 311.819 862.9 318.52C863.164 324.452 863.285 329.168 863.264 332.666L863.255 334.202ZM881.645 338.087C880.878 337.955 880.219 337.674 879.666 337.244C879.157 336.814 878.862 336.258 878.78 335.574L879.491 334.491C879.747 334.492 880.152 334.58 880.705 334.754C881.344 334.886 881.835 334.952 882.176 334.954C882.944 334.959 883.629 334.622 884.23 333.943C884.874 333.264 885.349 332.371 885.654 331.263C886.221 329.218 886.509 327.385 886.518 325.764C886.535 322.948 885.657 319.977 883.883 316.852L883.186 315.632C882.384 314.219 881.709 312.957 881.161 311.844C880.613 310.731 880.15 309.534 879.774 308.252C879.272 306.585 879.026 304.919 879.036 303.255C879.047 301.378 879.485 299.418 880.351 297.375C880.783 296.396 881.385 295.61 882.156 295.018C882.971 294.382 883.869 294.068 884.85 294.074C885.618 294.078 886.321 294.338 886.958 294.854C887.637 295.327 887.975 295.905 887.971 296.588C887.969 296.972 887.818 297.27 887.518 297.481C887.218 297.693 886.855 297.797 886.428 297.795C885.959 297.792 885.512 297.662 885.086 297.403C884.148 297.44 883.396 298.268 882.832 299.886C882.354 301.376 882.112 302.612 882.106 303.593C882.098 304.831 882.283 306.091 882.659 307.373C883.036 308.612 883.52 309.746 884.111 310.773L885.504 313.342L887.719 317.579C888.309 318.777 888.77 320.167 889.102 321.747C889.477 323.328 889.659 324.929 889.65 326.551C889.634 329.153 889.022 331.624 887.814 333.964C887.21 335.155 886.351 336.11 885.237 336.829C884.166 337.548 882.969 337.903 881.647 337.895L881.645 338.087ZM911.588 336.345L911.539 333.848C911.501 333.123 911.484 332.312 911.489 331.416L911.566 329.24C911.441 328.77 911.149 324.096 910.689 315.219C910.23 306.341 909.965 300.644 909.895 298.126C907.42 298.026 905.843 297.761 905.163 297.33C904.696 296.986 904.464 296.6 904.466 296.174C904.468 295.832 904.683 295.535 905.111 295.282C905.582 294.986 906.053 294.839 906.522 294.842C907.717 294.849 909.167 294.943 910.872 295.124C912.492 295.347 913.942 295.462 915.222 295.469L915.734 295.472L916.246 295.476C917.569 295.483 918.227 295.999 918.221 297.023C918.218 297.535 918.002 297.961 917.574 298.299C917.145 298.596 916.654 298.742 916.099 298.739C915.715 298.736 915.161 298.669 914.436 298.537L913.158 298.273L913.092 298.593L913.026 298.913C913.003 302.71 913.33 308.77 914.006 317.095C914.643 324.907 914.948 330.967 914.923 335.276C914.92 335.788 914.682 336.235 914.211 336.616C913.782 336.998 913.29 337.187 912.735 337.183L911.588 336.345ZM931.854 338.705C930.744 338.698 929.723 338.329 928.788 337.599C927.854 336.91 927.091 335.967 926.501 334.769C925.279 332.159 924.528 329.317 924.247 326.243C923.881 323.34 923.705 320.544 923.721 317.856C923.724 317.344 923.748 316.918 923.793 316.577L923.799 315.425C923.801 315.211 923.78 315.104 923.737 315.104L923.744 313.952L923.835 309.473C923.885 308.108 924.069 305.933 924.385 302.948C924.611 300.901 925.113 298.92 925.892 297.005C926.196 296.153 926.584 295.515 927.056 295.092C927.528 294.625 928.063 294.393 928.66 294.397C930.367 294.407 931.901 294.736 933.262 295.384C934.624 295.99 935.771 296.85 936.703 297.965C937.55 299.036 938.267 300.363 938.855 301.946C939.444 303.485 939.861 305.13 940.106 306.881C940.352 308.675 940.468 310.574 940.457 312.579L940.453 313.091C940.446 314.414 940.46 315.609 940.496 316.676L940.539 320.324C940.466 332.612 937.571 338.739 931.854 338.705ZM931.614 336.015C932.382 336.02 933.087 335.725 933.731 335.132C934.375 334.496 934.87 333.645 935.218 332.581C936.042 330.409 936.546 328.066 936.732 325.549C936.958 323.375 937.076 321.498 937.085 319.919C937.096 317.999 936.962 315.481 936.682 312.365C936.445 309.078 936.332 306.624 936.341 305.003L936.348 303.851C936.272 302.229 935.726 300.818 934.709 299.617C933.735 298.416 932.523 297.812 931.072 297.803C929.621 297.795 928.656 298.621 928.177 300.282C927.743 301.602 927.519 303.308 927.507 305.398C927.502 306.209 927.519 306.892 927.559 307.447L927.548 309.175L927.403 312.118C927.312 313.013 927.264 313.994 927.258 315.061C927.244 317.365 927.294 319.648 927.409 321.91C927.561 325.111 927.969 328.228 928.634 331.262C929.298 334.423 930.291 336.007 931.614 336.015ZM496.374 416.423C495.179 416.416 494.093 416.196 493.114 415.764C492.135 415.289 491.307 414.686 490.629 413.957C490.077 413.356 489.571 412.479 489.108 411.324C488.646 410.169 488.311 409.058 488.104 407.99C487.895 407.178 487.732 406.004 487.613 404.467C487.494 402.93 487.416 401.607 487.38 400.498L487.402 396.786L487.417 394.226C487.432 391.751 487.487 389.725 487.581 388.147C487.678 386.227 487.967 384.202 488.449 382.072C488.845 380.154 489.516 378.472 490.463 377.027C491.368 375.582 492.632 374.587 494.257 374.042C495.027 373.748 495.924 373.604 496.948 373.61C498.782 373.621 499.696 374.159 499.69 375.226C499.687 375.738 499.471 376.163 499.042 376.502C498.657 376.799 498.186 376.945 497.632 376.942C497.376 376.94 497.141 376.918 496.928 376.874C496.758 376.83 496.545 376.807 496.289 376.806C495.563 376.802 494.921 377.182 494.362 377.947C493.803 378.711 493.327 379.775 492.935 381.138C492.237 383.779 491.75 386.657 491.476 389.77C491.288 392.67 491.19 394.824 491.181 396.232C491.173 397.683 491.225 399.667 491.338 402.185C491.495 404.533 491.846 406.583 492.39 408.335C492.682 409.361 493.019 410.195 493.399 410.837C493.822 411.437 494.352 411.952 494.99 412.383C495.712 412.856 496.458 413.096 497.226 413.1C499.274 413.112 500.318 409.705 500.358 402.878L500.376 399.935C500.078 399.805 499.588 399.738 498.905 399.734L498.329 399.73L497.625 399.726C496.132 399.717 495.388 399.222 495.394 398.241C495.397 397.644 495.592 397.197 495.978 396.9C496.406 396.562 496.941 396.394 497.581 396.398L497.58 396.462L498.476 396.467C502.316 396.49 504.232 397.163 504.224 398.485C504.222 398.869 504.111 399.637 503.891 400.787C503.629 401.81 503.496 402.577 503.493 403.089C503.489 403.814 503.546 404.945 503.665 406.482L503.773 409.875C503.761 411.923 503.026 413.54 501.568 414.726C500.153 415.869 498.422 416.435 496.374 416.423ZM521.375 417.147C520.436 417.142 519.589 416.113 518.833 414.06C517.951 411.836 517.303 409.55 516.89 407.2L516.455 405.022C515.254 398.913 514.485 395.431 514.149 394.576L513.381 394.571C513.373 395.809 513.345 396.939 513.297 397.963L513.276 401.483C513.242 407.2 513.621 411.661 514.413 414.866L513.698 416.59L511.906 416.579L511.08 415.614L511.169 411.327C511.192 407.487 511.035 401.662 510.697 393.852C510.405 385.53 510.269 379.705 510.288 376.377C510.301 374.329 511.011 373.309 512.419 373.317C514.723 373.331 516.596 373.939 518.04 375.143C519.526 376.346 520.263 378.015 520.25 380.148L520.224 384.628C520.22 385.268 520.109 386.014 519.89 386.866C519.672 387.675 519.434 388.335 519.175 388.846L517.945 391.142L516.91 393.056L517.221 394.594L518.09 399.143C518.668 402.432 519.228 405.102 519.77 407.153C520.313 409.205 520.984 411.065 521.785 412.734L522.165 413.504C522.586 414.36 522.796 415.044 522.793 415.556C522.79 415.982 522.66 416.344 522.402 416.641C522.144 416.981 521.802 417.15 521.375 417.147ZM513.655 391.437C514.597 390.973 515.394 389.698 516.046 387.611C516.741 385.482 517.094 383.521 517.105 381.729C517.113 380.364 516.95 379.083 516.616 377.886C516.406 377.202 516.047 376.688 515.537 376.344C515.07 375.957 514.473 375.762 513.748 375.757L513.618 376.077L513.487 376.652L513.57 384.204C513.642 386.424 513.671 388.834 513.655 391.437ZM531.995 416.954C531.441 416.951 530.93 416.756 530.463 416.369C530.039 415.982 529.807 415.512 529.767 414.957L529.777 413.293L529.785 412.013C529.744 411.629 529.726 411.181 529.729 410.669C529.734 409.773 529.678 408.407 529.561 406.571L529.457 402.475C529.47 400.384 529.552 397.27 529.705 393.132C529.897 389.421 530.001 386.307 530.016 383.79C530.019 383.192 529.961 382.296 529.84 381.101C529.719 379.863 529.66 378.966 529.664 378.412C529.682 375.382 530.587 373.873 532.379 373.884C533.787 373.892 535.406 374.179 537.238 374.744C539.112 375.31 540.046 375.977 540.042 376.745C540.039 377.172 539.845 377.576 539.459 377.958C539.115 378.297 538.687 378.572 538.174 378.782C536.385 378.131 534.767 377.695 533.317 377.473C533.356 378.113 533.372 379.031 533.365 380.226C533.355 381.932 533.324 383.468 533.274 384.833C533.134 386.88 533.061 388.416 533.054 389.44L533.24 390.465L534.265 390.407C534.606 390.366 535.033 390.348 535.545 390.351C537.593 390.363 538.613 390.966 538.606 392.161C538.604 392.63 538.409 393.034 538.023 393.373C537.637 393.67 537.146 393.816 536.549 393.813C535.781 393.808 535.184 393.762 534.757 393.674L533.157 393.665C533.236 394.774 533.269 396.396 533.257 398.529C533.244 400.663 533.211 402.582 533.159 404.289C533.015 406.891 532.94 408.832 532.932 410.111C532.918 412.501 532.953 413.696 533.039 413.696L535.151 413.645C535.877 413.606 536.751 413.59 537.775 413.596C539.397 413.606 540.204 414.123 540.198 415.147C540.195 415.744 539.915 416.19 539.358 416.486C538.844 416.824 538.203 416.991 537.435 416.986L531.995 416.954ZM559.848 416.863C558.867 416.857 558.142 416.704 557.675 416.402C557.207 416.101 556.976 415.545 556.981 414.734C556.988 413.454 556.788 411.277 556.379 408.202L556.131 406.857L549.801 405.859C549.539 406.839 549.165 408.821 548.678 411.805C548.409 413.894 547.996 415.278 547.437 415.957C547.136 416.34 546.708 416.529 546.154 416.526C545.642 416.523 545.173 416.371 544.748 416.07C544.324 415.726 544.113 415.319 544.116 414.85L544.246 414.531L544.311 414.275C547.192 403.326 549.389 392.523 550.903 381.865C550.904 381.695 550.927 381.418 550.972 381.034C551.017 380.607 551.063 380.01 551.111 379.243C551.248 377.665 551.383 376.407 551.517 375.469C551.693 374.531 551.953 373.829 552.297 373.362L554.473 373.374C555.071 373.378 555.582 373.53 556.007 373.832C556.432 374.09 556.643 374.475 556.64 374.987C556.621 378.23 557.04 383.054 557.898 389.459C558.713 396.035 559.112 400.645 559.096 403.29C559.095 403.546 559.198 404.208 559.405 405.276C559.612 406.259 559.715 406.899 559.713 407.198C559.711 407.497 559.917 408.778 560.33 411.042C560.702 413.092 560.887 414.416 560.883 415.013L560.883 415.077C560.877 416.016 560.532 416.611 559.848 416.863ZM555.697 404.55C555.573 403.909 555.513 403.12 555.519 402.181C555.542 398.341 555.229 393.433 554.582 387.455L553.982 380.796C552.087 390.811 550.784 398.377 550.071 403.493C550.708 403.923 552.584 404.276 555.697 404.55ZM569.958 415.323L569.909 412.827C569.871 412.101 569.854 411.29 569.859 410.394L569.936 408.219C569.811 407.749 569.519 403.075 569.059 394.197C568.6 385.32 568.335 379.622 568.265 377.104C565.79 377.004 564.213 376.739 563.533 376.308C563.066 375.964 562.834 375.579 562.836 375.152C562.838 374.811 563.053 374.513 563.481 374.26C563.952 373.964 564.423 373.817 564.892 373.82C566.087 373.827 567.537 373.921 569.242 374.102C570.862 374.325 572.312 374.44 573.592 374.448L574.104 374.451L574.616 374.454C575.939 374.462 576.597 374.977 576.591 376.001C576.588 376.513 576.372 376.939 575.944 377.278C575.515 377.574 575.024 377.72 574.469 377.717C574.085 377.715 573.531 377.647 572.806 377.515L571.528 377.251L571.462 377.571L571.396 377.891C571.374 381.688 571.7 387.749 572.376 396.073C573.013 403.885 573.318 409.945 573.293 414.255C573.29 414.767 573.052 415.213 572.581 415.594C572.152 415.976 571.66 416.165 571.105 416.162L569.958 415.323ZM605.624 417.646C604.685 417.641 603.838 416.612 603.082 414.559C602.199 412.335 601.551 410.049 601.139 407.699L600.703 405.521C599.502 399.412 598.733 395.93 598.397 395.075L597.629 395.07C597.622 396.308 597.594 397.438 597.545 398.462L597.524 401.982C597.49 407.699 597.869 412.16 598.661 415.365L597.947 417.089L596.155 417.078L595.329 416.113L595.418 411.826C595.441 407.986 595.283 402.161 594.945 394.35C594.653 386.029 594.517 380.204 594.537 376.876C594.549 374.828 595.259 373.808 596.667 373.816C598.971 373.83 600.845 374.438 602.288 375.642C603.775 376.845 604.511 378.514 604.499 380.647L604.472 385.127C604.468 385.767 604.357 386.513 604.139 387.365C603.921 388.174 603.682 388.834 603.423 389.345L602.194 391.641L601.158 393.555L601.469 395.093L602.338 399.642C602.916 402.931 603.476 405.601 604.019 407.652C604.561 409.704 605.233 411.564 606.034 413.232L606.413 414.003C606.835 414.859 607.044 415.542 607.041 416.054C607.039 416.481 606.908 416.843 606.651 417.14C606.393 417.48 606.05 417.649 605.624 417.646ZM597.904 391.936C598.845 391.472 599.642 390.197 600.294 388.11C600.99 385.981 601.343 384.02 601.353 382.228C601.361 380.863 601.198 379.582 600.864 378.385C600.655 377.701 600.295 377.187 599.785 376.843C599.318 376.456 598.722 376.261 597.997 376.256L597.867 376.575L597.735 377.151L597.819 384.703C597.891 386.922 597.919 389.333 597.904 391.936ZM616.244 417.453C615.689 417.45 615.178 417.255 614.711 416.868C614.287 416.481 614.055 416.011 614.016 415.456L614.026 413.792L614.033 412.512C613.993 412.128 613.974 411.679 613.977 411.167C613.982 410.271 613.927 408.906 613.809 407.07L613.706 402.974C613.718 400.883 613.801 397.769 613.953 393.631C614.146 389.92 614.249 386.806 614.264 384.289C614.268 383.691 614.209 382.795 614.088 381.6C613.968 380.362 613.909 379.465 613.912 378.911C613.93 375.881 614.835 374.372 616.627 374.383C618.035 374.391 619.655 374.678 621.486 375.243C623.36 375.809 624.295 376.476 624.29 377.244C624.288 377.671 624.093 378.075 623.707 378.457C623.364 378.796 622.935 379.071 622.422 379.281C620.634 378.63 619.015 378.194 617.566 377.972C617.605 378.612 617.621 379.53 617.614 380.724C617.603 382.431 617.573 383.967 617.522 385.332C617.382 387.379 617.309 388.915 617.303 389.939L617.489 390.964L618.513 390.906C618.855 390.865 619.282 390.847 619.794 390.85C621.842 390.862 622.862 391.465 622.855 392.66C622.852 393.129 622.658 393.533 622.272 393.872C621.886 394.169 621.394 394.315 620.797 394.312C620.029 394.307 619.432 394.261 619.006 394.173L617.406 394.163C617.485 395.273 617.518 396.895 617.505 399.028C617.493 401.161 617.46 403.081 617.407 404.788C617.264 407.39 617.188 409.33 617.181 410.61C617.166 413 617.202 414.195 617.287 414.195L619.4 414.144C620.125 414.105 621 414.089 622.024 414.095C623.645 414.105 624.453 414.622 624.447 415.646C624.443 416.243 624.163 416.689 623.607 416.985C623.093 417.323 622.452 417.49 621.684 417.485L616.244 417.453ZM632.639 417.614C631.872 417.482 631.212 417.2 630.66 416.77C630.15 416.341 629.855 415.784 629.774 415.101L630.484 414.017C630.74 414.019 631.145 414.107 631.699 414.28C632.338 414.412 632.828 414.479 633.169 414.481C633.937 414.486 634.622 414.148 635.223 413.469C635.867 412.79 636.342 411.897 636.647 410.79C637.214 408.745 637.502 406.912 637.512 405.291C637.529 402.475 636.65 399.504 634.877 396.379L634.18 395.159C633.378 393.746 632.702 392.483 632.154 391.371C631.606 390.258 631.144 389.061 630.767 387.778C630.265 386.111 630.019 384.446 630.029 382.782C630.04 380.905 630.478 378.945 631.344 376.902C631.776 375.923 632.378 375.137 633.15 374.544C633.964 373.909 634.862 373.594 635.844 373.6C636.612 373.605 637.314 373.865 637.951 374.381C638.631 374.854 638.969 375.432 638.965 376.115C638.962 376.499 638.811 376.797 638.511 377.008C638.211 377.22 637.848 377.324 637.422 377.322C636.952 377.319 636.505 377.188 636.08 376.93C635.141 376.967 634.389 377.794 633.825 379.412C633.347 380.903 633.105 382.139 633.099 383.12C633.092 384.358 633.276 385.617 633.653 386.9C634.029 388.139 634.513 389.273 635.105 390.3L636.497 392.869L638.712 397.106C639.303 398.304 639.764 399.693 640.096 401.274C640.47 402.855 640.653 404.456 640.643 406.077C640.628 408.68 640.016 411.151 638.807 413.491C638.203 414.682 637.344 415.637 636.23 416.355C635.159 417.074 633.963 417.43 632.64 417.422L632.639 417.614ZM654.147 417.805C653.123 417.799 652.207 417.559 651.399 417.085C650.591 416.654 649.933 416.01 649.426 415.153C648.413 413.355 647.764 411.325 647.478 409.062C647.191 407.097 647.056 404.75 647.072 402.019C646.971 397.411 646.941 391.778 646.98 385.122L646.945 380.194C646.904 379.938 646.885 379.511 646.889 378.914C646.813 377.292 646.776 376.31 646.778 375.969C647.168 375.075 647.618 374.63 648.13 374.633C648.642 374.636 649.088 375.023 649.467 375.793C649.889 376.564 650.098 377.397 650.093 378.293L649.989 395.7C649.979 397.407 650.115 399.669 650.397 402.487C650.675 405.987 650.811 408.25 650.805 409.274C650.786 412.431 652.121 414.017 654.809 414.033C657.881 414.052 659.485 402.583 659.621 379.629L659.642 376.045L659.645 375.469C659.603 375.341 659.583 375.17 659.584 374.957C659.587 374.445 659.696 374.083 659.911 373.871C660.168 373.616 660.638 373.491 661.321 373.495C661.876 373.498 662.301 373.672 662.598 374.015C662.938 374.315 663.149 374.679 663.232 375.107C663.273 375.363 663.291 375.854 663.287 376.579C663.283 377.262 663.212 378.349 663.076 379.842C662.898 381.078 662.806 382.144 662.801 383.04C662.795 384.021 662.747 384.896 662.657 385.663L662.513 388.351L662.51 388.862C662.552 389.033 662.572 389.226 662.571 389.439C662.459 408.383 659.65 417.838 654.147 417.805ZM680.279 418.024C678.746 417.503 676.849 417.236 674.587 417.223C673.902 417.645 673.176 417.854 672.408 417.85C671.896 417.847 671.449 417.609 671.068 417.138C670.729 416.709 670.561 416.239 670.564 415.727C670.585 412.143 670.763 407.365 671.097 401.394C671.391 395.038 671.547 390.281 671.566 387.124L671.568 386.676C671.328 383.987 671.212 381.981 671.22 380.658C671.244 376.605 672.003 374.582 673.496 374.591C673.922 374.594 674.284 374.767 674.581 375.11C674.92 375.41 675.089 375.774 675.086 376.201C675.083 376.713 675.015 377.523 674.88 378.632C674.746 379.697 674.677 380.508 674.674 381.062C674.657 383.921 674.663 386.502 674.692 388.807C674.721 391.068 674.727 393.628 674.71 396.487C674.493 397.126 674.381 398.021 674.374 399.173L674.37 399.941L674.212 404.996C674.118 406.489 674.065 408.195 674.053 410.115C674.036 413.059 674.731 414.535 676.139 414.544C676.225 414.544 676.353 414.545 676.523 414.546C676.737 414.505 677.014 414.485 677.356 414.487C677.74 414.446 678.231 414.428 678.828 414.432C681.132 414.445 682.28 415.092 682.273 416.372C682.27 416.799 682.076 417.16 681.69 417.457C681.304 417.753 680.834 417.942 680.279 418.024ZM691.144 416.041L691.094 413.544C691.056 412.819 691.04 412.008 691.045 411.112L691.122 408.936C690.997 408.466 690.704 403.792 690.245 394.915C689.785 386.037 689.52 380.34 689.45 377.822C686.976 377.722 685.399 377.457 684.719 377.026C684.251 376.682 684.019 376.296 684.021 375.87C684.023 375.528 684.239 375.231 684.667 374.977C685.138 374.682 685.608 374.535 686.077 374.538C687.272 374.545 688.722 374.639 690.428 374.82C692.048 375.043 693.498 375.158 694.778 375.165L695.29 375.168L695.802 375.171C697.124 375.179 697.783 375.695 697.777 376.719C697.774 377.231 697.558 377.657 697.129 377.995C696.701 378.291 696.209 378.438 695.654 378.435C695.27 378.432 694.716 378.365 693.992 378.233L692.713 377.969L692.647 378.289L692.581 378.608C692.559 382.406 692.886 388.466 693.562 396.791C694.198 404.602 694.504 410.663 694.478 414.972C694.475 415.484 694.238 415.931 693.766 416.312C693.337 416.694 692.845 416.883 692.291 416.879L691.144 416.041ZM705.075 418.043C704.308 417.911 703.648 417.629 703.096 417.199C702.587 416.77 702.291 416.213 702.21 415.53L702.92 414.446C703.176 414.448 703.581 414.536 704.135 414.709C704.774 414.841 705.264 414.908 705.606 414.91C706.374 414.915 707.058 414.577 707.66 413.898C708.304 413.219 708.778 412.326 709.084 411.219C709.65 409.174 709.939 407.341 709.948 405.72C709.965 402.904 709.086 399.933 707.313 396.808L706.616 395.588C705.814 394.175 705.139 392.912 704.59 391.8C704.042 390.687 703.58 389.49 703.204 388.207C702.702 386.54 702.455 384.875 702.465 383.211C702.476 381.334 702.915 379.374 703.78 377.331C704.213 376.352 704.815 375.566 705.586 374.973C706.401 374.338 707.298 374.023 708.28 374.029C709.048 374.034 709.75 374.294 710.387 374.81C711.067 375.283 711.405 375.861 711.401 376.544C711.399 376.928 711.248 377.226 710.948 377.437C710.648 377.649 710.284 377.753 709.858 377.751C709.388 377.748 708.941 377.617 708.516 377.359C707.577 377.396 706.826 378.223 706.261 379.841C705.783 381.332 705.541 382.568 705.535 383.549C705.528 384.787 705.713 386.046 706.089 387.329C706.466 388.568 706.95 389.702 707.541 390.729L708.934 393.297L711.149 397.535C711.739 398.733 712.2 400.122 712.532 401.703C712.907 403.284 713.089 404.885 713.08 406.506C713.064 409.109 712.452 411.58 711.244 413.92C710.639 415.111 709.78 416.066 708.667 416.784C707.596 417.503 706.399 417.859 705.076 417.851L705.075 418.043ZM741.278 418.385C739.745 417.864 737.848 417.597 735.586 417.584C734.901 418.006 734.175 418.215 733.407 418.211C732.895 418.208 732.448 417.971 732.067 417.499C731.728 417.07 731.56 416.6 731.563 416.088C731.584 412.504 731.762 407.726 732.096 401.755C732.39 395.399 732.546 390.643 732.565 387.485L732.567 387.037C732.327 384.348 732.211 382.342 732.219 381.019C732.243 376.966 733.001 374.944 734.495 374.953C734.921 374.955 735.283 375.128 735.58 375.471C735.919 375.772 736.088 376.135 736.085 376.562C736.082 377.074 736.013 377.884 735.879 378.993C735.745 380.059 735.676 380.869 735.672 381.424C735.656 384.282 735.662 386.864 735.691 389.168C735.72 391.429 735.726 393.99 735.709 396.848C735.492 397.487 735.38 398.382 735.373 399.534L735.369 400.302L735.211 405.357C735.117 406.85 735.064 408.557 735.052 410.476C735.035 413.42 735.73 414.897 737.138 414.905C737.224 414.905 737.352 414.906 737.522 414.907C737.736 414.866 738.013 414.846 738.355 414.848C738.739 414.808 739.23 414.789 739.827 414.793C742.131 414.806 743.279 415.453 743.271 416.733C743.269 417.16 743.075 417.521 742.689 417.818C742.303 418.114 741.833 418.303 741.278 418.385ZM761.157 418.055C760.176 418.049 759.451 417.896 758.984 417.594C758.516 417.293 758.285 416.737 758.29 415.926C758.297 414.646 758.097 412.469 757.688 409.395L757.44 408.049L751.11 407.052C750.848 408.031 750.474 410.013 749.987 412.997C749.718 415.086 749.305 416.47 748.746 417.15C748.445 417.532 748.017 417.721 747.463 417.718C746.951 417.715 746.482 417.563 746.057 417.262C745.633 416.918 745.422 416.511 745.425 416.042L745.555 415.723L745.62 415.467C748.501 404.519 750.698 393.716 752.212 383.058C752.213 382.887 752.236 382.61 752.281 382.226C752.326 381.8 752.372 381.203 752.42 380.435C752.557 378.857 752.692 377.599 752.826 376.661C753.002 375.724 753.262 375.021 753.606 374.554L755.782 374.567C756.38 374.57 756.891 374.723 757.316 375.024C757.741 375.282 757.952 375.667 757.949 376.179C757.93 379.422 758.349 384.246 759.207 390.651C760.022 397.227 760.421 401.837 760.405 404.483C760.404 404.739 760.507 405.4 760.714 406.468C760.921 407.451 761.024 408.092 761.022 408.39C761.02 408.689 761.226 409.97 761.639 412.234C762.011 414.284 762.195 415.608 762.192 416.205L762.192 416.269C762.186 417.208 761.841 417.803 761.157 418.055ZM757.006 405.742C756.882 405.102 756.822 404.312 756.828 403.373C756.851 399.533 756.538 394.625 755.891 388.648L755.29 381.988C753.396 392.003 752.093 399.569 751.38 404.685C752.017 405.116 753.893 405.468 757.006 405.742ZM771.267 416.515L771.218 414.019C771.18 413.293 771.163 412.482 771.168 411.586L771.245 409.411C771.12 408.941 770.828 404.267 770.368 395.389C769.909 386.512 769.644 380.814 769.574 378.296C767.099 378.196 765.522 377.931 764.842 377.5C764.375 377.156 764.143 376.771 764.145 376.344C764.147 376.003 764.362 375.705 764.79 375.452C765.261 375.156 765.732 375.01 766.201 375.012C767.396 375.019 768.846 375.113 770.551 375.294C772.171 375.517 773.621 375.632 774.901 375.64L775.413 375.643L775.925 375.646C777.248 375.654 777.906 376.17 777.9 377.194C777.897 377.706 777.681 378.131 777.253 378.47C776.824 378.766 776.333 378.912 775.778 378.909C775.394 378.907 774.84 378.84 774.115 378.707L772.837 378.444L772.771 378.763L772.705 379.083C772.682 382.88 773.009 388.941 773.685 397.265C774.322 405.077 774.627 411.138 774.602 415.447C774.599 415.959 774.361 416.405 773.89 416.787C773.461 417.168 772.969 417.357 772.414 417.354L771.267 416.515ZM786.991 418.464C786.436 418.461 785.925 418.266 785.458 417.879C785.034 417.493 784.802 417.022 784.763 416.467L784.773 414.803L784.78 413.523C784.74 413.139 784.721 412.691 784.724 412.179C784.73 411.283 784.674 409.917 784.556 408.082L784.453 403.985C784.465 401.894 784.548 398.78 784.7 394.642C784.893 390.931 784.996 387.817 785.011 385.3C785.015 384.703 784.956 383.806 784.835 382.611C784.715 381.373 784.656 380.476 784.659 379.922C784.677 376.892 785.582 375.383 787.374 375.394C788.782 375.402 790.402 375.689 792.233 376.255C794.107 376.82 795.042 377.487 795.037 378.255C795.035 378.682 794.84 379.086 794.454 379.468C794.111 379.807 793.682 380.082 793.169 380.292C791.381 379.642 789.762 379.205 788.313 378.983C788.352 379.624 788.368 380.541 788.361 381.736C788.35 383.442 788.32 384.978 788.269 386.343C788.129 388.39 788.056 389.926 788.05 390.95L788.236 391.975L789.26 391.917C789.602 391.877 790.029 391.858 790.541 391.861C792.589 391.873 793.609 392.476 793.602 393.671C793.599 394.14 793.405 394.544 793.019 394.883C792.633 395.18 792.141 395.326 791.544 395.323C790.776 395.318 790.179 395.272 789.753 395.184L788.153 395.175C788.232 396.284 788.265 397.906 788.252 400.039C788.24 402.173 788.207 404.092 788.154 405.799C788.011 408.401 787.935 410.342 787.928 411.622C787.913 414.011 787.949 415.206 788.034 415.206L790.147 415.155C790.872 415.116 791.747 415.1 792.771 415.106C794.392 415.116 795.2 415.633 795.194 416.657C795.19 417.254 794.91 417.7 794.354 417.996C793.84 418.334 793.199 418.501 792.431 418.496L786.991 418.464ZM813.433 418.877C812.494 418.871 811.647 417.842 810.891 415.79C810.008 413.566 809.36 411.279 808.947 408.93L808.512 406.751C807.311 400.643 806.542 397.161 806.206 396.306L805.438 396.301C805.431 397.538 805.403 398.669 805.354 399.693L805.333 403.213C805.299 408.93 805.678 413.391 806.47 416.596L805.756 418.319L803.964 418.309L803.137 417.344L803.227 413.056C803.25 409.216 803.092 403.391 802.754 395.581C802.462 387.259 802.326 381.434 802.346 378.106C802.358 376.058 803.068 375.039 804.476 375.047C806.78 375.061 808.654 375.669 810.097 376.872C811.583 378.076 812.32 379.744 812.308 381.877L812.281 386.357C812.277 386.997 812.166 387.743 811.948 388.595C811.73 389.405 811.491 390.065 811.232 390.575L810.002 392.872L808.967 394.786L809.278 396.324L810.147 400.873C810.725 404.162 811.285 406.832 811.828 408.883C812.37 410.934 813.042 412.794 813.843 414.463L814.222 415.233C814.644 416.089 814.853 416.773 814.85 417.285C814.847 417.712 814.717 418.074 814.46 418.371C814.202 418.711 813.859 418.879 813.433 418.877ZM805.713 393.167C806.654 392.703 807.451 391.428 808.103 389.341C808.799 387.211 809.152 385.251 809.162 383.459C809.17 382.094 809.007 380.813 808.673 379.616C808.464 378.932 808.104 378.418 807.594 378.074C807.127 377.687 806.531 377.491 805.806 377.487L805.676 377.806L805.544 378.381L805.627 385.934C805.7 388.153 805.728 390.564 805.713 393.167ZM840.282 419.164C839.172 419.157 838.151 418.789 837.216 418.058C836.282 417.369 835.519 416.426 834.929 415.228C833.707 412.618 832.956 409.776 832.675 406.703C832.309 403.799 832.133 401.003 832.149 398.315C832.152 397.803 832.176 397.377 832.221 397.036L832.228 395.884C832.229 395.67 832.208 395.564 832.165 395.563L832.172 394.411L832.263 389.932C832.314 388.567 832.497 386.392 832.813 383.407C833.039 381.36 833.541 379.379 834.321 377.464C834.624 376.612 835.012 375.975 835.484 375.551C835.956 375.084 836.491 374.853 837.088 374.856C838.795 374.866 840.329 375.195 841.69 375.843C843.052 376.449 844.199 377.309 845.131 378.424C845.978 379.496 846.696 380.822 847.284 382.405C847.872 383.944 848.289 385.589 848.534 387.34C848.78 389.134 848.897 391.033 848.885 393.038L848.882 393.55C848.874 394.873 848.888 396.068 848.924 397.135L848.967 400.783C848.894 413.071 845.999 419.198 840.282 419.164ZM840.042 416.474C840.81 416.479 841.515 416.184 842.159 415.591C842.803 414.955 843.298 414.104 843.646 413.04C844.47 410.868 844.974 408.525 845.16 406.008C845.386 403.834 845.504 401.957 845.513 400.378C845.525 398.459 845.39 395.94 845.11 392.824C844.873 389.537 844.76 387.083 844.769 385.462L844.776 384.31C844.701 382.688 844.154 381.277 843.137 380.076C842.163 378.876 840.951 378.271 839.5 378.262C838.049 378.254 837.084 379.08 836.605 380.741C836.171 382.061 835.947 383.767 835.935 385.857C835.93 386.668 835.947 387.351 835.987 387.906L835.977 389.634L835.831 392.577C835.741 393.472 835.692 394.454 835.686 395.52C835.672 397.824 835.723 400.107 835.837 402.369C835.989 405.57 836.397 408.687 837.062 411.721C837.726 414.882 838.719 416.467 840.042 416.474ZM873.334 418.336C872.822 418.333 872.439 418.202 872.184 417.945C871.93 417.645 871.741 417.153 871.617 416.469L871.24 415.251L871.241 415.123L871.242 414.931C871.25 413.523 869.807 408.714 866.911 400.505C864.059 392.296 861.812 386.224 860.171 382.289L859.98 414.48L860.234 414.93C860.276 415.015 860.36 415.165 860.487 415.379C860.614 415.593 860.677 415.807 860.675 416.021C860.672 416.575 860.477 417.043 860.091 417.425C859.705 417.807 859.234 417.996 858.68 417.993C857.314 417.985 856.639 416.679 856.655 414.077L856.656 403.133C856.632 399.847 856.633 396.178 856.657 392.124C856.665 390.759 856.741 388.775 856.884 386.174C857.028 383.486 857.104 381.503 857.111 380.223C857.123 378.218 857.9 376.643 859.443 375.501L859.441 375.885C859.697 375.801 859.868 375.759 859.954 375.76C860.935 375.765 862.162 377.479 863.635 380.901C864.814 383.639 865.863 386.525 866.784 389.56C867.747 392.595 869.002 396.912 870.547 402.511L871.174 404.819C872.135 408.28 872.867 410.759 873.37 412.256C874.277 403.088 874.768 392.253 874.842 379.752L874.847 378.92C874.806 378.664 874.786 378.386 874.788 378.087C874.796 376.807 875.312 376.171 876.336 376.177C876.933 376.18 877.379 376.417 877.675 376.889C878.014 377.36 878.181 377.958 878.177 378.684L878.148 383.483C878.024 390.053 877.726 397.177 877.254 404.855C876.782 412.532 876.244 416.859 875.641 417.837C874.401 418.171 873.632 418.337 873.334 418.336ZM891.346 419.274C890.791 419.271 890.302 419.033 889.878 418.562C889.454 418.09 889.244 417.555 889.247 416.958C889.251 416.318 889.489 415.743 889.961 415.234C890.434 414.725 890.99 414.472 891.63 414.476C892.227 414.479 892.759 414.739 893.225 415.253C893.692 415.768 893.923 416.324 893.92 416.921C893.915 417.604 893.656 418.157 893.142 418.581C892.67 419.047 892.071 419.279 891.346 419.274Z" fill="black"/>
<path d="M284.098 885.898C286.587 874.135 284.42 865.611 284.6 854.27" stroke="#383232" stroke-width="2" stroke-linecap="round"/>
<path d="M356.194 883.527C353.997 871.231 353.039 860.854 353.237 848.329" stroke="#383232" stroke-width="2" stroke-linecap="round"/>
<path d="M435.347 879.51C439.965 868.209 448.014 856.555 448.204 844.563" stroke="#383232" stroke-width="2" stroke-linecap="round"/>
<path d="M614.514 885.867L615.071 850.726" stroke="#383232" stroke-width="2" stroke-linecap="round"/>
<path d="M804.363 883.606C809.339 871.428 811.742 861.617 811.948 848.576" stroke="#383232" stroke-width="2" stroke-linecap="round"/>
<path d="M981.912 881.15C984.307 869.832 991.07 857.803 991.255 846.148" stroke="#383232" stroke-width="2" stroke-linecap="round"/>
<path d="M1120.75 881.595C1125.23 870.621 1126.42 856.572 1126.61 844.779" stroke="#383232" stroke-width="2" stroke-linecap="round"/>
<path d="M1245.34 894.116C1251.24 880.495 1259.85 865.436 1260.09 850.412" stroke="#383232" stroke-width="2" stroke-linecap="round"/>
<path d="M1319.19 891.773C1325.85 879.205 1329.59 864.502 1336.51 852.504C1337.73 850.377 1340.38 842.21 1339.33 841.124" stroke="#383232" stroke-width="2" stroke-linecap="round"/>
<path d="M98.5062 553.75C98.4933 554.56 97.9049 555.34 96.7408 556.09L96.5489 556.087C94.2858 556.179 91.7627 556.523 88.9795 557.119C86.1964 557.715 82.8326 558.601 78.8881 559.775C75.9296 560.667 73.2721 561.415 70.9156 562.017L96.1284 562.417C96.811 562.428 97.3209 562.564 97.6581 562.826C97.9534 563.044 98.0956 563.494 98.0848 564.176C98.0766 564.688 97.9209 565.091 97.6175 565.385C97.2715 565.678 96.8425 565.821 96.3306 565.813L95.8186 565.805L77.007 565.378C71.4624 565.205 65.2132 565.063 58.2594 564.953L50.3884 564.828C49.8765 564.82 49.5369 564.708 49.3696 564.492C49.1597 564.275 49.0602 563.825 49.071 563.143C49.0879 562.076 49.3168 561.099 49.7576 560.209C50.1558 559.32 50.7225 558.561 51.4579 557.932C52.9721 556.633 54.7774 555.808 56.8739 555.458C57.7298 555.301 58.7124 555.231 59.8215 555.248C60.4615 555.259 61.1644 555.334 61.9302 555.474C62.6968 555.571 63.1864 555.643 63.399 555.689C63.8243 555.781 64.4611 555.983 65.3096 556.296C66.1581 556.608 66.7097 556.809 66.9643 556.898L68.7439 557.694L70.3975 558.361C71.934 558.342 73.8791 558.117 76.233 557.685C78.5875 557.21 80.772 556.69 82.7865 556.125C84.2011 555.721 86.5597 554.99 89.8622 553.933L95.5229 552.166L95.6509 552.168C96.3762 552.18 96.9937 552.254 97.5036 552.39C98.1842 552.529 98.5184 552.982 98.5062 553.75ZM68.0339 562.1C67.4461 561.493 66.6257 560.754 65.5727 559.884L60.0847 558.837C59.872 558.791 59.5737 558.765 59.1898 558.759C57.9526 558.739 56.5197 558.951 54.8912 559.395C54.1192 559.639 53.4739 559.97 52.9552 560.388C52.3945 560.763 52.0894 561.164 52.04 561.59L58.4372 561.819C61.2934 561.993 63.5108 562.092 65.0893 562.117C66.5824 562.141 67.564 562.135 68.0339 562.1ZM98.8515 544.086C98.8427 544.641 98.6426 545.15 98.2512 545.613C97.8605 546.033 97.3875 546.26 96.8322 546.294L95.1684 546.268L93.8886 546.248C93.504 546.284 93.0557 546.298 92.5438 546.29C91.6479 546.276 90.2817 546.318 88.4452 546.417L84.3477 546.48C82.2573 546.447 79.144 546.334 75.0079 546.14C71.2991 545.911 68.1862 545.776 65.6692 545.736C65.0719 545.727 64.175 545.776 62.9785 545.885C61.7392 545.994 60.8423 546.043 60.2877 546.035C57.2588 545.987 55.7585 545.067 55.787 543.275C55.8093 541.867 56.1123 540.25 56.696 538.425C57.2804 536.556 57.9565 535.628 58.7244 535.641C59.151 535.647 59.5533 535.846 59.9311 536.236C60.267 536.582 60.5375 537.013 60.7427 537.529C60.0744 539.31 59.622 540.925 59.3857 542.372C60.0263 542.339 60.9439 542.333 62.1384 542.352C63.8449 542.379 65.3803 542.424 66.7448 542.489C68.7905 542.649 70.3253 542.737 71.3492 542.754L72.3761 542.578L72.3283 541.553C72.2911 541.211 72.2765 540.784 72.2847 540.272C72.3171 538.224 72.9306 537.21 74.1252 537.229C74.5944 537.236 74.9967 537.435 75.3319 537.824C75.6244 538.213 75.7659 538.706 75.7565 539.303C75.7443 540.071 75.6921 540.668 75.6001 541.093L75.5747 542.693C76.6852 542.625 78.307 542.608 80.4401 542.642C82.5732 542.676 84.4926 542.728 86.1984 542.797C88.7987 542.966 90.7387 543.061 92.0186 543.082C94.4076 543.119 95.6028 543.096 95.6042 543.01L95.5737 540.898C95.5425 540.172 95.5351 539.297 95.5513 538.273C95.577 536.652 96.1018 535.849 97.1257 535.866C97.7229 535.875 98.1665 536.16 98.4563 536.719C98.7895 537.236 98.95 537.879 98.9378 538.647L98.8515 544.086ZM99.1756 527.694C99.0354 528.46 98.7476 529.116 98.3122 529.664C97.8775 530.169 97.3181 530.459 96.6342 530.534L95.5575 529.813C95.5616 529.557 95.6533 529.153 95.8327 528.601C95.9709 527.963 96.0427 527.473 96.0481 527.132C96.0603 526.364 95.7298 525.676 95.0567 525.068C94.3843 524.417 93.4958 523.934 92.3914 523.618C90.3524 523.03 88.5224 522.724 86.9012 522.698C84.0856 522.654 81.1064 523.503 77.9637 525.245L76.7367 525.93C75.316 526.718 74.0467 527.38 72.9287 527.917C71.8107 528.454 70.6088 528.905 69.3228 529.268C67.6509 529.754 65.9831 529.983 64.3193 529.957C62.4422 529.927 60.4865 529.47 58.4523 528.584C57.4779 528.142 56.6981 527.532 56.113 526.755C55.486 525.934 55.1802 525.033 55.1958 524.052C55.208 523.284 55.4751 522.584 55.9972 521.952C56.4773 521.277 57.0586 520.945 57.7412 520.956C58.1252 520.962 58.4214 521.116 58.63 521.418C58.8386 521.72 58.9395 522.084 58.9327 522.511C58.9253 522.98 58.7902 523.426 58.5274 523.848C58.5552 524.788 59.3753 525.547 60.9876 526.128C62.4733 526.621 63.7067 526.875 64.688 526.891C65.9251 526.91 67.1867 526.738 68.4726 526.375C69.7159 526.01 70.8542 525.538 71.8875 524.957L74.4695 523.589L78.7285 521.417C79.9325 520.838 81.3265 520.391 82.9104 520.075C84.4949 519.716 86.0978 519.549 87.7189 519.575C90.3212 519.616 92.7861 520.253 95.1135 521.484C96.2986 522.101 97.2449 522.969 97.9526 524.09C98.6609 525.168 99.0046 526.368 98.9836 527.691L99.1756 527.694ZM99.5807 506.189C99.5645 507.213 99.3153 508.126 98.8331 508.929C98.3937 509.733 97.7433 510.384 96.8819 510.883C95.0739 511.878 93.037 512.507 90.7712 512.77C88.804 513.037 86.4553 513.15 83.725 513.106C79.1155 513.161 73.4832 513.136 66.8281 513.03L61.8997 513.016C61.643 513.055 61.2161 513.069 60.6188 513.06C58.9963 513.119 58.0144 513.146 57.6732 513.141C56.7834 512.743 56.3425 512.288 56.3506 511.776C56.3588 511.264 56.7498 510.822 57.5238 510.45C58.2985 510.036 59.1338 509.836 60.0296 509.85L77.4355 510.126C79.1419 510.153 81.4053 510.04 84.2257 509.786C87.7287 509.543 89.9921 509.429 91.016 509.445C94.1729 509.496 95.7727 508.177 95.8153 505.489C95.8641 502.417 84.4125 500.7 61.4607 500.336L57.8772 500.279L57.3013 500.27C57.1726 500.31 57.0016 500.329 56.7883 500.325C56.2764 500.317 55.9155 500.205 55.7055 499.988C55.4536 499.728 55.3331 499.257 55.3439 498.574C55.3527 498.02 55.5301 497.596 55.8761 497.303C56.1802 496.966 56.5462 496.758 56.9742 496.68C57.2308 496.641 57.7218 496.628 58.447 496.639C59.1296 496.65 60.2164 496.731 61.7075 496.883C62.942 497.073 64.0072 497.176 64.9031 497.19C65.8843 497.205 66.7582 497.262 67.5247 497.359L70.2103 497.53L70.7223 497.538C70.8936 497.498 71.0859 497.48 71.2992 497.483C90.2408 497.784 99.668 500.686 99.5807 506.189ZM100.059 480.06C99.5229 481.588 99.2368 483.482 99.2009 485.743C99.6167 486.433 99.8185 487.161 99.8063 487.929C99.7982 488.441 99.5565 488.885 99.0811 489.262C98.6491 489.596 98.1771 489.76 97.6652 489.751C94.0816 489.695 89.3059 489.469 83.3381 489.076C76.9856 488.719 72.2309 488.516 69.074 488.466L68.626 488.459C65.9343 488.672 63.9272 488.768 62.6047 488.747C58.5519 488.683 56.5373 487.904 56.561 486.411C56.5678 485.984 56.7442 485.625 57.0902 485.331C57.3942 484.995 57.7596 484.83 58.1862 484.837C58.6981 484.845 59.5077 484.922 60.6148 485.067C61.6793 485.212 62.4889 485.289 63.0435 485.298C65.9018 485.343 68.4831 485.363 70.7875 485.357C73.0492 485.35 75.6092 485.369 78.4676 485.414C79.1041 485.638 79.9983 485.759 81.1501 485.777L81.918 485.789L86.9714 485.997C88.4632 486.106 90.1689 486.176 92.0887 486.207C95.0323 486.253 96.5153 485.573 96.5376 484.165C96.539 484.08 96.541 483.952 96.5437 483.781C96.5045 483.567 96.4875 483.289 96.4929 482.948C96.4564 482.563 96.4428 482.072 96.4523 481.475C96.4888 479.171 97.147 478.03 98.4269 478.05C98.8535 478.057 99.2131 478.255 99.5056 478.643C99.7981 479.032 99.9827 479.504 100.059 480.06ZM98.1836 469.176L95.6869 469.2C94.961 469.232 94.1501 469.24 93.2542 469.226L91.0795 469.127C90.6082 469.248 85.9317 469.494 77.05 469.865C68.1683 470.236 62.4683 470.444 59.9499 470.49C59.8254 472.963 59.5444 474.537 59.1069 475.213C58.7582 475.677 58.3705 475.905 57.9439 475.899C57.6026 475.893 57.3074 475.675 57.0582 475.245C56.767 474.771 56.6251 474.299 56.6326 473.83C56.6515 472.635 56.7598 471.186 56.9576 469.482C57.1966 467.864 57.3262 466.416 57.3465 465.136L57.3547 464.624L57.3628 464.112C57.3838 462.789 57.9062 462.136 58.9301 462.153C59.442 462.161 59.8652 462.381 60.1997 462.813C60.4916 463.244 60.6331 463.737 60.6243 464.292C60.6182 464.676 60.5455 465.229 60.406 465.952L60.1297 467.228L60.4486 467.297L60.7676 467.366C64.5644 467.427 70.6281 467.16 78.9586 466.567C86.7764 466.008 92.8397 465.763 97.1485 465.831C97.6605 465.839 98.1047 466.081 98.4812 466.556C98.8584 466.989 99.0426 467.483 99.0338 468.037L98.1836 469.176ZM100.325 455.265C100.184 456.031 99.8966 456.688 99.4611 457.236C99.0264 457.741 98.4671 458.031 97.7831 458.105L96.7064 457.384C96.7105 457.128 96.8023 456.724 96.9817 456.172C97.1198 455.534 97.1916 455.045 97.197 454.704C97.2092 453.936 96.8787 453.248 96.2056 452.64C95.5332 451.989 94.6448 451.505 93.5403 451.189C91.5014 450.602 89.6713 450.296 88.0502 450.27C85.2345 450.225 82.2554 451.074 79.1127 452.817L77.8857 453.501C76.465 454.289 75.1956 454.952 74.0777 455.489C72.9597 456.026 71.7577 456.476 70.4718 456.84C68.7999 457.326 67.132 457.555 65.4682 457.529C63.5911 457.499 61.6355 457.041 59.6013 456.155C58.6268 455.713 57.8471 455.104 57.262 454.326C56.6349 453.505 56.3292 452.604 56.3447 451.623C56.3569 450.855 56.6241 450.155 57.1461 449.524C57.6262 448.849 58.2076 448.516 58.8902 448.527C59.2741 448.533 59.5704 448.687 59.7789 448.989C59.9875 449.291 60.0884 449.656 60.0816 450.082C60.0742 450.552 59.9391 450.998 59.6764 451.42C59.7042 452.359 60.5242 453.119 62.1365 453.699C63.6222 454.192 64.8557 454.447 65.8369 454.462C67.0741 454.482 68.3356 454.31 69.6216 453.946C70.8648 453.582 72.0031 453.109 73.0365 452.528L75.6185 451.161L79.8775 448.988C81.0815 448.41 82.4754 447.963 84.0593 447.646C85.6439 447.287 87.2467 447.121 88.8678 447.147C91.4702 447.188 93.9351 447.824 96.2625 449.056C97.4475 449.672 98.3939 450.541 99.1015 451.661C99.8098 452.739 100.154 453.94 100.133 455.262L100.325 455.265Z" fill="black"/>
<path d="M253.26 959.128C252.407 959.128 251.66 958.936 251.02 958.552C250.423 958.168 250.124 957.635 250.124 956.952C251.063 956.013 251.532 953.517 251.532 949.464C251.532 947.032 251.34 943.491 250.956 938.84C250.53 934.403 250.316 930.904 250.316 928.344L250.444 924.824C250.487 923.8 250.508 922.627 250.508 921.304C250.508 920.109 250.295 918.595 249.868 916.76C249.356 914.84 249.1 913.496 249.1 912.728C249.1 911.235 250.743 910.488 254.028 910.488H254.988C257.292 910.488 259.298 911.192 261.004 912.6C262.37 913.795 263.522 915.523 264.46 917.784C265.1 919.32 265.655 921.453 266.124 924.184C266.38 926.573 266.508 928.451 266.508 929.816V931.864V934.872C266.423 935.043 266.38 935.213 266.38 935.384C266.38 935.725 266.402 935.981 266.444 936.152C266.487 936.323 266.508 936.536 266.508 936.792C266.508 938.157 266.295 939.8 265.868 941.72C265.484 943.597 264.908 945.517 264.14 947.48C262.22 952.173 260.066 955.501 257.676 957.464C256.268 958.573 254.796 959.128 253.26 959.128ZM254.604 955.416C256.183 954.435 257.57 953.027 258.764 951.192C259.959 949.315 260.876 947.245 261.516 944.984C262.668 940.803 263.244 936.579 263.244 932.312C263.244 930.008 263.031 927.491 262.604 924.76C262.135 922.115 261.132 919.725 259.596 917.592C258.871 916.568 257.954 915.779 256.844 915.224C255.735 914.627 254.476 914.328 253.068 914.328V914.392C253.068 918.232 253.324 924.035 253.836 931.8C254.348 939.523 254.604 945.368 254.604 949.336V955.416ZM286.918 959.576C285.937 959.576 285.212 959.427 284.742 959.128C284.273 958.829 284.038 958.275 284.038 957.464C284.038 956.184 283.825 954.008 283.398 950.936L283.142 949.592L276.806 948.632C276.55 949.613 276.188 951.597 275.718 954.584C275.462 956.675 275.057 958.061 274.502 958.744C274.204 959.128 273.777 959.32 273.222 959.32C272.71 959.32 272.241 959.171 271.814 958.872C271.388 958.531 271.174 958.125 271.174 957.656L271.302 957.336L271.366 957.08C274.182 946.115 276.316 935.299 277.766 924.632C277.766 924.461 277.788 924.184 277.83 923.8C277.873 923.373 277.916 922.776 277.958 922.008C278.086 920.429 278.214 919.171 278.342 918.232C278.513 917.293 278.769 916.589 279.11 916.12H281.286C281.884 916.12 282.396 916.269 282.822 916.568C283.249 916.824 283.462 917.208 283.462 917.72C283.462 920.963 283.91 925.784 284.806 932.184C285.66 938.755 286.086 943.363 286.086 946.008C286.086 946.264 286.193 946.925 286.406 947.992C286.62 948.973 286.726 949.613 286.726 949.912C286.726 950.211 286.94 951.491 287.366 953.752C287.75 955.8 287.942 957.123 287.942 957.72V957.784C287.942 958.723 287.601 959.32 286.918 959.576ZM282.694 947.288C282.566 946.648 282.502 945.859 282.502 944.92C282.502 941.08 282.161 936.173 281.478 930.2L280.838 923.544C279.004 933.571 277.745 941.144 277.062 946.264C277.702 946.691 279.58 947.032 282.694 947.288ZM298.683 959.896C297.958 959.896 297.361 959.427 296.891 958.488C297.361 957.592 297.595 953.965 297.595 947.608C297.595 946.115 297.489 944.493 297.275 942.744L297.083 940.888C296.955 939.736 296.891 938.861 296.891 938.264V936.6C296.465 935.533 295.675 933.549 294.523 930.648C293.414 927.747 292.518 925.315 291.835 923.352C291.025 921.091 290.619 919.555 290.619 918.744V918.424L292.091 917.336C292.817 917.421 293.585 918.36 294.395 920.152C295.078 921.731 295.825 923.992 296.635 926.936C297.489 929.88 297.915 931.437 297.915 931.608C298.086 931.139 298.427 929.539 298.939 926.808C299.451 924.077 300.027 921.667 300.667 919.576C301.393 917.485 302.139 916.44 302.907 916.44C303.334 916.44 303.697 916.568 303.995 916.824C304.337 917.08 304.507 917.4 304.507 917.784C304.507 919.96 303.91 923.032 302.715 927C301.435 931.309 300.795 934.424 300.795 936.344V955.608C300.795 958.467 300.091 959.896 298.683 959.896ZM314.376 959.256C313.651 959.256 313.139 959.149 312.84 958.936C312.542 958.723 312.392 958.253 312.392 957.528C312.392 957.059 312.499 956.739 312.712 956.568C312.926 956.397 313.374 956.312 314.056 956.312C314.995 956.312 315.464 955.949 315.464 955.224C315.464 951 315.144 944.771 314.504 936.536C313.864 928.259 313.544 922.115 313.544 918.104C313.544 917.72 313.566 917.357 313.608 917.016V915.8C313.608 913.795 312.883 912.792 311.432 912.792H310.728L309.96 912.856C308.723 912.856 308.104 912.387 308.104 911.448C308.104 910.339 309.832 909.784 313.288 909.784C315.123 909.784 316.211 910.147 316.552 910.872C316.296 912.024 316.168 912.92 316.168 913.56C316.168 914.712 316.339 916.653 316.68 919.384C316.979 921.816 317.128 923.779 317.128 925.272C317.128 928.301 317.363 933.336 317.832 940.376C318.302 946.605 318.536 951.683 318.536 955.608V955.992C318.707 955.992 318.942 955.971 319.24 955.928C319.539 955.885 319.838 955.864 320.136 955.864C320.307 955.821 320.563 955.8 320.904 955.8C322.696 955.8 323.592 956.333 323.592 957.4C323.592 958.637 321.16 959.256 316.296 959.256H315.272H314.376Z" fill="black"/>
<path d="M767.104 959.128C766.251 959.128 765.504 958.936 764.864 958.552C764.267 958.168 763.968 957.635 763.968 956.952C764.907 956.013 765.376 953.517 765.376 949.464C765.376 947.032 765.184 943.491 764.8 938.84C764.373 934.403 764.16 930.904 764.16 928.344L764.288 924.824C764.331 923.8 764.352 922.627 764.352 921.304C764.352 920.109 764.139 918.595 763.712 916.76C763.2 914.84 762.944 913.496 762.944 912.728C762.944 911.235 764.587 910.488 767.872 910.488H768.832C771.136 910.488 773.141 911.192 774.848 912.6C776.213 913.795 777.365 915.523 778.304 917.784C778.944 919.32 779.499 921.453 779.968 924.184C780.224 926.573 780.352 928.451 780.352 929.816V931.864V934.872C780.267 935.043 780.224 935.213 780.224 935.384C780.224 935.725 780.245 935.981 780.288 936.152C780.331 936.323 780.352 936.536 780.352 936.792C780.352 938.157 780.139 939.8 779.712 941.72C779.328 943.597 778.752 945.517 777.984 947.48C776.064 952.173 773.909 955.501 771.52 957.464C770.112 958.573 768.64 959.128 767.104 959.128ZM768.448 955.416C770.027 954.435 771.413 953.027 772.608 951.192C773.803 949.315 774.72 947.245 775.36 944.984C776.512 940.803 777.088 936.579 777.088 932.312C777.088 930.008 776.875 927.491 776.448 924.76C775.979 922.115 774.976 919.725 773.44 917.592C772.715 916.568 771.797 915.779 770.688 915.224C769.579 914.627 768.32 914.328 766.912 914.328V914.392C766.912 918.232 767.168 924.035 767.68 931.8C768.192 939.523 768.448 945.368 768.448 949.336V955.416ZM800.762 959.576C799.781 959.576 799.055 959.427 798.586 959.128C798.117 958.829 797.882 958.275 797.882 957.464C797.882 956.184 797.669 954.008 797.242 950.936L796.986 949.592L790.65 948.632C790.394 949.613 790.031 951.597 789.562 954.584C789.306 956.675 788.901 958.061 788.346 958.744C788.047 959.128 787.621 959.32 787.066 959.32C786.554 959.32 786.085 959.171 785.658 958.872C785.231 958.531 785.018 958.125 785.018 957.656L785.146 957.336L785.21 957.08C788.026 946.115 790.159 935.299 791.61 924.632C791.61 924.461 791.631 924.184 791.674 923.8C791.717 923.373 791.759 922.776 791.802 922.008C791.93 920.429 792.058 919.171 792.186 918.232C792.357 917.293 792.613 916.589 792.954 916.12H795.13C795.727 916.12 796.239 916.269 796.666 916.568C797.093 916.824 797.306 917.208 797.306 917.72C797.306 920.963 797.754 925.784 798.65 932.184C799.503 938.755 799.93 943.363 799.93 946.008C799.93 946.264 800.037 946.925 800.25 947.992C800.463 948.973 800.57 949.613 800.57 949.912C800.57 950.211 800.783 951.491 801.21 953.752C801.594 955.8 801.786 957.123 801.786 957.72V957.784C801.786 958.723 801.445 959.32 800.762 959.576ZM796.538 947.288C796.41 946.648 796.346 945.859 796.346 944.92C796.346 941.08 796.005 936.173 795.322 930.2L794.682 923.544C792.847 933.571 791.589 941.144 790.906 946.264C791.546 946.691 793.423 947.032 796.538 947.288ZM812.527 959.896C811.802 959.896 811.204 959.427 810.735 958.488C811.204 957.592 811.439 953.965 811.439 947.608C811.439 946.115 811.332 944.493 811.119 942.744L810.927 940.888C810.799 939.736 810.735 938.861 810.735 938.264V936.6C810.308 935.533 809.519 933.549 808.367 930.648C807.258 927.747 806.362 925.315 805.679 923.352C804.868 921.091 804.463 919.555 804.463 918.744V918.424L805.935 917.336C806.66 917.421 807.428 918.36 808.239 920.152C808.922 921.731 809.668 923.992 810.479 926.936C811.332 929.88 811.759 931.437 811.759 931.608C811.93 931.139 812.271 929.539 812.783 926.808C813.295 924.077 813.871 921.667 814.511 919.576C815.236 917.485 815.983 916.44 816.751 916.44C817.178 916.44 817.54 916.568 817.839 916.824C818.18 917.08 818.351 917.4 818.351 917.784C818.351 919.96 817.754 923.032 816.559 927C815.279 931.309 814.639 934.424 814.639 936.344V955.608C814.639 958.467 813.935 959.896 812.527 959.896ZM826.94 959.448C826.3 959.448 825.745 959.277 825.276 958.936C824.849 958.552 824.636 958.083 824.636 957.528V957.272C825.489 956.248 826.343 954.541 827.196 952.152C827.58 951 827.9 950.168 828.156 949.656C830.673 944.067 832.508 939.032 833.66 934.552C834.812 930.072 835.388 925.336 835.388 920.344C835.388 915.011 834.364 912.28 832.316 912.152C831.633 912.493 831.164 913.496 830.908 915.16C830.823 915.843 830.609 916.419 830.268 916.888C829.927 917.315 829.5 917.528 828.988 917.528C827.964 917.528 827.452 916.867 827.452 915.544C827.452 913.539 828.049 911.853 829.244 910.488C829.884 909.805 830.652 909.464 831.548 909.464V909.4C832.999 909.4 834.215 909.72 835.196 910.36C835.921 910.787 836.604 911.597 837.244 912.792C837.585 913.475 837.905 914.605 838.204 916.184C838.289 916.952 838.332 917.677 838.332 918.36C838.375 919 838.417 919.469 838.46 919.768V921.496C838.46 924.397 838.097 927.555 837.372 930.968C836.689 934.339 835.857 937.347 834.876 939.992C833.767 943.021 832.657 945.901 831.548 948.632C830.225 951.96 829.265 954.52 828.668 956.312C831.1 955.885 833.617 955.672 836.22 955.672C837.116 956.312 837.564 956.909 837.564 957.464C837.564 957.976 837.287 958.445 836.732 958.872C835.921 958.872 834.769 958.936 833.276 959.064L831.868 959.128C830.076 959.341 828.433 959.448 826.94 959.448ZM853.998 958.808C848.835 958.808 846.254 946.819 846.254 922.84V920.792C846.254 917.592 846.616 915.096 847.342 913.304C847.683 912.28 848.216 911.512 848.942 911C849.71 910.445 850.627 910.168 851.694 910.168C857.795 910.168 860.846 921.027 860.846 942.744C860.846 953.453 858.563 958.808 853.998 958.808ZM854.574 955.864C855.256 955.864 855.811 955.224 856.238 953.944C856.963 952.067 857.475 948.931 857.774 944.536C857.859 943.597 857.902 942.509 857.902 941.272C857.902 938.413 857.774 934.616 857.518 929.88C857.219 925.4 856.558 921.347 855.534 917.72C855.064 915.885 854.424 914.435 853.614 913.368C852.846 912.301 851.971 911.704 850.99 911.576C850.35 912.088 849.902 912.621 849.646 913.176C849.432 913.731 849.326 914.477 849.326 915.416C849.326 917.763 849.368 919.853 849.454 921.688L849.582 928.088C849.582 928.643 849.688 929.667 849.902 931.16C850.115 932.739 850.222 933.784 850.222 934.296C850.222 935.32 850.286 937.667 850.414 941.336C850.584 944.835 850.99 948.056 851.63 951C851.928 952.493 852.334 953.688 852.845 954.584C853.358 955.437 853.934 955.864 854.574 955.864Z" fill="black"/>
<path d="M1252.2 959.128C1251.34 959.128 1250.6 958.936 1249.96 958.552C1249.36 958.168 1249.06 957.635 1249.06 956.952C1250 956.013 1250.47 953.517 1250.47 949.464C1250.47 947.032 1250.28 943.491 1249.89 938.84C1249.47 934.403 1249.25 930.904 1249.25 928.344L1249.38 924.824C1249.42 923.8 1249.45 922.627 1249.45 921.304C1249.45 920.109 1249.23 918.595 1248.81 916.76C1248.29 914.84 1248.04 913.496 1248.04 912.728C1248.04 911.235 1249.68 910.488 1252.97 910.488H1253.93C1256.23 910.488 1258.24 911.192 1259.94 912.6C1261.31 913.795 1262.46 915.523 1263.4 917.784C1264.04 919.32 1264.59 921.453 1265.06 924.184C1265.32 926.573 1265.45 928.451 1265.45 929.816V931.864V934.872C1265.36 935.043 1265.32 935.213 1265.32 935.384C1265.32 935.725 1265.34 935.981 1265.38 936.152C1265.42 936.323 1265.45 936.536 1265.45 936.792C1265.45 938.157 1265.23 939.8 1264.81 941.72C1264.42 943.597 1263.85 945.517 1263.08 947.48C1261.16 952.173 1259 955.501 1256.61 957.464C1255.21 958.573 1253.73 959.128 1252.2 959.128ZM1253.54 955.416C1255.12 954.435 1256.51 953.027 1257.7 951.192C1258.9 949.315 1259.81 947.245 1260.45 944.984C1261.61 940.803 1262.18 936.579 1262.18 932.312C1262.18 930.008 1261.97 927.491 1261.54 924.76C1261.07 922.115 1260.07 919.725 1258.53 917.592C1257.81 916.568 1256.89 915.779 1255.78 915.224C1254.67 914.627 1253.41 914.328 1252.01 914.328V914.392C1252.01 918.232 1252.26 924.035 1252.77 931.8C1253.29 939.523 1253.54 945.368 1253.54 949.336V955.416ZM1285.86 959.576C1284.87 959.576 1284.15 959.427 1283.68 959.128C1283.21 958.829 1282.98 958.275 1282.98 957.464C1282.98 956.184 1282.76 954.008 1282.34 950.936L1282.08 949.592L1275.74 948.632C1275.49 949.613 1275.13 951.597 1274.66 954.584C1274.4 956.675 1273.99 958.061 1273.44 958.744C1273.14 959.128 1272.71 959.32 1272.16 959.32C1271.65 959.32 1271.18 959.171 1270.75 958.872C1270.33 958.531 1270.11 958.125 1270.11 957.656L1270.24 957.336L1270.3 957.08C1273.12 946.115 1275.25 935.299 1276.7 924.632C1276.7 924.461 1276.73 924.184 1276.77 923.8C1276.81 923.373 1276.85 922.776 1276.9 922.008C1277.02 920.429 1277.15 919.171 1277.28 918.232C1277.45 917.293 1277.71 916.589 1278.05 916.12H1280.22C1280.82 916.12 1281.33 916.269 1281.76 916.568C1282.19 916.824 1282.4 917.208 1282.4 917.72C1282.4 920.963 1282.85 925.784 1283.74 932.184C1284.6 938.755 1285.02 943.363 1285.02 946.008C1285.02 946.264 1285.13 946.925 1285.34 947.992C1285.56 948.973 1285.66 949.613 1285.66 949.912C1285.66 950.211 1285.88 951.491 1286.3 953.752C1286.69 955.8 1286.88 957.123 1286.88 957.72V957.784C1286.88 958.723 1286.54 959.32 1285.86 959.576ZM1281.63 947.288C1281.5 946.648 1281.44 945.859 1281.44 944.92C1281.44 941.08 1281.1 936.173 1280.42 930.2L1279.78 923.544C1277.94 933.571 1276.68 941.144 1276 946.264C1276.64 946.691 1278.52 947.032 1281.63 947.288ZM1297.62 959.896C1296.9 959.896 1296.3 959.427 1295.83 958.488C1296.3 957.592 1296.53 953.965 1296.53 947.608C1296.53 946.115 1296.43 944.493 1296.21 942.744L1296.02 940.888C1295.89 939.736 1295.83 938.861 1295.83 938.264V936.6C1295.4 935.533 1294.61 933.549 1293.46 930.648C1292.35 927.747 1291.46 925.315 1290.77 923.352C1289.96 921.091 1289.56 919.555 1289.56 918.744V918.424L1291.03 917.336C1291.75 917.421 1292.52 918.36 1293.33 920.152C1294.02 921.731 1294.76 923.992 1295.57 926.936C1296.43 929.88 1296.85 931.437 1296.85 931.608C1297.02 931.139 1297.36 929.539 1297.88 926.808C1298.39 924.077 1298.96 921.667 1299.6 919.576C1300.33 917.485 1301.08 916.44 1301.84 916.44C1302.27 916.44 1302.63 916.568 1302.93 916.824C1303.27 917.08 1303.44 917.4 1303.44 917.784C1303.44 919.96 1302.85 923.032 1301.65 927C1300.37 931.309 1299.73 934.424 1299.73 936.344V955.608C1299.73 958.467 1299.03 959.896 1297.62 959.896ZM1313.31 959.256C1312.59 959.256 1312.08 959.149 1311.78 958.936C1311.48 958.723 1311.33 958.253 1311.33 957.528C1311.33 957.059 1311.44 956.739 1311.65 956.568C1311.86 956.397 1312.31 956.312 1312.99 956.312C1313.93 956.312 1314.4 955.949 1314.4 955.224C1314.4 951 1314.08 944.771 1313.44 936.536C1312.8 928.259 1312.48 922.115 1312.48 918.104C1312.48 917.72 1312.5 917.357 1312.55 917.016V915.8C1312.55 913.795 1311.82 912.792 1310.37 912.792H1309.67L1308.9 912.856C1307.66 912.856 1307.04 912.387 1307.04 911.448C1307.04 910.339 1308.77 909.784 1312.23 909.784C1314.06 909.784 1315.15 910.147 1315.49 910.872C1315.23 912.024 1315.11 912.92 1315.11 913.56C1315.11 914.712 1315.28 916.653 1315.62 919.384C1315.92 921.816 1316.07 923.779 1316.07 925.272C1316.07 928.301 1316.3 933.336 1316.77 940.376C1317.24 946.605 1317.47 951.683 1317.47 955.608V955.992C1317.64 955.992 1317.88 955.971 1318.18 955.928C1318.48 955.885 1318.78 955.864 1319.07 955.864C1319.24 955.821 1319.5 955.8 1319.84 955.8C1321.63 955.8 1322.53 956.333 1322.53 957.4C1322.53 958.637 1320.1 959.256 1315.23 959.256H1314.21H1313.31ZM1334.34 958.808C1329.18 958.808 1326.6 946.819 1326.6 922.84V920.792C1326.6 917.592 1326.96 915.096 1327.69 913.304C1328.03 912.28 1328.56 911.512 1329.29 911C1330.05 910.445 1330.97 910.168 1332.04 910.168C1338.14 910.168 1341.19 921.027 1341.19 942.744C1341.19 953.453 1338.91 958.808 1334.34 958.808ZM1334.92 955.864C1335.6 955.864 1336.15 955.224 1336.58 953.944C1337.31 952.067 1337.82 948.931 1338.12 944.536C1338.2 943.597 1338.25 942.509 1338.25 941.272C1338.25 938.413 1338.12 934.616 1337.86 929.88C1337.56 925.4 1336.9 921.347 1335.88 917.72C1335.41 915.885 1334.77 914.435 1333.96 913.368C1333.19 912.301 1332.31 911.704 1331.33 911.576C1330.69 912.088 1330.25 912.621 1329.99 913.176C1329.78 913.731 1329.67 914.477 1329.67 915.416C1329.67 917.763 1329.71 919.853 1329.8 921.688L1329.93 928.088C1329.93 928.643 1330.03 929.667 1330.25 931.16C1330.46 932.739 1330.57 933.784 1330.57 934.296C1330.57 935.32 1330.63 937.667 1330.76 941.336C1330.93 944.835 1331.33 948.056 1331.97 951C1332.27 952.493 1332.68 953.688 1333.19 954.584C1333.7 955.437 1334.28 955.864 1334.92 955.864ZM1354.9 958.808C1349.74 958.808 1347.16 946.819 1347.16 922.84V920.792C1347.16 917.592 1347.52 915.096 1348.25 913.304C1348.59 912.28 1349.12 911.512 1349.85 911C1350.62 910.445 1351.53 910.168 1352.6 910.168C1358.7 910.168 1361.75 921.027 1361.75 942.744C1361.75 953.453 1359.47 958.808 1354.9 958.808ZM1355.48 955.864C1356.16 955.864 1356.72 955.224 1357.14 953.944C1357.87 952.067 1358.38 948.931 1358.68 944.536C1358.77 943.597 1358.81 942.509 1358.81 941.272C1358.81 938.413 1358.68 934.616 1358.42 929.88C1358.13 925.4 1357.46 921.347 1356.44 917.72C1355.97 915.885 1355.33 914.435 1354.52 913.368C1353.75 912.301 1352.88 911.704 1351.9 911.576C1351.26 912.088 1350.81 912.621 1350.55 913.176C1350.34 913.731 1350.23 914.477 1350.23 915.416C1350.23 917.763 1350.27 919.853 1350.36 921.688L1350.49 928.088C1350.49 928.643 1350.59 929.667 1350.81 931.16C1351.02 932.739 1351.13 933.784 1351.13 934.296C1351.13 935.32 1351.19 937.667 1351.32 941.336C1351.49 944.835 1351.9 948.056 1352.54 951C1352.83 952.493 1353.24 953.688 1353.75 954.584C1354.26 955.437 1354.84 955.864 1355.48 955.864Z" fill="black"/>
<path d="M457.018 960.024C456.463 960.024 455.973 959.789 455.546 959.32C455.119 958.851 454.906 958.317 454.906 957.72C454.906 957.08 455.141 956.504 455.61 955.992C456.079 955.48 456.634 955.224 457.274 955.224C457.871 955.224 458.405 955.48 458.874 955.992C459.343 956.504 459.578 957.059 459.578 957.656C459.578 958.339 459.322 958.893 458.81 959.32C458.341 959.789 457.743 960.024 457.018 960.024ZM475.518 960.024C474.963 960.024 474.473 959.789 474.046 959.32C473.619 958.851 473.406 958.317 473.406 957.72C473.406 957.08 473.641 956.504 474.11 955.992C474.579 955.48 475.134 955.224 475.774 955.224C476.371 955.224 476.905 955.48 477.374 955.992C477.843 956.504 478.078 957.059 478.078 957.656C478.078 958.339 477.822 958.893 477.31 959.32C476.841 959.789 476.243 960.024 475.518 960.024ZM494.018 960.024C493.463 960.024 492.973 959.789 492.546 959.32C492.119 958.851 491.906 958.317 491.906 957.72C491.906 957.08 492.141 956.504 492.61 955.992C493.079 955.48 493.634 955.224 494.274 955.224C494.871 955.224 495.405 955.48 495.874 955.992C496.343 956.504 496.578 957.059 496.578 957.656C496.578 958.339 496.322 958.893 495.81 959.32C495.341 959.789 494.743 960.024 494.018 960.024ZM512.518 960.024C511.963 960.024 511.473 959.789 511.046 959.32C510.619 958.851 510.406 958.317 510.406 957.72C510.406 957.08 510.641 956.504 511.11 955.992C511.579 955.48 512.134 955.224 512.774 955.224C513.371 955.224 513.905 955.48 514.374 955.992C514.843 956.504 515.078 957.059 515.078 957.656C515.078 958.339 514.822 958.893 514.31 959.32C513.841 959.789 513.243 960.024 512.518 960.024ZM531.018 960.024C530.463 960.024 529.973 959.789 529.546 959.32C529.119 958.851 528.906 958.317 528.906 957.72C528.906 957.08 529.141 956.504 529.61 955.992C530.079 955.48 530.634 955.224 531.274 955.224C531.871 955.224 532.405 955.48 532.874 955.992C533.343 956.504 533.578 957.059 533.578 957.656C533.578 958.339 533.322 958.893 532.81 959.32C532.341 959.789 531.743 960.024 531.018 960.024ZM549.518 960.024C548.963 960.024 548.473 959.789 548.046 959.32C547.619 958.851 547.406 958.317 547.406 957.72C547.406 957.08 547.641 956.504 548.11 955.992C548.579 955.48 549.134 955.224 549.774 955.224C550.371 955.224 550.905 955.48 551.374 955.992C551.843 956.504 552.078 957.059 552.078 957.656C552.078 958.339 551.822 958.893 551.31 959.32C550.841 959.789 550.243 960.024 549.518 960.024ZM568.018 960.024C567.463 960.024 566.973 959.789 566.546 959.32C566.119 958.851 565.906 958.317 565.906 957.72C565.906 957.08 566.141 956.504 566.61 955.992C567.079 955.48 567.634 955.224 568.274 955.224C568.871 955.224 569.405 955.48 569.874 955.992C570.343 956.504 570.578 957.059 570.578 957.656C570.578 958.339 570.322 958.893 569.81 959.32C569.341 959.789 568.743 960.024 568.018 960.024ZM586.518 960.024C585.963 960.024 585.473 959.789 585.046 959.32C584.619 958.851 584.406 958.317 584.406 957.72C584.406 957.08 584.641 956.504 585.11 955.992C585.579 955.48 586.134 955.224 586.774 955.224C587.371 955.224 587.905 955.48 588.374 955.992C588.843 956.504 589.078 957.059 589.078 957.656C589.078 958.339 588.822 958.893 588.31 959.32C587.841 959.789 587.243 960.024 586.518 960.024ZM605.018 960.024C604.463 960.024 603.973 959.789 603.546 959.32C603.119 958.851 602.906 958.317 602.906 957.72C602.906 957.08 603.141 956.504 603.61 955.992C604.079 955.48 604.634 955.224 605.274 955.224C605.871 955.224 606.405 955.48 606.874 955.992C607.343 956.504 607.578 957.059 607.578 957.656C607.578 958.339 607.322 958.893 606.81 959.32C606.341 959.789 605.743 960.024 605.018 960.024Z" fill="black"/>
<path d="M977.018 958.024C976.463 958.024 975.973 957.789 975.546 957.32C975.119 956.851 974.906 956.317 974.906 955.72C974.906 955.08 975.141 954.504 975.61 953.992C976.079 953.48 976.634 953.224 977.274 953.224C977.871 953.224 978.405 953.48 978.874 953.992C979.343 954.504 979.578 955.059 979.578 955.656C979.578 956.339 979.322 956.893 978.81 957.32C978.341 957.789 977.743 958.024 977.018 958.024ZM995.518 958.024C994.963 958.024 994.473 957.789 994.046 957.32C993.619 956.851 993.406 956.317 993.406 955.72C993.406 955.08 993.641 954.504 994.11 953.992C994.579 953.48 995.134 953.224 995.774 953.224C996.371 953.224 996.905 953.48 997.374 953.992C997.843 954.504 998.078 955.059 998.078 955.656C998.078 956.339 997.822 956.893 997.31 957.32C996.841 957.789 996.243 958.024 995.518 958.024ZM1014.02 958.024C1013.46 958.024 1012.97 957.789 1012.55 957.32C1012.12 956.851 1011.91 956.317 1011.91 955.72C1011.91 955.08 1012.14 954.504 1012.61 953.992C1013.08 953.48 1013.63 953.224 1014.27 953.224C1014.87 953.224 1015.4 953.48 1015.87 953.992C1016.34 954.504 1016.58 955.059 1016.58 955.656C1016.58 956.339 1016.32 956.893 1015.81 957.32C1015.34 957.789 1014.74 958.024 1014.02 958.024ZM1032.52 958.024C1031.96 958.024 1031.47 957.789 1031.05 957.32C1030.62 956.851 1030.41 956.317 1030.41 955.72C1030.41 955.08 1030.64 954.504 1031.11 953.992C1031.58 953.48 1032.13 953.224 1032.77 953.224C1033.37 953.224 1033.9 953.48 1034.37 953.992C1034.84 954.504 1035.08 955.059 1035.08 955.656C1035.08 956.339 1034.82 956.893 1034.31 957.32C1033.84 957.789 1033.24 958.024 1032.52 958.024ZM1051.02 958.024C1050.46 958.024 1049.97 957.789 1049.55 957.32C1049.12 956.851 1048.91 956.317 1048.91 955.72C1048.91 955.08 1049.14 954.504 1049.61 953.992C1050.08 953.48 1050.63 953.224 1051.27 953.224C1051.87 953.224 1052.4 953.48 1052.87 953.992C1053.34 954.504 1053.58 955.059 1053.58 955.656C1053.58 956.339 1053.32 956.893 1052.81 957.32C1052.34 957.789 1051.74 958.024 1051.02 958.024ZM1069.52 958.024C1068.96 958.024 1068.47 957.789 1068.05 957.32C1067.62 956.851 1067.41 956.317 1067.41 955.72C1067.41 955.08 1067.64 954.504 1068.11 953.992C1068.58 953.48 1069.13 953.224 1069.77 953.224C1070.37 953.224 1070.9 953.48 1071.37 953.992C1071.84 954.504 1072.08 955.059 1072.08 955.656C1072.08 956.339 1071.82 956.893 1071.31 957.32C1070.84 957.789 1070.24 958.024 1069.52 958.024ZM1088.02 958.024C1087.46 958.024 1086.97 957.789 1086.55 957.32C1086.12 956.851 1085.91 956.317 1085.91 955.72C1085.91 955.08 1086.14 954.504 1086.61 953.992C1087.08 953.48 1087.63 953.224 1088.27 953.224C1088.87 953.224 1089.4 953.48 1089.87 953.992C1090.34 954.504 1090.58 955.059 1090.58 955.656C1090.58 956.339 1090.32 956.893 1089.81 957.32C1089.34 957.789 1088.74 958.024 1088.02 958.024ZM1106.52 958.024C1105.96 958.024 1105.47 957.789 1105.05 957.32C1104.62 956.851 1104.41 956.317 1104.41 955.72C1104.41 955.08 1104.64 954.504 1105.11 953.992C1105.58 953.48 1106.13 953.224 1106.77 953.224C1107.37 953.224 1107.9 953.48 1108.37 953.992C1108.84 954.504 1109.08 955.059 1109.08 955.656C1109.08 956.339 1108.82 956.893 1108.31 957.32C1107.84 957.789 1107.24 958.024 1106.52 958.024ZM1125.02 958.024C1124.46 958.024 1123.97 957.789 1123.55 957.32C1123.12 956.851 1122.91 956.317 1122.91 955.72C1122.91 955.08 1123.14 954.504 1123.61 953.992C1124.08 953.48 1124.63 953.224 1125.27 953.224C1125.87 953.224 1126.4 953.48 1126.87 953.992C1127.34 954.504 1127.58 955.059 1127.58 955.656C1127.58 956.339 1127.32 956.893 1126.81 957.32C1126.34 957.789 1125.74 958.024 1125.02 958.024Z" fill="black"/>
<rect x="6.5732" y="0.502952" width="1518" height="1025" transform="rotate(0.339316 6.5732 0.502952)" stroke="black"/>
</svg>
