<?xml version="1.0" encoding="UTF-8"?>
<svg width="700pt" height="700pt" version="1.1" viewBox="0 0 700 700" xmlns="http://www.w3.org/2000/svg" xmlns:xlink="http://www.w3.org/1999/xlink">
 <defs>
  <symbol id="w" overflow="visible">
   <path d="m0.03125 0h-0.015625-0.015625v-0.015625-0.015625h0.015625 0.015625-0.015625v0.015625 0.015625h0.015625v-0.015625z"/>
  </symbol>
  <symbol id="e" overflow="visible">
   <path d="m0.015625-0.015625v0.015625h-0.015625v-0.03125h0.015625v0.015625-0.015625z"/>
  </symbol>
  <symbol id="b" overflow="visible">
   <path d="m0.03125-0.015625h-0.015625v0.015625c0.0078125 0 0.015625-0.0039062 0.015625-0.015625v0.015625h-0.015625-0.015625v-0.015625l0.015625-0.015625v0.015625h0.015625z"/>
  </symbol>
  <symbol id="a" overflow="visible">
   <path d="m0.015625-0.015625v0.015625-0.015625zm0.015625 0v0.015625h-0.015625-0.015625v-0.015625h0.015625-0.015625v-0.015625h0.015625v0.015625h0.015625z"/>
  </symbol>
  <symbol id="d" overflow="visible">
   <path d="m0.015625-0.03125v0.015625 0.015625h-0.015625v-0.015625-0.015625z"/>
  </symbol>
  <symbol id="l" overflow="visible">
   <path d="m0.015625-0.015625v-0.015625h0.015625v0.03125h-0.015625-0.015625v-0.015625l0.015625-0.015625v0.015625zm0 0.015625v-0.015625 0.015625z"/>
  </symbol>
  <symbol id="k" overflow="visible">
   <path d="m0.015625 0v-0.015625 0.015625zm0-0.015625v-0.015625c0.0078125 0 0.015625 0.0078125 0.015625 0.015625v0.015625h-0.015625-0.015625v-0.03125h0.015625z"/>
  </symbol>
  <symbol id="j" overflow="visible">
   <path d="m0-0.03125h0.015625v0.015625-0.015625h0.015625l-0.015625 0.03125v0.015625h-0.015625v-0.015625h0.015625z"/>
  </symbol>
  <symbol id="i" overflow="visible">
   <path d="m0.015625-0.03125v0.015625 0.015625h0.015625v-0.015625c0-0.0078125-0.0078125-0.015625-0.015625-0.015625zm0 0h0.015625v0.015625 0.015625h-0.015625-0.015625v-0.015625-0.015625h0.015625z"/>
  </symbol>
  <symbol id="v" overflow="visible">
   <path d="m0-0.03125h0.015625v0.03125h-0.015625z"/>
  </symbol>
  <symbol id="f" overflow="visible">
   <path d="m0.03125-0.015625v0.015625h-0.015625v-0.015625 0.015625h-0.015625v-0.03125h0.015625v0.015625-0.015625c0.0078125 0 0.015625 0.0078125 0.015625 0.015625z"/>
  </symbol>
  <symbol id="h" overflow="visible">
   <path d="m0-0.03125h0.015625 0.015625v0.015625h-0.015625v0.015625h-0.015625zm0.015625 0v0.015625-0.015625z"/>
  </symbol>
  <symbol id="g" overflow="visible">
   <path d="m0.03125-0.03125v0.015625h-0.015625c0.0078125 0 0.015625 0.0078125 0.015625 0.015625h-0.015625-0.015625 0.015625v-0.015625h-0.015625l0.015625-0.015625h0.015625z"/>
  </symbol>
  <symbol id="c" overflow="visible">
   <path d="m0.015625-0.015625v0.015625-0.015625zm0-0.015625v0.015625h0.015625c0 0.011719-0.0078125 0.015625-0.015625 0.015625h-0.015625v-0.015625l0.015625-0.015625z"/>
  </symbol>
  <symbol id="u" overflow="visible">
   <path d="m0-0.03125h0.015625v0.015625-0.015625h0.015625l-0.015625 0.03125z"/>
  </symbol>
  <symbol id="t" overflow="visible">
   <path d="m0-0.03125h0.015625v0.015625-0.015625h0.015625l-0.015625 0.015625 0.015625 0.015625h-0.015625v-0.015625 0.015625h-0.015625z"/>
  </symbol>
  <symbol id="s" overflow="visible">
   <path d="m0.015625-0.03125v0.03125h-0.015625v-0.03125h0.015625z"/>
  </symbol>
  <symbol id="r" overflow="visible">
   <path d="m0.03125-0.015625v-0.015625c0.0078125 0 0.015625 0.0078125 0.015625 0.015625v0.015625h-0.015625v-0.015625 0.015625h-0.015625v-0.015625 0.015625h-0.015625v-0.03125h0.015625v0.015625-0.015625 0.015625h0.015625z"/>
  </symbol>
  <symbol id="q" overflow="visible">
   <path d="m0.03125-0.015625v0.015625h-0.015625v-0.015625 0.015625h-0.015625v-0.03125h0.015625v0.015625-0.015625c0.0078125 0 0.015625 0.0078125 0.015625 0.015625z"/>
  </symbol>
  <symbol id="p" overflow="visible">
   <path d="m0-0.03125h0.015625l0.015625 0.015625v-0.015625 0.03125l-0.015625-0.015625v0.015625h-0.015625z"/>
  </symbol>
  <symbol id="o" overflow="visible">
   <path d="m0-0.015625v-0.015625h0.015625v0.015625 0.015625-0.015625-0.015625h0.015625v0.03125h-0.015625-0.015625v-0.015625z"/>
  </symbol>
  <symbol id="n" overflow="visible">
   <path d="m0-0.03125h0.015625v0.03125h-0.015625v0.015625zm0 0h0.015625z"/>
  </symbol>
  <symbol id="m" overflow="visible">
   <path d="m0.03125-0.03125v0.015625h-0.015625v0.015625h0.015625-0.015625-0.015625v-0.015625l0.015625-0.015625h0.015625z"/>
  </symbol>
 </defs>
 <g>
  <path d="m465.76 152.27c0.14844-0.082031 0.30469-0.15234 0.46875-0.21484 8.8047-4.0547 16.676-9.7656 22.574-16.742 6.2656-7.4102 10.285-16.246 10.77-26.004 0.58984-11.887-4.2617-22.25-11.852-30.305-8.9531-9.4961-21.656-15.789-33.828-17.648-3.4102-0.51953-6.75-0.69141-9.9297-0.48828-6.2344 0.40234-11.887 2.2383-16.199 5.7188-4.2305 3.4141-7.2383 8.5156-8.3086 15.527-0.42578 2.793-0.55078 5.8672-0.33594 9.2383 0.48828 7.5977 3.5977 13.656 7.9727 17.871 2.5 2.4102 5.4141 4.2227 8.4883 5.3828 3.043 1.1484 6.2383 1.6523 9.332 1.4531 4.418-0.28516 8.6406-2.0234 11.891-5.3984 1.4258-1.4805 3.7812-1.5273 5.2656-0.10156 1.4805 1.4258 1.5273 3.7812 0.10156 5.2656-4.6289 4.8008-10.582 7.2734-16.789 7.6758-4.1406 0.26562-8.3945-0.39844-12.422-1.9219-4-1.5078-7.7812-3.8633-11.023-6.9883-5.6328-5.4297-9.6289-13.156-10.246-22.773-0.25391-3.9414-0.10547-7.5391 0.39453-10.812 1.375-9.0039 5.3711-15.66 11.02-20.223 5.5703-4.4961 12.676-6.8555 20.398-7.3516 3.7383-0.24219 7.6094-0.046876 11.504 0.54687 13.711 2.0938 28.035 9.1953 38.145 19.922 8.8867 9.4297 14.566 21.645 13.867 35.758-0.57031 11.516-5.2422 21.859-12.52 30.465-2.9062 3.4375-6.2344 6.6016-9.8789 9.4453 20.547-1.6367 38.656 0.65234 54.23 5.7031 23.285 7.5508 40.875 21.25 52.504 37.25 8.8164 12.133 14.215 25.609 16.078 38.754 1.9023 13.445 0.10547 26.559-5.5117 37.59-3.7383 7.3398-9.1523 13.746-16.281 18.711-6.6172 4.6094-14.691 7.957-24.242 9.625-13.523 2.3633-29.176-0.62109-44.031-9.9023-12.848-8.0273-25.121-20.773-34.875-38.852-0.125-0.23437-0.22266-0.47266-0.29297-0.71484-2.2422-0.54297-4.4531-1.2227-6.6289-2.043-3.7656-1.4219-7.4219-3.2539-10.922-5.5-5.3086 6.5664-14.195 19.82-21.754 32.516-6.8359 11.477-12.508 22.301-13.242 26.84 3.7031 3.4453 6.7344 8.0859 3.082 14.445-0.13672 0.24219-0.30078 0.46094-0.48047 0.66016l-6.8359 8.9844c-2 2.6289-4.3867 4.2031-6.9258 4.9219 0.09375 0.26172 0.17187 0.52734 0.24609 0.79297 0.94922 3.5391 0.11719 7.207-2.7656 11.047l-5.1953 6.9219c-1.8672 2.4844-4.1719 4.0859-6.6875 4.9062 0.17969 0.39062 0.34766 0.78516 0.49609 1.1875 1.3516 3.6641 1.3516 7.8438-0.26953 11.727-0.085937 0.21094-0.19141 0.44141-0.30859 0.69141l-5.0391 10.695c-2.1016 4.457-5.5156 7.2344-9.5117 8.5l-0.25781 0.078124c0.21484 0.35156 0.41797 0.70703 0.60938 1.0703 2.1328 3.9844 3.0312 8.6133 2.1211 11.625-0.070313 0.23828-0.16406 0.46094-0.27344 0.67188l-5.3125 11.277c-2.1016 4.457-5.5156 7.2344-9.5117 8.5-3.5703 1.1289-7.5586 1-11.414-0.26172l-18.68 32.176c-0.39062 0.67188-0.82031 1.2969-1.2891 1.8789-2.582 3.2109-6.2266 5.0234-10.02 5.5508-3.7109 0.51953-7.6055-0.20312-10.785-2.0508-0.65625-0.37891-1.2852-0.80859-1.8789-1.2891-0.86719-0.69922-1.6562-1.4258-2.3711-2.1875-0.39453 1.7734-1.0156 3.3789-1.8242 4.793-1.5898 2.7852-3.8711 4.8242-6.5586 6.0352-2.6523 1.1953-5.6758 1.5742-8.7891 1.0547-2.0938-0.34766-4.2266-1.1055-6.3125-2.293-2.0898-1.1914-4.0703-2.8125-5.6562-4.7188-1.4648 1.9141-3.3164 3.3633-5.4141 4.3086-2.6523 1.1953-5.6758 1.5742-8.7891 1.0547-0.76172-0.125-1.5273-0.30859-2.2969-0.54297-1.3789 2.6602-2.9492 4.9883-5.0078 6.8672-2.8711 2.6211-6.4883 4.2188-11.484 4.4102-3.8281 0.14844-6.8828-0.20312-9.6445-1.3633-4.6172 2.0703-9.0391 3.2305-13.207 3.7031-2.4766 0.875-5.7461 2.3984-8.7461 4.0938-2.6836 1.5156-5.0977 3.1289-6.4023 4.4531-13.707 13.93-25.297 31.027-36.586 47.676-4.457 6.5703-8.8633 13.078-13.285 19.227-1.1992 1.668-3.5234 2.0469-5.1914 0.84766s-2.0469-3.5234-0.84766-5.1914c4.457-6.1992 8.7891-12.59 13.172-19.051 11.492-16.953 23.293-34.359 37.43-48.727 1.3672-1.3906 3.4453-2.9102 5.793-4.3672-6-1.5586-11.004-4.2969-14.75-6.9805-1.6758-1.1914-2.0664-3.5156-0.875-5.1914 1.1914-1.6758 3.5156-2.0664 5.1914-0.875 4.2617 3.0508 10.453 6.1875 17.98 6.7852 4.1016 0.32422 8.6133-0.10156 13.453-1.6992-0.9375-1.1172-1.8672-2.3984-2.8164-3.8672-0.45703-0.70703-0.60938-0.92578-1.6406-2.5039-6.5234-9.9766-12.238-18.715-10.824-29.762 0.19531-1.5312 0.66797-5.4492 1.1523-9.4883 1.9609-16.297 4.2031-34.914 8.457-47.551 0.36328-1.0742 0.73828-2.1992 1.125-3.3672 4.375-13.113 10.375-31.094 17.344-37.312 5.7266-5.1094 10.367-9.043 15.207-11.395 1.2422-0.60156 2.4805-1.0977 3.7344-1.4805-1.5664-1.1367-3.207-2.3516-4.9375-3.6484-1.6445-1.2305-1.9766-3.5625-0.74219-5.207 1.2305-1.6445 3.5625-1.9766 5.207-0.74219 5.7031 4.2852 10.352 7.6055 14.414 9.957 0.12109 0.0625 0.23828 0.12891 0.35156 0.20312 3.0273 1.7266 5.7305 2.9102 8.3125 3.543 5.7266 1.4062 11.312 0.054688 19.371-4.0391 1.0938-0.55469 3.0195-1.6406 4.6016-3.2695 1.3633-1.4062 2.4766-3.2656 2.4023-5.5703-0.042969-1.3438-1.332-1.7734-3.0703-2.3555-1.2422-0.41406-2.6016-0.87109-4.0469-1.5547-6.668-3.1641-12.293-6.9531-17.922-10.746-2.3789-1.6016-4.7578-3.207-6.6055-4.3828-3.0391-1.9375-4.8945-2.8672-6.4609-3.2031-1.4375-0.3125-2.9727-0.13672-5.2578 0.16406-11.035 1.4531-25.262 6.0859-38.086 10.262-1.0781 0.35156-2.168 0.70703-5.2812 1.7109-3.3242 1.0703-5.9648 2.1797-8.3359 3.3945-2.3477 1.207-4.4922 2.5664-6.8047 4.1328-5.4844 3.7109-13.824 13.992-22.727 26.285-9.0625 12.508-18.66 27.078-26.52 39.055-8.0977 12.34-10.285 22.125-8.7773 30.555 1.5117 8.4688 6.8125 15.914 13.621 23.324 1.3945 1.5156 1.2969 3.8711-0.21875 5.2656-1.5156 1.3945-3.8711 1.2969-5.2656-0.21875-5.4961-5.9805-10.129-12.059-12.988-18.773-4.6445 9.9414-11.082 20.242-18.5 30.367-12.27 16.758-27.258 33.113-41.172 46.551-1.4805 1.4258-3.8398 1.3789-5.2656-0.10156-1.4258-1.4805-1.3789-3.8398 0.10156-5.2656 13.637-13.168 28.32-29.188 40.328-45.586 9.5156-12.996 17.32-26.184 21.52-38.285-0.60156-9.2344 2.293-19.594 10.375-31.91 7.8906-12.027 17.535-26.66 26.727-39.348 9.3477-12.906 18.281-23.82 24.594-28.094 2.4883-1.6836 4.8398-3.1719 7.5625-4.5703 2.7031-1.3906 5.707-2.6484 9.4727-3.8633 0.33203-0.10547 2.7578-0.89844 5.25-1.7109l2.5156-0.82031 0.035157-0.078126c3.0195-6.5703 5.7383-11.555 9.6406-15.598 3.9883-4.1289 9.0234-7.1055 16.559-9.5117 6.4961-2.0742 9.2109-2.9297 11.793-3.7461 31.766-10.008 47.66-15.016 64.039-31.598 3.9688-4.0195 13.637-17.504 20.309-26.809 0.62891-0.87891 1.2305-1.7148 1.8203-2.5352-1.2148-0.70703-2.4219-1.4375-3.6172-2.1992-18.762-11.926-34.859-30.492-43.762-56.766-6.8594-1.5273-13.773-3.9805-20.52-7.3516-6.6328-3.3125-13.133-7.5391-19.285-12.668l-0.074219-0.0625-0.007812 0.007813c-16.387-13.688-27.016-31.184-30.953-48.414-4.0156-17.578-1.1016-34.918 9.6875-47.859l0.007813-0.007813-0.007813-0.007813 0.023437-0.027343c8.1289-9.7305 19.508-15.523 32.336-17.461 12.973-1.9609 27.434 0.039063 41.438 5.9141 9.4766 3.9766 19.605 12.23 27.82 22.414 7.5273 9.332 13.512 20.359 15.977 31.281 2.9492-0.21875 5.918 0.070313 8.7617 0.875 6.6406 1.8789 12.59 6.5195 16.086 13.98 0.87109 1.8594 0.066407 4.0742-1.793 4.9453-1.8594 0.87109-4.0742 0.066406-4.9453-1.793-2.5-5.332-6.6992-8.6367-11.363-9.9531-3.0898-0.875-6.3906-0.89062-9.5469-0.0625-3.1797 0.83594-6.2109 2.5273-8.7344 5.0664-4.4023 4.4219-7.2969 11.445-6.8984 21.062 0.22656 5.4844 1.2969 10.59 3.0742 15.305 5.2578 13.961 16.754 24.547 30.836 31.512 14.328 7.0859 31.273 10.418 47.133 9.7617 8.6172-0.35547 16.895-1.8945 24.223-4.6562 1.5039-0.56641 2.9922-1.1797 4.4492-1.8398zm-7.1445 83.531c-4.4062-3.6328-8.4922-7.9883-12.145-13.043-2.0312-2.8086-3.9297-5.8359-5.6758-9.0742-4.2383 0.95703-8.6523 1.6172-13.188 1.9688-17.715 1.3711-37.43-1.9531-55.555-10.832-0.71484 0.99219-1.5312 2.1328-2.3906 3.332-6.7852 9.4648-16.621 23.18-21.066 27.684-17.699 17.918-34.184 23.113-67.129 33.492-4.8281 1.5234-9.9531 3.1367-11.766 3.7148-6.2422 1.9961-10.324 4.3672-13.438 7.5859-1.957 2.0273-3.6016 4.4531-5.1992 7.3711 9.4141-2.918 18.902-5.5195 27.066-6.5938 3.0977-0.40625 5.2109-0.63672 7.7969-0.074219 2.4609 0.53516 5.0078 1.7578 8.8828 4.2266 2.6914 1.7148 4.7344 3.0898 6.7773 4.4688 5.418 3.6484 10.836 7.2969 16.93 10.191 1.1055 0.52344 2.2148 0.89453 3.2305 1.2344 4.5625 1.5273 7.9336 2.6523 8.1445 9.1797 0.15234 4.7383-1.9414 8.3555-4.5039 10.996-2.3438 2.418-5.0547 3.9531-6.5859 4.7305-9.7461 4.9531-16.777 6.5195-24.504 4.6211-3.207-0.78906-6.4414-2.1797-9.9805-4.1836-4.3359-1.1211-7.8516-0.66016-11.344 1.0352-4.0195 1.9492-8.2305 5.5391-13.484 10.227-5.4883 4.8984-11.129 21.805-15.242 34.133-0.39062 1.1641-0.76562 2.293-1.125 3.3672-3.9883 11.848-6.1875 30.094-8.1094 46.066-0.30469 2.5469-0.60547 5.0195-1.1836 9.5469-1.0625 8.3047 3.957 15.984 9.6875 24.746l1.6406 2.5352c1.9922 3.0781 3.6992 4.9727 5.5781 5.9883 1.8281 0.98828 4.1016 1.2773 7.25 1.1562 3.0078-0.11328 5.1211-1.0156 6.7305-2.4844 1.3242-1.207 2.418-2.8711 3.4336-4.8398-1.7109-1.3438-3.2422-2.9727-4.4023-4.7852-1.6367-2.5586-2.5508-5.4961-2.2617-8.5859l3.7734-40.281c0.26172-2.7852 0.11719-4.7656-0.46094-6.5703-0.60547-1.8867-1.7578-3.8242-3.457-6.3867-1.1367-1.7148-0.66406-4.0273 1.0508-5.1641 1.7148-1.1367 4.0273-0.66406 5.1641 1.0508 2.0469 3.0781 3.4609 5.5039 4.332 8.2227 0.89844 2.8047 1.1406 5.6758 0.78125 9.5156l-3.7734 40.281c-0.125 1.3242 0.32812 2.6758 1.125 3.918 1.043 1.6328 2.6406 3.0469 4.3789 4.043 1.3008 0.74219 2.6055 1.2109 3.8633 1.418 1.6367 0.27344 3.1875 0.09375 4.5039-0.5 1.2812-0.57812 2.375-1.5625 3.1484-2.9141 0.53516-0.9375 0.92969-2.0625 1.1484-3.3672l7.6953-46.273c0.64062-3.8555-0.49219-5.375-2.4609-8.0156-0.78516-1.0547-1.668-2.2383-2.6562-3.7461-1.1289-1.7227-0.64453-4.0352 1.0781-5.1641s4.0352-0.64453 5.1641 1.0781c0.83984 1.2852 1.6641 2.3867 2.3945 3.3672 3.1719 4.25 5 6.6992 3.832 13.703l-7.1289 42.867c0.097656 0.39062 0.13281 0.80859 0.09375 1.2344-0.125 1.3242 0.32812 2.6758 1.125 3.918 1.043 1.6328 2.6406 3.0508 4.3789 4.043 1.3008 0.74219 2.6055 1.2109 3.8633 1.418 1.6367 0.27344 3.1875 0.09375 4.5039-0.5 1.2812-0.57812 2.375-1.5625 3.1484-2.9141 0.53516-0.9375 0.92969-2.0625 1.1484-3.3672l7.6953-46.273c0.64062-3.8555-0.49219-5.375-2.4609-8.0156-0.78516-1.0547-1.668-2.2383-2.6562-3.7461-1.1289-1.7227-0.64453-4.0352 1.0781-5.1641 1.7227-1.1289 4.0352-0.64453 5.1641 1.0781 0.83984 1.2852 1.6641 2.3867 2.3945 3.3672 3.1719 4.25 5 6.6992 3.832 13.703l-5.3672 32.258c-0.375 2.2578-0.20312 4.3672 0.53906 6.2656 0.73438 1.875 2.0469 3.6094 3.9688 5.1562 0.29297 0.23828 0.60938 0.45313 0.94531 0.64453 1.7539 1.0195 3.9297 1.4102 6.0312 1.1172 2.0156-0.28125 3.9258-1.2109 5.2383-2.8398 0.23437-0.28906 0.44922-0.60547 0.64844-0.94531l18.598-32.039-10.996-6.9805c-4.4375-2.8164-7.3242-6.3867-8.6797-10.566-1.3555-4.1797-1.0977-8.8203 0.74609-13.785 0.13281-0.35156 0.23438-0.60938 0.30469-0.77344 1.7266-3.8945 5.668-7.8281 10.598-10.191 1.5625-0.75 3.2305-1.3477 4.9688-1.75-1.8633-2.0078-3.1953-4.2578-3.9922-6.7227-1.3555-4.1797-1.0977-8.8203 0.74609-13.785 0.3125-0.83984 0.63672-1.582 0.96875-2.2227 3.4844-6.6992 9.7969-9.3008 16.844-9.6016 2.7539-0.11719 5.625 0.13672 8.457 0.63281-2.8711-2.9648-4.4844-6.2461-4.8711-9.75-0.41016-3.7305 0.58984-7.5508 2.9609-11.34 0.054687-0.089844 0.11328-0.17578 0.17578-0.25781l0.10938-0.17578c2.0547-3.0039 5.9141-5.7266 10.25-7.0117 1.6914-0.5 3.4688-0.79297 5.2578-0.81641-0.054688-0.41016-0.089844-0.82422-0.10938-1.2422-0.14453-3.4141 0.97656-6.9766 3.3203-10.586 0.35547-0.54688 0.67578-1.0039 0.96875-1.3789 3.75-4.8203 8.582-6.4258 13.562-6.1211 4.5117 0.27344 9.0469 2.207 12.832 4.6562 2.2031-6.2539 7.3008-15.863 13.184-25.738 7.5625-12.699 16.504-26.035 22.125-33.086zm7.4258-3.6602c0.070312 0.046875 0.14062 0.097656 0.20703 0.14844 3.7773 2.7148 7.7773 4.8633 11.926 6.4258 9.6172 3.625 20.07 4.125 30.41 1.3438 6.6992-1.8047 13.348-4.9766 19.695-9.5664 1.668-1.1992 3.9922-0.82031 5.1914 0.84766 1.1992 1.668 0.82031 3.9922-0.84766 5.1914-7.1133 5.1445-14.582 8.707-22.117 10.734-6.3672 1.7148-12.781 2.3398-19.074 1.9023 8.6523 14.609 19.051 25.062 29.852 31.809 13.223 8.2617 27.008 10.945 38.809 8.8828 8.4375-1.4766 15.516-4.3945 21.27-8.4023 6.0781-4.2344 10.699-9.6992 13.891-15.969 4.918-9.6562 6.4766-21.238 4.7852-33.188-1.6914-11.957-6.6406-24.262-14.734-35.402-10.77-14.816-27.098-27.52-48.742-34.539-18.707-6.0664-41.402-7.8906-67.953-3.2109-1.5352 0.69141-3.0977 1.332-4.6797 1.9297-8.0703 3.0391-17.145 4.7344-26.559 5.1211-17.047 0.70312-35.281-2.8867-50.719-10.52-15.68-7.7539-28.531-19.688-34.512-35.566-2.043-5.4297-3.2773-11.309-3.5391-17.637-0.49219-11.914 3.3047-20.824 9.0586-26.605 2.8086-2.8203 6.0742-4.8906 9.543-6.1953-2.1992-9.7461-7.6406-19.707-14.508-28.223-7.457-9.2422-16.527-16.684-24.906-20.199-12.742-5.3438-25.805-7.1797-37.441-5.418-11.062 1.6719-20.828 6.6055-27.727 14.867l-0.023438 0.027344-0.007812-0.007813c-9.2109 11.051-11.645 26.074-8.1367 41.434 3.5898 15.715 13.363 31.738 28.473 44.359l-0.007812 0.007813 0.058593 0.046874c5.6484 4.7109 11.668 8.6133 17.855 11.707 4.8477 2.4219 9.7773 4.3242 14.691 5.707-0.019532-0.074219-0.039063-0.14844-0.058594-0.22266-2.1211-8.0664-3.6016-16.773-4.3242-26.137-0.15234-2.0547 1.3867-3.8438 3.4414-3.9961 2.0547-0.15234 3.8438 1.3867 3.9961 3.4414 0.69141 8.9258 2.0898 17.18 4.0898 24.793 7.5781 28.809 23.84 48.652 43.117 60.906 19.297 12.266 41.609 16.957 61.262 15.438 3.5742-0.27734 7.0469-0.75781 10.395-1.4336-1.9297-4.4375-3.5977-9.207-4.9688-14.305-0.53125-1.9883 0.64844-4.0312 2.6406-4.5664 1.9883-0.53125 4.0312 0.64844 4.5664 2.6406 1.6797 6.2383 3.8242 11.93 6.3555 17.059 0.035156 0.066407 0.070313 0.13672 0.10156 0.20703 1.9141 3.8516 4.0469 7.3828 6.3672 10.594 4.0078 5.543 8.5742 10.129 13.535 13.727zm-69.828 112.4 0.39844 0.18359 0.003907-0.003906 0.20703 0.097656c1.2461 0.49609 2.5117 0.70313 3.7031 0.58203 1.5938-0.16406 3.1094-0.97266 4.293-2.5508l5.1953-6.9219c1.3867-1.8516 1.8516-3.3867 1.5117-4.6562-0.39844-1.4766-1.793-2.9805-4.0352-4.5195-0.25781-0.15625-0.51563-0.32031-0.76563-0.49219-0.14062-0.09375-0.26953-0.19922-0.39453-0.30859l-8.8477-7.9297-0.11719-0.074219c-2.3203-1.4531-5.1875-1.4648-7.7891-0.69531-2.7148 0.80469-5.043 2.3789-6.1953 4.0664l-0.054687 0.078126-0.054687 0.089843c-1.4688 2.3477-2.1055 4.5664-1.8828 6.5859 0.21875 1.9688 1.2695 3.9062 3.1875 5.7617l10.277 9.9453c0.19922 0.13281 0.40234 0.25781 0.60547 0.375 0.26172 0.12891 0.51562 0.25781 0.76172 0.38672zm1.3594 11.434c-0.70312-1.9023-2.1055-3.5352-4.0742-4.4844-0.09375-0.042969-0.1875-0.082032-0.28125-0.125-0.14062-0.054688-0.28125-0.11719-0.42188-0.1875-1.7344-0.90234-3.8047-1.8359-6.0312-2.6641-4.9297-1.832-10.844-3.2891-16.082-3.0664-4.5195 0.19141-8.4922 1.7148-10.516 5.6055-0.25 0.48437-0.46094 0.94141-0.62109 1.375-1.2422 3.3516-1.457 6.3516-0.62891 8.9141 0.80078 2.4766 2.6602 4.6836 5.5898 6.543l14.832 9.4141c2.7188 1.1094 5.5039 1.3516 7.8633 0.60547 2.082-0.65625 3.8828-2.1484 5.0195-4.5625l5.0391-10.695c0.046875-0.10156 0.10156-0.22656 0.16406-0.37109 0.87109-2.0938 0.875-4.3398 0.15234-6.3008zm-18.609 29.066c-0.95312-0.26562-1.9023-0.59766-2.8359-1-0.20703-0.089844-0.40234-0.19531-0.58594-0.31641l-8.0352-5.0977c-0.54687 0.023438-1.1094-0.078125-1.6445-0.3125-0.33984-0.15234-0.58594-0.25391-0.73828-0.3125-3.7852-1.4062-7.7539-0.79297-11.066 0.79297-3.3281 1.5977-5.9219 4.0938-6.9805 6.4844-0.097656 0.21875-0.14844 0.33984-0.16016 0.36328-1.2422 3.3516-1.457 6.3516-0.62891 8.9141 0.80078 2.4766 2.6602 4.6836 5.5898 6.543l14.832 9.4141c2.7188 1.1094 5.5039 1.3516 7.8633 0.60547 2.082-0.66016 3.8828-2.1484 5.0195-4.5625l5.2266-11.09c0.25781-1.2734-0.38281-3.5508-1.5859-5.8008-1.0859-2.0273-2.5938-3.8398-4.2695-4.625zm23.285-72.738c0.046875 0.042968 0.089844 0.085937 0.13281 0.12891l8.707 7.8047c1.5234 0.98438 3.1719 1.4922 4.6875 1.293 1.293-0.17188 2.5781-0.91016 3.707-2.3906l6.8164-8.9609c1.4805-2.8125-2.3516-5.793-4.9141-7.7852l-0.078125-0.0625c-0.69531-0.53906-1.3711-1.0273-2.0156-1.4453-2.8438-1.8477-6.1445-3.2969-9.2539-3.4844-2.6562-0.16016-5.2344 0.69141-7.2305 3.2617-0.25391 0.32422-0.46094 0.60938-0.61719 0.85156-1.4844 2.2891-2.2031 4.3906-2.125 6.2422 0.066406 1.6016 0.78906 3.1328 2.1875 4.5469zm66.328-277.98-0.49219-0.12109-0.42188-0.10156-0.84375-0.19531-0.42187-0.09375-0.84375-0.17969-0.84375-0.17188-0.84375-0.16406-0.84375-0.15625-0.42188-0.074219-0.84375-0.14062-0.84375-0.13281-1.1289 7.3828 0.38281 0.058593 0.76562 0.125 0.76953 0.13281 0.76562 0.14062 0.76953 0.14844 0.77344 0.15625 0.38672 0.082032 0.77344 0.16797c0.38672 0.089844 0.77344 0.17578 1.1562 0.26953l0.45703 0.10937 1.7773-7.25zm63.98 61.801-0.046875-0.26953-0.082031-0.46094-0.085938-0.45703-0.089844-0.45703-0.09375-0.45703-0.097656-0.45703-0.20312-0.90625-0.10547-0.45312-0.10938-0.44922-0.11328-0.44922-0.11719-0.44922-0.24219-0.89062-0.125-0.44141-0.12891-0.44141-0.13281-0.44141-0.070312-0.23047-7.1289 2.2148 0.17187 0.56641 0.11328 0.39062 0.21875 0.78125 0.10547 0.39453 0.20313 0.78906 0.097656 0.39844 0.09375 0.39844 0.17969 0.79688 0.085938 0.40234 0.082031 0.40234 0.078125 0.40234 0.078125 0.40625 0.074219 0.40625 0.046875 0.26953 7.3516-1.3125zm-12.617-28.664-0.33984-0.45312-0.27344-0.35938-0.55469-0.71094-0.5625-0.70312-0.28516-0.35156-0.28516-0.34766-0.28906-0.34766-0.28906-0.34375-0.58594-0.6875-0.59375-0.67969-0.60156-0.67188-0.35156-0.38672-5.4805 5.0703 0.29297 0.32422 0.54687 0.60938 0.53906 0.61719 0.26562 0.30859 0.26562 0.3125 0.52344 0.625 0.51563 0.63281 0.25391 0.31641 0.25391 0.32031 0.5 0.64062 0.24609 0.32422 0.3125 0.41797 5.9727-4.4805zm-22.922-20.941-0.42188-0.26563-0.38281-0.23828-0.76562-0.47266-0.38672-0.23438-0.77344-0.46094-0.78125-0.45312-0.78125-0.44531-0.39062-0.21875-0.39453-0.21875-0.78906-0.42969-0.39453-0.21094-0.46484-0.24609-3.457 6.6172 0.40625 0.21484 0.73047 0.39453 0.36328 0.19922 0.36328 0.20312 0.72266 0.41016 0.71875 0.41406 0.71875 0.42188 0.71094 0.42969 0.70703 0.4375 0.35156 0.21875 0.39453 0.25 4-6.3047zm71.727 159.26c-0.75391-1.043-0.52344-2.5 0.51953-3.2539s2.5-0.52344 3.2539 0.51953c6.8633 9.4414 11.062 19.922 12.508 30.145 1.4766 10.43 0.085937 20.602-4.2695 29.148-0.58203 1.1484-1.9883 1.6055-3.1367 1.0195-1.1484-0.58203-1.6055-1.9883-1.0195-3.1367 3.9141-7.6875 5.1562-16.898 3.8125-26.395-1.3398-9.4766-5.2578-19.23-11.672-28.047z"/>
  <use x="70" y="560.140625" xlink:href="#w"/>
  <use x="70.035156" y="560.140625" xlink:href="#e"/>
  <use x="70.058594" y="560.140625" xlink:href="#b"/>
  <use x="70.089844" y="560.140625" xlink:href="#a"/>
  <use x="70.121094" y="560.140625" xlink:href="#d"/>
  <use x="70.144531" y="560.140625" xlink:href="#b"/>
  <use x="70.175781" y="560.140625" xlink:href="#l"/>
  <use x="70.222656" y="560.140625" xlink:href="#k"/>
  <use x="70.257812" y="560.140625" xlink:href="#j"/>
  <use x="70.304688" y="560.140625" xlink:href="#i"/>
  <use x="70.34375" y="560.140625" xlink:href="#v"/>
  <use x="70.359375" y="560.140625" xlink:href="#b"/>
  <use x="70.390625" y="560.140625" xlink:href="#f"/>
  <use x="70.425781" y="560.140625" xlink:href="#a"/>
  <use x="70.472656" y="560.140625" xlink:href="#h"/>
  <use x="70.507812" y="560.140625" xlink:href="#a"/>
  <use x="70.539062" y="560.140625" xlink:href="#f"/>
  <use x="70.570312" y="560.140625" xlink:href="#a"/>
  <use x="70.601562" y="560.140625" xlink:href="#g"/>
  <use x="70.628906" y="560.140625" xlink:href="#c"/>
  <use x="70.664062" y="560.140625" xlink:href="#u"/>
  <use x="70.691406" y="560.140625" xlink:href="#g"/>
  <use x="70.722656" y="560.140625" xlink:href="#t"/>
  <use x="70.75" y="560.140625" xlink:href="#a"/>
  <use x="70" y="560.1875" xlink:href="#s"/>
  <use x="70.019531" y="560.1875" xlink:href="#e"/>
  <use x="70.042969" y="560.1875" xlink:href="#c"/>
  <use x="70.074219" y="560.1875" xlink:href="#r"/>
  <use x="70.140625" y="560.1875" xlink:href="#d"/>
  <use x="70.164062" y="560.1875" xlink:href="#q"/>
  <use x="70.195312" y="560.1875" xlink:href="#b"/>
  <use x="70.242188" y="560.1875" xlink:href="#p"/>
  <use x="70.28125" y="560.1875" xlink:href="#c"/>
  <use x="70.316406" y="560.1875" xlink:href="#o"/>
  <use x="70.347656" y="560.1875" xlink:href="#f"/>
  <use x="70.398438" y="560.1875" xlink:href="#h"/>
  <use x="70.433594" y="560.1875" xlink:href="#e"/>
  <use x="70.453125" y="560.1875" xlink:href="#c"/>
  <use x="70.488281" y="560.1875" xlink:href="#n"/>
  <use x="70.503906" y="560.1875" xlink:href="#b"/>
  <use x="70.535156" y="560.1875" xlink:href="#m"/>
  <use x="70.5625" y="560.1875" xlink:href="#d"/>
 </g>
</svg>
